M48
INCH,TZ
T1C0.012
T2C0.040
T3C0.102
%
G90
G05
T1
X021220Y-040748
X021260Y-047933
X021260Y-049429
X021299Y-047146
X021909Y-045689
X021909Y-048406
X021909Y-049252
X021929Y-042146
X021929Y-043819
X022756Y-050354
X024862Y-041220
X025157Y-047933
X025551Y-047559
X025787Y-041201
X026319Y-049075
X026811Y-048839
X027008Y-041201
X027263Y-044242
X027421Y-046378
X027654Y-046613
X028071Y-045335
X028130Y-041201
X028307Y-048524
X028524Y-049154
X028539Y-045929
X028736Y-042961
X028760Y-044587
X028878Y-047992
X028917Y-048819
X028933Y-046138
X029256Y-043863
X029273Y-046588
X030079Y-043287
X030157Y-041417
X030157Y-042165
X030236Y-046167
X030669Y-045354
X030729Y-046146
X030736Y-048408
X030827Y-049173
X030965Y-041299
X031195Y-046601
X031201Y-048858
X032087Y-044823
X032129Y-042599
X032913Y-048543
X032968Y-047176
X033130Y-041496
X033287Y-043209
X033365Y-041071
X033546Y-044382
X033999Y-046005
X035335Y-048044
X035492Y-043780
X035494Y-046729
X035906Y-042933
X036647Y-047764
T2
X022528Y-040370
X023528Y-040370
X024528Y-040370
X024528Y-050181
X025528Y-040370
X025528Y-050181
X026528Y-040370
X026528Y-050181
X027528Y-040370
X027528Y-050181
X028528Y-040370
X028528Y-050181
X029528Y-040370
X029528Y-050181
X030528Y-040370
X030528Y-050181
X031528Y-040370
X031528Y-050181
X032528Y-040370
X032528Y-050181
X033528Y-040370
X033528Y-050181
X034528Y-040370
X034528Y-050181
X035528Y-040370
X035528Y-050181
X036528Y-040370
X036528Y-050181
X037370Y-044276
X037370Y-045276
X037370Y-046276
X038370Y-044276
X038370Y-045276
X038370Y-046276
T3
X038228Y-040512
X038228Y-050039
T0
M30
