G04 (created by PCBNEW (2013-may-18)-stable) date Mon 04 May 2015 02:01:06 PM CST*
%MOIN*%
G04 Gerber Fmt 3.4, Leading zero omitted, Abs format*
%FSLAX34Y34*%
G01*
G70*
G90*
G04 APERTURE LIST*
%ADD10C,0.00590551*%
%ADD11R,0.0905512X0.023622*%
%ADD12R,0.228346X0.228346*%
%ADD13R,0.06X0.06*%
%ADD14C,0.06*%
%ADD15C,0.023622*%
%ADD16C,0.01*%
%ADD17C,0.011811*%
%ADD18C,0.015748*%
G04 APERTURE END LIST*
G54D10*
G54D11*
X19862Y-40787D03*
X19862Y-41102D03*
X19862Y-41417D03*
X19862Y-41732D03*
X19862Y-42047D03*
X19862Y-42362D03*
X19862Y-42677D03*
X19862Y-42992D03*
X19862Y-44566D03*
X19862Y-44881D03*
X19862Y-45196D03*
X19862Y-45511D03*
X19862Y-45826D03*
X19862Y-46141D03*
X19862Y-46456D03*
X19862Y-46771D03*
X19862Y-47086D03*
X19862Y-47401D03*
X19862Y-47716D03*
X19862Y-48031D03*
X19862Y-48346D03*
X19862Y-48661D03*
X19862Y-48976D03*
X19862Y-49291D03*
X19862Y-49606D03*
X19862Y-49921D03*
G54D12*
X38228Y-50039D03*
X38228Y-40511D03*
G54D13*
X37370Y-44275D03*
G54D14*
X38370Y-44275D03*
X37370Y-45275D03*
X38370Y-45275D03*
X37370Y-46275D03*
X38370Y-46275D03*
G54D13*
X36527Y-40370D03*
G54D14*
X35527Y-40370D03*
X34527Y-40370D03*
X33527Y-40370D03*
X32527Y-40370D03*
X31527Y-40370D03*
X30527Y-40370D03*
X29527Y-40370D03*
X28527Y-40370D03*
X27527Y-40370D03*
X26527Y-40370D03*
X25527Y-40370D03*
X24527Y-40370D03*
X23527Y-40370D03*
X22527Y-40370D03*
G54D13*
X36527Y-50181D03*
G54D14*
X35527Y-50181D03*
X34527Y-50181D03*
X33527Y-50181D03*
X32527Y-50181D03*
X31527Y-50181D03*
X30527Y-50181D03*
X29527Y-50181D03*
X28527Y-50181D03*
X27527Y-50181D03*
X26527Y-50181D03*
X25527Y-50181D03*
X24527Y-50181D03*
G54D15*
X28492Y-47589D03*
X28678Y-45996D03*
X30017Y-46156D03*
X30277Y-46615D03*
X30286Y-47031D03*
X31280Y-46166D03*
X30826Y-49173D03*
X28523Y-49153D03*
X26318Y-49074D03*
X25157Y-47933D03*
X25551Y-47559D03*
X26811Y-48838D03*
X28917Y-48818D03*
X31200Y-48858D03*
X31917Y-42218D03*
X29594Y-44518D03*
X33015Y-41758D03*
X29732Y-43906D03*
X29738Y-43403D03*
X30348Y-47707D03*
X33306Y-44285D03*
X32980Y-46613D03*
X33974Y-44374D03*
X31193Y-41879D03*
X21909Y-49251D03*
X21909Y-48405D03*
X21909Y-45688D03*
X21929Y-43818D03*
X21929Y-42145D03*
X21220Y-40748D03*
X30196Y-42125D03*
X31574Y-41515D03*
X27086Y-41358D03*
X27086Y-42519D03*
X28405Y-48464D03*
X25590Y-43996D03*
X23425Y-48858D03*
X26771Y-46633D03*
X22755Y-50354D03*
X21259Y-49429D03*
X33326Y-42854D03*
X33307Y-43562D03*
X31200Y-43937D03*
X29192Y-45570D03*
X30767Y-45610D03*
X22834Y-42795D03*
X34094Y-47303D03*
X35787Y-47342D03*
X21299Y-47145D03*
X21259Y-47933D03*
G54D16*
X29288Y-48385D02*
X28492Y-47589D01*
X31080Y-48385D02*
X29288Y-48385D01*
X31527Y-48832D02*
X31080Y-48385D01*
X31527Y-50181D02*
X31527Y-48832D01*
X28678Y-46432D02*
X28678Y-45996D01*
X30398Y-48153D02*
X28678Y-46432D01*
X31112Y-48153D02*
X30398Y-48153D01*
X32527Y-49568D02*
X31112Y-48153D01*
X32527Y-50181D02*
X32527Y-49568D01*
X30790Y-47444D02*
X33527Y-50181D01*
X30349Y-47444D02*
X30790Y-47444D01*
X30017Y-47112D02*
X30349Y-47444D01*
X30017Y-46156D02*
X30017Y-47112D01*
X30962Y-46615D02*
X30277Y-46615D01*
X34527Y-50181D02*
X30962Y-46615D01*
X31001Y-47031D02*
X30286Y-47031D01*
X34027Y-50057D02*
X31001Y-47031D01*
X34027Y-50312D02*
X34027Y-50057D01*
X34325Y-50610D02*
X34027Y-50312D01*
X35098Y-50610D02*
X34325Y-50610D01*
X35527Y-50181D02*
X35098Y-50610D01*
X32137Y-46166D02*
X31280Y-46166D01*
X36098Y-50127D02*
X32137Y-46166D01*
X36098Y-50181D02*
X36098Y-50127D01*
X36527Y-50181D02*
X36098Y-50181D01*
X28543Y-49173D02*
X30826Y-49173D01*
X28523Y-49153D02*
X28543Y-49173D01*
X26299Y-49074D02*
X26318Y-49074D01*
X25157Y-47933D02*
X26299Y-49074D01*
X25551Y-47578D02*
X25551Y-47559D01*
X26811Y-48838D02*
X25551Y-47578D01*
X29980Y-48818D02*
X28917Y-48818D01*
X30196Y-48602D02*
X29980Y-48818D01*
X30413Y-48602D02*
X30196Y-48602D01*
X30629Y-48818D02*
X30413Y-48602D01*
X31161Y-48818D02*
X30629Y-48818D01*
X31200Y-48858D02*
X31161Y-48818D01*
X34303Y-42218D02*
X31917Y-42218D01*
X36098Y-40423D02*
X34303Y-42218D01*
X36098Y-40370D02*
X36098Y-40423D01*
X36527Y-40370D02*
X36098Y-40370D01*
X25527Y-40452D02*
X29594Y-44518D01*
X25527Y-40370D02*
X25527Y-40452D01*
X33138Y-41758D02*
X33015Y-41758D01*
X34527Y-40370D02*
X33138Y-41758D01*
X30922Y-42715D02*
X29732Y-43906D01*
X30922Y-40975D02*
X30922Y-42715D01*
X31527Y-40370D02*
X30922Y-40975D01*
X30527Y-42614D02*
X29738Y-43403D01*
X30527Y-40370D02*
X30527Y-42614D01*
X29473Y-40423D02*
X29527Y-40370D01*
X29473Y-44048D02*
X29473Y-40423D01*
X29841Y-44416D02*
X29473Y-44048D01*
X29841Y-44621D02*
X29841Y-44416D01*
X29770Y-44691D02*
X29841Y-44621D01*
X29770Y-47129D02*
X29770Y-44691D01*
X30348Y-47707D02*
X29770Y-47129D01*
X33733Y-44712D02*
X33306Y-44285D01*
X37429Y-44712D02*
X33733Y-44712D01*
X37810Y-45093D02*
X37429Y-44712D01*
X37810Y-45835D02*
X37810Y-45093D01*
X37370Y-46275D02*
X37810Y-45835D01*
X34318Y-45275D02*
X32980Y-46613D01*
X37370Y-45275D02*
X34318Y-45275D01*
X33351Y-44038D02*
X31193Y-41879D01*
X33638Y-44038D02*
X33351Y-44038D01*
X33974Y-44374D02*
X33638Y-44038D01*
X21929Y-42145D02*
X21929Y-43818D01*
X21181Y-40787D02*
X21220Y-40748D01*
X19862Y-40787D02*
X21181Y-40787D01*
X21909Y-45688D02*
X21909Y-48405D01*
X21496Y-49921D02*
X21815Y-49601D01*
X19862Y-49921D02*
X21496Y-49921D01*
X21909Y-49507D02*
X21909Y-49251D01*
X21815Y-49601D02*
X21909Y-49507D01*
X29948Y-49601D02*
X30527Y-50181D01*
X21815Y-49601D02*
X29948Y-49601D01*
G54D17*
X25590Y-43996D02*
X25610Y-43996D01*
X25610Y-43996D02*
X27086Y-42519D01*
X26771Y-46830D02*
X26771Y-46633D01*
X28405Y-48464D02*
X26771Y-46830D01*
X24704Y-46633D02*
X24704Y-44881D01*
X24704Y-44881D02*
X25590Y-43996D01*
X23425Y-48858D02*
X23425Y-47893D01*
X21259Y-49114D02*
X21515Y-48858D01*
X21515Y-48858D02*
X23425Y-48858D01*
X21259Y-49114D02*
X21259Y-49429D01*
X24685Y-46633D02*
X24704Y-46633D01*
X24704Y-46633D02*
X26771Y-46633D01*
X23425Y-47893D02*
X24685Y-46633D01*
X20846Y-49606D02*
X21082Y-49606D01*
G54D18*
X19862Y-49606D02*
X20846Y-49606D01*
G54D17*
X21082Y-49606D02*
X21259Y-49429D01*
X33326Y-43543D02*
X33326Y-42854D01*
X33307Y-43562D02*
X33326Y-43543D01*
X29192Y-45551D02*
X29192Y-45570D01*
X30767Y-44370D02*
X30767Y-45610D01*
X30767Y-44370D02*
X31200Y-43937D01*
X35748Y-47303D02*
X34094Y-47303D01*
X35787Y-47342D02*
X35748Y-47303D01*
G54D18*
X20826Y-48031D02*
X20846Y-48051D01*
X19862Y-48031D02*
X20826Y-48031D01*
X20767Y-45826D02*
X20826Y-45767D01*
X19862Y-45826D02*
X20767Y-45826D01*
X21795Y-41102D02*
X22527Y-40370D01*
X19862Y-41102D02*
X21795Y-41102D01*
X20477Y-47082D02*
X20835Y-47082D01*
X20472Y-47086D02*
X20477Y-47082D01*
X19862Y-47086D02*
X20472Y-47086D01*
X20483Y-44577D02*
X21510Y-44577D01*
X20472Y-44566D02*
X20483Y-44577D01*
X19862Y-44566D02*
X20472Y-44566D01*
G54D16*
X21043Y-47401D02*
X21299Y-47145D01*
X19862Y-47401D02*
X21043Y-47401D01*
X21043Y-47716D02*
X21259Y-47933D01*
X19862Y-47716D02*
X21043Y-47716D01*
G54D10*
G36*
X29173Y-43674D02*
X26419Y-40919D01*
X26636Y-40920D01*
X26838Y-40836D01*
X26993Y-40682D01*
X27027Y-40600D01*
X27061Y-40681D01*
X27215Y-40836D01*
X27417Y-40919D01*
X27636Y-40920D01*
X27838Y-40836D01*
X27993Y-40682D01*
X28027Y-40600D01*
X28061Y-40681D01*
X28215Y-40836D01*
X28417Y-40919D01*
X28636Y-40920D01*
X28838Y-40836D01*
X28993Y-40682D01*
X29027Y-40600D01*
X29061Y-40681D01*
X29173Y-40794D01*
X29173Y-43674D01*
X29173Y-43674D01*
G37*
G54D16*
X29173Y-43674D02*
X26419Y-40919D01*
X26636Y-40920D01*
X26838Y-40836D01*
X26993Y-40682D01*
X27027Y-40600D01*
X27061Y-40681D01*
X27215Y-40836D01*
X27417Y-40919D01*
X27636Y-40920D01*
X27838Y-40836D01*
X27993Y-40682D01*
X28027Y-40600D01*
X28061Y-40681D01*
X28215Y-40836D01*
X28417Y-40919D01*
X28636Y-40920D01*
X28838Y-40836D01*
X28993Y-40682D01*
X29027Y-40600D01*
X29061Y-40681D01*
X29173Y-40794D01*
X29173Y-43674D01*
G54D10*
G36*
X30227Y-42490D02*
X29773Y-42944D01*
X29773Y-40863D01*
X29838Y-40836D01*
X29993Y-40682D01*
X30027Y-40600D01*
X30061Y-40681D01*
X30215Y-40836D01*
X30227Y-40841D01*
X30227Y-42490D01*
X30227Y-42490D01*
G37*
G54D16*
X30227Y-42490D02*
X29773Y-42944D01*
X29773Y-40863D01*
X29838Y-40836D01*
X29993Y-40682D01*
X30027Y-40600D01*
X30061Y-40681D01*
X30215Y-40836D01*
X30227Y-40841D01*
X30227Y-42490D01*
G54D10*
G36*
X33553Y-40920D02*
X33082Y-41390D01*
X32942Y-41390D01*
X32807Y-41446D01*
X32703Y-41550D01*
X32647Y-41685D01*
X32647Y-41831D01*
X32683Y-41918D01*
X32138Y-41918D01*
X32126Y-41906D01*
X31991Y-41850D01*
X31844Y-41850D01*
X31709Y-41906D01*
X31676Y-41938D01*
X31561Y-41823D01*
X31561Y-41806D01*
X31505Y-41671D01*
X31402Y-41567D01*
X31266Y-41511D01*
X31222Y-41511D01*
X31222Y-41099D01*
X31406Y-40915D01*
X31417Y-40919D01*
X31636Y-40920D01*
X31838Y-40836D01*
X31993Y-40682D01*
X32027Y-40600D01*
X32061Y-40681D01*
X32215Y-40836D01*
X32417Y-40919D01*
X32636Y-40920D01*
X32838Y-40836D01*
X32993Y-40682D01*
X33027Y-40600D01*
X33061Y-40681D01*
X33215Y-40836D01*
X33417Y-40919D01*
X33553Y-40920D01*
X33553Y-40920D01*
G37*
G54D16*
X33553Y-40920D02*
X33082Y-41390D01*
X32942Y-41390D01*
X32807Y-41446D01*
X32703Y-41550D01*
X32647Y-41685D01*
X32647Y-41831D01*
X32683Y-41918D01*
X32138Y-41918D01*
X32126Y-41906D01*
X31991Y-41850D01*
X31844Y-41850D01*
X31709Y-41906D01*
X31676Y-41938D01*
X31561Y-41823D01*
X31561Y-41806D01*
X31505Y-41671D01*
X31402Y-41567D01*
X31266Y-41511D01*
X31222Y-41511D01*
X31222Y-41099D01*
X31406Y-40915D01*
X31417Y-40919D01*
X31636Y-40920D01*
X31838Y-40836D01*
X31993Y-40682D01*
X32027Y-40600D01*
X32061Y-40681D01*
X32215Y-40836D01*
X32417Y-40919D01*
X32636Y-40920D01*
X32838Y-40836D01*
X32993Y-40682D01*
X33027Y-40600D01*
X33061Y-40681D01*
X33215Y-40836D01*
X33417Y-40919D01*
X33553Y-40920D01*
G54D10*
G36*
X34182Y-45012D02*
X34105Y-45063D01*
X32924Y-46245D01*
X32907Y-46245D01*
X32771Y-46301D01*
X32734Y-46338D01*
X32349Y-45954D01*
X32252Y-45889D01*
X32137Y-45866D01*
X31501Y-45866D01*
X31489Y-45854D01*
X31354Y-45798D01*
X31207Y-45798D01*
X31072Y-45854D01*
X30968Y-45957D01*
X30912Y-46092D01*
X30912Y-46239D01*
X30943Y-46315D01*
X30498Y-46315D01*
X30486Y-46303D01*
X30374Y-46257D01*
X30385Y-46230D01*
X30385Y-46083D01*
X30329Y-45948D01*
X30226Y-45844D01*
X30090Y-45788D01*
X30070Y-45788D01*
X30070Y-44807D01*
X30070Y-44807D01*
X30118Y-44735D01*
X30141Y-44621D01*
X30141Y-44621D01*
X30141Y-44416D01*
X30118Y-44301D01*
X30053Y-44204D01*
X30003Y-44154D01*
X30043Y-44114D01*
X30100Y-43979D01*
X30100Y-43962D01*
X31134Y-42927D01*
X31134Y-42927D01*
X31199Y-42830D01*
X31222Y-42715D01*
X31222Y-42715D01*
X31222Y-42332D01*
X32986Y-44096D01*
X32938Y-44211D01*
X32938Y-44358D01*
X32994Y-44493D01*
X33097Y-44597D01*
X33232Y-44653D01*
X33250Y-44653D01*
X33521Y-44924D01*
X33521Y-44924D01*
X33618Y-44989D01*
X33733Y-45012D01*
X33733Y-45012D01*
X34182Y-45012D01*
X34182Y-45012D01*
G37*
G54D16*
X34182Y-45012D02*
X34105Y-45063D01*
X32924Y-46245D01*
X32907Y-46245D01*
X32771Y-46301D01*
X32734Y-46338D01*
X32349Y-45954D01*
X32252Y-45889D01*
X32137Y-45866D01*
X31501Y-45866D01*
X31489Y-45854D01*
X31354Y-45798D01*
X31207Y-45798D01*
X31072Y-45854D01*
X30968Y-45957D01*
X30912Y-46092D01*
X30912Y-46239D01*
X30943Y-46315D01*
X30498Y-46315D01*
X30486Y-46303D01*
X30374Y-46257D01*
X30385Y-46230D01*
X30385Y-46083D01*
X30329Y-45948D01*
X30226Y-45844D01*
X30090Y-45788D01*
X30070Y-45788D01*
X30070Y-44807D01*
X30070Y-44807D01*
X30118Y-44735D01*
X30141Y-44621D01*
X30141Y-44621D01*
X30141Y-44416D01*
X30118Y-44301D01*
X30053Y-44204D01*
X30003Y-44154D01*
X30043Y-44114D01*
X30100Y-43979D01*
X30100Y-43962D01*
X31134Y-42927D01*
X31134Y-42927D01*
X31199Y-42830D01*
X31222Y-42715D01*
X31222Y-42715D01*
X31222Y-42332D01*
X32986Y-44096D01*
X32938Y-44211D01*
X32938Y-44358D01*
X32994Y-44493D01*
X33097Y-44597D01*
X33232Y-44653D01*
X33250Y-44653D01*
X33521Y-44924D01*
X33521Y-44924D01*
X33618Y-44989D01*
X33733Y-45012D01*
X33733Y-45012D01*
X34182Y-45012D01*
G54D10*
G36*
X36836Y-39820D02*
X36778Y-39820D01*
X36178Y-39820D01*
X36086Y-39858D01*
X36015Y-39928D01*
X35977Y-40020D01*
X35977Y-40042D01*
X35839Y-39904D01*
X35637Y-39820D01*
X35418Y-39819D01*
X35216Y-39903D01*
X35061Y-40058D01*
X35027Y-40139D01*
X34994Y-40058D01*
X34839Y-39904D01*
X34637Y-39820D01*
X34418Y-39819D01*
X34216Y-39903D01*
X34061Y-40058D01*
X34027Y-40139D01*
X33994Y-40058D01*
X33839Y-39904D01*
X33637Y-39820D01*
X33418Y-39819D01*
X33216Y-39903D01*
X33061Y-40058D01*
X33027Y-40139D01*
X32994Y-40058D01*
X32839Y-39904D01*
X32637Y-39820D01*
X32418Y-39819D01*
X32216Y-39903D01*
X32061Y-40058D01*
X32027Y-40139D01*
X31994Y-40058D01*
X31839Y-39904D01*
X31637Y-39820D01*
X31418Y-39819D01*
X31216Y-39903D01*
X31061Y-40058D01*
X31027Y-40139D01*
X30994Y-40058D01*
X30839Y-39904D01*
X30637Y-39820D01*
X30418Y-39819D01*
X30216Y-39903D01*
X30061Y-40058D01*
X30027Y-40139D01*
X29994Y-40058D01*
X29839Y-39904D01*
X29637Y-39820D01*
X29418Y-39819D01*
X29216Y-39903D01*
X29061Y-40058D01*
X29027Y-40139D01*
X28994Y-40058D01*
X28839Y-39904D01*
X28637Y-39820D01*
X28418Y-39819D01*
X28216Y-39903D01*
X28061Y-40058D01*
X28027Y-40139D01*
X27994Y-40058D01*
X27839Y-39904D01*
X27637Y-39820D01*
X27418Y-39819D01*
X27216Y-39903D01*
X27061Y-40058D01*
X27027Y-40139D01*
X26994Y-40058D01*
X26839Y-39904D01*
X26637Y-39820D01*
X26418Y-39819D01*
X26216Y-39903D01*
X26061Y-40058D01*
X26027Y-40139D01*
X25994Y-40058D01*
X25839Y-39904D01*
X25637Y-39820D01*
X25418Y-39819D01*
X25216Y-39903D01*
X25061Y-40058D01*
X25027Y-40139D01*
X24994Y-40058D01*
X24839Y-39904D01*
X24637Y-39820D01*
X24418Y-39819D01*
X24216Y-39903D01*
X24061Y-40058D01*
X24027Y-40139D01*
X23994Y-40058D01*
X23839Y-39904D01*
X23637Y-39820D01*
X23418Y-39819D01*
X23216Y-39903D01*
X23061Y-40058D01*
X23030Y-40133D01*
X23008Y-40082D01*
X22913Y-40054D01*
X22842Y-40125D01*
X22842Y-39984D01*
X22815Y-39888D01*
X22609Y-39815D01*
X22390Y-39826D01*
X22239Y-39888D01*
X22212Y-39984D01*
X22527Y-40299D01*
X22842Y-39984D01*
X22842Y-40125D01*
X22598Y-40370D01*
X22913Y-40685D01*
X23008Y-40657D01*
X23028Y-40602D01*
X23061Y-40681D01*
X23215Y-40836D01*
X23417Y-40919D01*
X23636Y-40920D01*
X23838Y-40836D01*
X23993Y-40682D01*
X24027Y-40600D01*
X24061Y-40681D01*
X24215Y-40836D01*
X24417Y-40919D01*
X24636Y-40920D01*
X24838Y-40836D01*
X24993Y-40682D01*
X25027Y-40600D01*
X25061Y-40681D01*
X25215Y-40836D01*
X25417Y-40919D01*
X25571Y-40920D01*
X29225Y-44574D01*
X29225Y-44591D01*
X29281Y-44726D01*
X29385Y-44830D01*
X29470Y-44865D01*
X29470Y-46800D01*
X28978Y-46308D01*
X28978Y-46217D01*
X28989Y-46205D01*
X29046Y-46070D01*
X29046Y-45923D01*
X28990Y-45788D01*
X28886Y-45684D01*
X28751Y-45628D01*
X28605Y-45628D01*
X28469Y-45684D01*
X28366Y-45787D01*
X28309Y-45923D01*
X28309Y-46069D01*
X28365Y-46204D01*
X28378Y-46217D01*
X28378Y-46432D01*
X28400Y-46547D01*
X28465Y-46645D01*
X29905Y-48085D01*
X29412Y-48085D01*
X28860Y-47532D01*
X28860Y-47516D01*
X28804Y-47380D01*
X28701Y-47277D01*
X28565Y-47221D01*
X28419Y-47220D01*
X28284Y-47276D01*
X28180Y-47380D01*
X28124Y-47515D01*
X28124Y-47661D01*
X28180Y-47797D01*
X28283Y-47900D01*
X28418Y-47957D01*
X28436Y-47957D01*
X28929Y-48450D01*
X28844Y-48450D01*
X28709Y-48506D01*
X28605Y-48610D01*
X28549Y-48745D01*
X28549Y-48785D01*
X28450Y-48785D01*
X28315Y-48841D01*
X28211Y-48944D01*
X28155Y-49080D01*
X28155Y-49226D01*
X28186Y-49301D01*
X26612Y-49301D01*
X26630Y-49283D01*
X26673Y-49180D01*
X26737Y-49206D01*
X26883Y-49206D01*
X27019Y-49150D01*
X27122Y-49047D01*
X27179Y-48912D01*
X27179Y-48765D01*
X27123Y-48630D01*
X27019Y-48526D01*
X26884Y-48470D01*
X26867Y-48470D01*
X25919Y-47522D01*
X25919Y-47486D01*
X25863Y-47350D01*
X25759Y-47247D01*
X25624Y-47191D01*
X25478Y-47190D01*
X25342Y-47246D01*
X25239Y-47350D01*
X25183Y-47485D01*
X25183Y-47564D01*
X25084Y-47564D01*
X24949Y-47620D01*
X24845Y-47724D01*
X24789Y-47859D01*
X24789Y-48005D01*
X24845Y-48141D01*
X24948Y-48244D01*
X25083Y-48301D01*
X25101Y-48301D01*
X25952Y-49152D01*
X26006Y-49283D01*
X26025Y-49301D01*
X22842Y-49301D01*
X22842Y-40755D01*
X22527Y-40440D01*
X22456Y-40511D01*
X22456Y-40370D01*
X22141Y-40054D01*
X22046Y-40082D01*
X21972Y-40288D01*
X21983Y-40506D01*
X22046Y-40657D01*
X22141Y-40685D01*
X22456Y-40370D01*
X22456Y-40511D01*
X22212Y-40755D01*
X22239Y-40851D01*
X22445Y-40924D01*
X22664Y-40913D01*
X22815Y-40851D01*
X22842Y-40755D01*
X22842Y-49301D01*
X22297Y-49301D01*
X22297Y-43745D01*
X22241Y-43610D01*
X22229Y-43598D01*
X22229Y-42366D01*
X22241Y-42354D01*
X22297Y-42219D01*
X22297Y-42072D01*
X22241Y-41937D01*
X22137Y-41833D01*
X22002Y-41777D01*
X21856Y-41777D01*
X21720Y-41833D01*
X21617Y-41936D01*
X21561Y-42072D01*
X21560Y-42218D01*
X21616Y-42353D01*
X21629Y-42366D01*
X21629Y-43598D01*
X21617Y-43610D01*
X21561Y-43745D01*
X21560Y-43891D01*
X21616Y-44027D01*
X21720Y-44130D01*
X21855Y-44186D01*
X22002Y-44187D01*
X22137Y-44131D01*
X22241Y-44027D01*
X22297Y-43892D01*
X22297Y-43745D01*
X22297Y-49301D01*
X22277Y-49301D01*
X22277Y-49179D01*
X22221Y-49043D01*
X22118Y-48940D01*
X21982Y-48883D01*
X21836Y-48883D01*
X21701Y-48939D01*
X21597Y-49043D01*
X21541Y-49178D01*
X21541Y-49324D01*
X21578Y-49414D01*
X21371Y-49621D01*
X20660Y-49621D01*
X20660Y-48016D01*
X20896Y-48016D01*
X20947Y-48141D01*
X21051Y-48244D01*
X21186Y-48301D01*
X21332Y-48301D01*
X21468Y-48245D01*
X21571Y-48141D01*
X21609Y-48051D01*
X21609Y-48184D01*
X21597Y-48196D01*
X21541Y-48331D01*
X21541Y-48478D01*
X21597Y-48613D01*
X21700Y-48717D01*
X21835Y-48773D01*
X21982Y-48773D01*
X22117Y-48717D01*
X22221Y-48614D01*
X22277Y-48479D01*
X22277Y-48332D01*
X22221Y-48197D01*
X22209Y-48184D01*
X22209Y-45909D01*
X22221Y-45897D01*
X22277Y-45762D01*
X22277Y-45616D01*
X22221Y-45480D01*
X22118Y-45377D01*
X21982Y-45320D01*
X21836Y-45320D01*
X21701Y-45376D01*
X21597Y-45480D01*
X21541Y-45615D01*
X21541Y-45761D01*
X21597Y-45897D01*
X21609Y-45909D01*
X21609Y-46935D01*
X21508Y-46833D01*
X21372Y-46777D01*
X21226Y-46777D01*
X21090Y-46833D01*
X20987Y-46936D01*
X20931Y-47072D01*
X20931Y-47089D01*
X20919Y-47101D01*
X20660Y-47101D01*
X20660Y-44316D01*
X20755Y-44297D01*
X20853Y-44257D01*
X20853Y-44256D01*
X20853Y-44256D01*
X20948Y-44193D01*
X20948Y-44192D01*
X21023Y-44118D01*
X21087Y-44022D01*
X21127Y-43925D01*
X21127Y-43925D01*
X21127Y-43925D01*
X21150Y-43812D01*
X21150Y-43812D01*
X21150Y-43812D01*
X21150Y-43812D01*
X21150Y-43759D01*
X21150Y-43707D01*
X21150Y-43707D01*
X21150Y-43706D01*
X21150Y-43706D01*
X21127Y-43594D01*
X21127Y-43594D01*
X21127Y-43593D01*
X21087Y-43496D01*
X21023Y-43401D01*
X20948Y-43326D01*
X20948Y-43326D01*
X20853Y-43262D01*
X20853Y-43262D01*
X20853Y-43262D01*
X20755Y-43222D01*
X20660Y-43203D01*
X20660Y-41087D01*
X21077Y-41087D01*
X21146Y-41116D01*
X21293Y-41116D01*
X21428Y-41060D01*
X21532Y-40956D01*
X21588Y-40821D01*
X21588Y-40675D01*
X21532Y-40539D01*
X21429Y-40436D01*
X21294Y-40379D01*
X21147Y-40379D01*
X21012Y-40435D01*
X20960Y-40487D01*
X20660Y-40487D01*
X20660Y-40316D01*
X20702Y-40274D01*
X20771Y-40172D01*
X20811Y-40075D01*
X20811Y-40074D01*
X20811Y-40074D01*
X20835Y-39953D01*
X20835Y-39928D01*
X20840Y-39901D01*
X20840Y-39639D01*
X36836Y-39639D01*
X36836Y-39820D01*
X36836Y-39820D01*
G37*
G54D16*
X36836Y-39820D02*
X36778Y-39820D01*
X36178Y-39820D01*
X36086Y-39858D01*
X36015Y-39928D01*
X35977Y-40020D01*
X35977Y-40042D01*
X35839Y-39904D01*
X35637Y-39820D01*
X35418Y-39819D01*
X35216Y-39903D01*
X35061Y-40058D01*
X35027Y-40139D01*
X34994Y-40058D01*
X34839Y-39904D01*
X34637Y-39820D01*
X34418Y-39819D01*
X34216Y-39903D01*
X34061Y-40058D01*
X34027Y-40139D01*
X33994Y-40058D01*
X33839Y-39904D01*
X33637Y-39820D01*
X33418Y-39819D01*
X33216Y-39903D01*
X33061Y-40058D01*
X33027Y-40139D01*
X32994Y-40058D01*
X32839Y-39904D01*
X32637Y-39820D01*
X32418Y-39819D01*
X32216Y-39903D01*
X32061Y-40058D01*
X32027Y-40139D01*
X31994Y-40058D01*
X31839Y-39904D01*
X31637Y-39820D01*
X31418Y-39819D01*
X31216Y-39903D01*
X31061Y-40058D01*
X31027Y-40139D01*
X30994Y-40058D01*
X30839Y-39904D01*
X30637Y-39820D01*
X30418Y-39819D01*
X30216Y-39903D01*
X30061Y-40058D01*
X30027Y-40139D01*
X29994Y-40058D01*
X29839Y-39904D01*
X29637Y-39820D01*
X29418Y-39819D01*
X29216Y-39903D01*
X29061Y-40058D01*
X29027Y-40139D01*
X28994Y-40058D01*
X28839Y-39904D01*
X28637Y-39820D01*
X28418Y-39819D01*
X28216Y-39903D01*
X28061Y-40058D01*
X28027Y-40139D01*
X27994Y-40058D01*
X27839Y-39904D01*
X27637Y-39820D01*
X27418Y-39819D01*
X27216Y-39903D01*
X27061Y-40058D01*
X27027Y-40139D01*
X26994Y-40058D01*
X26839Y-39904D01*
X26637Y-39820D01*
X26418Y-39819D01*
X26216Y-39903D01*
X26061Y-40058D01*
X26027Y-40139D01*
X25994Y-40058D01*
X25839Y-39904D01*
X25637Y-39820D01*
X25418Y-39819D01*
X25216Y-39903D01*
X25061Y-40058D01*
X25027Y-40139D01*
X24994Y-40058D01*
X24839Y-39904D01*
X24637Y-39820D01*
X24418Y-39819D01*
X24216Y-39903D01*
X24061Y-40058D01*
X24027Y-40139D01*
X23994Y-40058D01*
X23839Y-39904D01*
X23637Y-39820D01*
X23418Y-39819D01*
X23216Y-39903D01*
X23061Y-40058D01*
X23030Y-40133D01*
X23008Y-40082D01*
X22913Y-40054D01*
X22842Y-40125D01*
X22842Y-39984D01*
X22815Y-39888D01*
X22609Y-39815D01*
X22390Y-39826D01*
X22239Y-39888D01*
X22212Y-39984D01*
X22527Y-40299D01*
X22842Y-39984D01*
X22842Y-40125D01*
X22598Y-40370D01*
X22913Y-40685D01*
X23008Y-40657D01*
X23028Y-40602D01*
X23061Y-40681D01*
X23215Y-40836D01*
X23417Y-40919D01*
X23636Y-40920D01*
X23838Y-40836D01*
X23993Y-40682D01*
X24027Y-40600D01*
X24061Y-40681D01*
X24215Y-40836D01*
X24417Y-40919D01*
X24636Y-40920D01*
X24838Y-40836D01*
X24993Y-40682D01*
X25027Y-40600D01*
X25061Y-40681D01*
X25215Y-40836D01*
X25417Y-40919D01*
X25571Y-40920D01*
X29225Y-44574D01*
X29225Y-44591D01*
X29281Y-44726D01*
X29385Y-44830D01*
X29470Y-44865D01*
X29470Y-46800D01*
X28978Y-46308D01*
X28978Y-46217D01*
X28989Y-46205D01*
X29046Y-46070D01*
X29046Y-45923D01*
X28990Y-45788D01*
X28886Y-45684D01*
X28751Y-45628D01*
X28605Y-45628D01*
X28469Y-45684D01*
X28366Y-45787D01*
X28309Y-45923D01*
X28309Y-46069D01*
X28365Y-46204D01*
X28378Y-46217D01*
X28378Y-46432D01*
X28400Y-46547D01*
X28465Y-46645D01*
X29905Y-48085D01*
X29412Y-48085D01*
X28860Y-47532D01*
X28860Y-47516D01*
X28804Y-47380D01*
X28701Y-47277D01*
X28565Y-47221D01*
X28419Y-47220D01*
X28284Y-47276D01*
X28180Y-47380D01*
X28124Y-47515D01*
X28124Y-47661D01*
X28180Y-47797D01*
X28283Y-47900D01*
X28418Y-47957D01*
X28436Y-47957D01*
X28929Y-48450D01*
X28844Y-48450D01*
X28709Y-48506D01*
X28605Y-48610D01*
X28549Y-48745D01*
X28549Y-48785D01*
X28450Y-48785D01*
X28315Y-48841D01*
X28211Y-48944D01*
X28155Y-49080D01*
X28155Y-49226D01*
X28186Y-49301D01*
X26612Y-49301D01*
X26630Y-49283D01*
X26673Y-49180D01*
X26737Y-49206D01*
X26883Y-49206D01*
X27019Y-49150D01*
X27122Y-49047D01*
X27179Y-48912D01*
X27179Y-48765D01*
X27123Y-48630D01*
X27019Y-48526D01*
X26884Y-48470D01*
X26867Y-48470D01*
X25919Y-47522D01*
X25919Y-47486D01*
X25863Y-47350D01*
X25759Y-47247D01*
X25624Y-47191D01*
X25478Y-47190D01*
X25342Y-47246D01*
X25239Y-47350D01*
X25183Y-47485D01*
X25183Y-47564D01*
X25084Y-47564D01*
X24949Y-47620D01*
X24845Y-47724D01*
X24789Y-47859D01*
X24789Y-48005D01*
X24845Y-48141D01*
X24948Y-48244D01*
X25083Y-48301D01*
X25101Y-48301D01*
X25952Y-49152D01*
X26006Y-49283D01*
X26025Y-49301D01*
X22842Y-49301D01*
X22842Y-40755D01*
X22527Y-40440D01*
X22456Y-40511D01*
X22456Y-40370D01*
X22141Y-40054D01*
X22046Y-40082D01*
X21972Y-40288D01*
X21983Y-40506D01*
X22046Y-40657D01*
X22141Y-40685D01*
X22456Y-40370D01*
X22456Y-40511D01*
X22212Y-40755D01*
X22239Y-40851D01*
X22445Y-40924D01*
X22664Y-40913D01*
X22815Y-40851D01*
X22842Y-40755D01*
X22842Y-49301D01*
X22297Y-49301D01*
X22297Y-43745D01*
X22241Y-43610D01*
X22229Y-43598D01*
X22229Y-42366D01*
X22241Y-42354D01*
X22297Y-42219D01*
X22297Y-42072D01*
X22241Y-41937D01*
X22137Y-41833D01*
X22002Y-41777D01*
X21856Y-41777D01*
X21720Y-41833D01*
X21617Y-41936D01*
X21561Y-42072D01*
X21560Y-42218D01*
X21616Y-42353D01*
X21629Y-42366D01*
X21629Y-43598D01*
X21617Y-43610D01*
X21561Y-43745D01*
X21560Y-43891D01*
X21616Y-44027D01*
X21720Y-44130D01*
X21855Y-44186D01*
X22002Y-44187D01*
X22137Y-44131D01*
X22241Y-44027D01*
X22297Y-43892D01*
X22297Y-43745D01*
X22297Y-49301D01*
X22277Y-49301D01*
X22277Y-49179D01*
X22221Y-49043D01*
X22118Y-48940D01*
X21982Y-48883D01*
X21836Y-48883D01*
X21701Y-48939D01*
X21597Y-49043D01*
X21541Y-49178D01*
X21541Y-49324D01*
X21578Y-49414D01*
X21371Y-49621D01*
X20660Y-49621D01*
X20660Y-48016D01*
X20896Y-48016D01*
X20947Y-48141D01*
X21051Y-48244D01*
X21186Y-48301D01*
X21332Y-48301D01*
X21468Y-48245D01*
X21571Y-48141D01*
X21609Y-48051D01*
X21609Y-48184D01*
X21597Y-48196D01*
X21541Y-48331D01*
X21541Y-48478D01*
X21597Y-48613D01*
X21700Y-48717D01*
X21835Y-48773D01*
X21982Y-48773D01*
X22117Y-48717D01*
X22221Y-48614D01*
X22277Y-48479D01*
X22277Y-48332D01*
X22221Y-48197D01*
X22209Y-48184D01*
X22209Y-45909D01*
X22221Y-45897D01*
X22277Y-45762D01*
X22277Y-45616D01*
X22221Y-45480D01*
X22118Y-45377D01*
X21982Y-45320D01*
X21836Y-45320D01*
X21701Y-45376D01*
X21597Y-45480D01*
X21541Y-45615D01*
X21541Y-45761D01*
X21597Y-45897D01*
X21609Y-45909D01*
X21609Y-46935D01*
X21508Y-46833D01*
X21372Y-46777D01*
X21226Y-46777D01*
X21090Y-46833D01*
X20987Y-46936D01*
X20931Y-47072D01*
X20931Y-47089D01*
X20919Y-47101D01*
X20660Y-47101D01*
X20660Y-44316D01*
X20755Y-44297D01*
X20853Y-44257D01*
X20853Y-44256D01*
X20853Y-44256D01*
X20948Y-44193D01*
X20948Y-44192D01*
X21023Y-44118D01*
X21087Y-44022D01*
X21127Y-43925D01*
X21127Y-43925D01*
X21127Y-43925D01*
X21150Y-43812D01*
X21150Y-43812D01*
X21150Y-43812D01*
X21150Y-43812D01*
X21150Y-43759D01*
X21150Y-43707D01*
X21150Y-43707D01*
X21150Y-43706D01*
X21150Y-43706D01*
X21127Y-43594D01*
X21127Y-43594D01*
X21127Y-43593D01*
X21087Y-43496D01*
X21023Y-43401D01*
X20948Y-43326D01*
X20948Y-43326D01*
X20853Y-43262D01*
X20853Y-43262D01*
X20853Y-43262D01*
X20755Y-43222D01*
X20660Y-43203D01*
X20660Y-41087D01*
X21077Y-41087D01*
X21146Y-41116D01*
X21293Y-41116D01*
X21428Y-41060D01*
X21532Y-40956D01*
X21588Y-40821D01*
X21588Y-40675D01*
X21532Y-40539D01*
X21429Y-40436D01*
X21294Y-40379D01*
X21147Y-40379D01*
X21012Y-40435D01*
X20960Y-40487D01*
X20660Y-40487D01*
X20660Y-40316D01*
X20702Y-40274D01*
X20771Y-40172D01*
X20811Y-40075D01*
X20811Y-40074D01*
X20811Y-40074D01*
X20835Y-39953D01*
X20835Y-39928D01*
X20840Y-39901D01*
X20840Y-39639D01*
X36836Y-39639D01*
X36836Y-39820D01*
G54D10*
G36*
X36836Y-50731D02*
X36836Y-50911D01*
X29842Y-50911D01*
X29842Y-50567D01*
X29527Y-50251D01*
X29212Y-50567D01*
X29239Y-50662D01*
X29445Y-50735D01*
X29664Y-50724D01*
X29815Y-50662D01*
X29842Y-50567D01*
X29842Y-50911D01*
X28842Y-50911D01*
X28842Y-50567D01*
X28527Y-50251D01*
X28212Y-50567D01*
X28239Y-50662D01*
X28445Y-50735D01*
X28664Y-50724D01*
X28815Y-50662D01*
X28842Y-50567D01*
X28842Y-50911D01*
X20840Y-50911D01*
X20840Y-50649D01*
X20835Y-50623D01*
X20835Y-50597D01*
X20811Y-50476D01*
X20811Y-50476D01*
X20811Y-50476D01*
X20771Y-50378D01*
X20702Y-50276D01*
X20660Y-50234D01*
X20660Y-50221D01*
X21496Y-50221D01*
X21496Y-50221D01*
X21610Y-50198D01*
X21610Y-50198D01*
X21708Y-50133D01*
X21939Y-49901D01*
X24048Y-49901D01*
X23977Y-50071D01*
X23977Y-50290D01*
X24061Y-50492D01*
X24215Y-50647D01*
X24417Y-50731D01*
X24636Y-50731D01*
X24838Y-50647D01*
X24993Y-50493D01*
X25027Y-50411D01*
X25061Y-50492D01*
X25215Y-50647D01*
X25417Y-50731D01*
X25636Y-50731D01*
X25838Y-50647D01*
X25993Y-50493D01*
X26027Y-50411D01*
X26061Y-50492D01*
X26215Y-50647D01*
X26417Y-50731D01*
X26636Y-50731D01*
X26838Y-50647D01*
X26993Y-50493D01*
X27027Y-50411D01*
X27061Y-50492D01*
X27215Y-50647D01*
X27417Y-50731D01*
X27636Y-50731D01*
X27838Y-50647D01*
X27993Y-50493D01*
X28024Y-50417D01*
X28046Y-50468D01*
X28141Y-50496D01*
X28456Y-50181D01*
X28451Y-50175D01*
X28521Y-50104D01*
X28527Y-50110D01*
X28533Y-50104D01*
X28603Y-50175D01*
X28598Y-50181D01*
X28913Y-50496D01*
X29008Y-50468D01*
X29026Y-50420D01*
X29046Y-50468D01*
X29141Y-50496D01*
X29456Y-50181D01*
X29451Y-50175D01*
X29521Y-50104D01*
X29527Y-50110D01*
X29533Y-50104D01*
X29603Y-50175D01*
X29598Y-50181D01*
X29913Y-50496D01*
X30008Y-50468D01*
X30028Y-50413D01*
X30061Y-50492D01*
X30215Y-50647D01*
X30417Y-50731D01*
X30636Y-50731D01*
X30838Y-50647D01*
X30993Y-50493D01*
X31027Y-50411D01*
X31061Y-50492D01*
X31215Y-50647D01*
X31417Y-50731D01*
X31636Y-50731D01*
X31838Y-50647D01*
X31993Y-50493D01*
X32027Y-50411D01*
X32061Y-50492D01*
X32215Y-50647D01*
X32417Y-50731D01*
X32636Y-50731D01*
X32838Y-50647D01*
X32993Y-50493D01*
X33027Y-50411D01*
X33061Y-50492D01*
X33215Y-50647D01*
X33417Y-50731D01*
X33636Y-50731D01*
X33838Y-50647D01*
X33888Y-50597D01*
X34113Y-50822D01*
X34113Y-50822D01*
X34211Y-50887D01*
X34325Y-50910D01*
X35098Y-50910D01*
X35098Y-50910D01*
X35212Y-50887D01*
X35212Y-50887D01*
X35310Y-50822D01*
X35406Y-50726D01*
X35417Y-50731D01*
X35636Y-50731D01*
X35838Y-50647D01*
X35977Y-50509D01*
X35977Y-50530D01*
X36015Y-50622D01*
X36085Y-50692D01*
X36177Y-50731D01*
X36277Y-50731D01*
X36836Y-50731D01*
X36836Y-50731D01*
G37*
G54D16*
X36836Y-50731D02*
X36836Y-50911D01*
X29842Y-50911D01*
X29842Y-50567D01*
X29527Y-50251D01*
X29212Y-50567D01*
X29239Y-50662D01*
X29445Y-50735D01*
X29664Y-50724D01*
X29815Y-50662D01*
X29842Y-50567D01*
X29842Y-50911D01*
X28842Y-50911D01*
X28842Y-50567D01*
X28527Y-50251D01*
X28212Y-50567D01*
X28239Y-50662D01*
X28445Y-50735D01*
X28664Y-50724D01*
X28815Y-50662D01*
X28842Y-50567D01*
X28842Y-50911D01*
X20840Y-50911D01*
X20840Y-50649D01*
X20835Y-50623D01*
X20835Y-50597D01*
X20811Y-50476D01*
X20811Y-50476D01*
X20811Y-50476D01*
X20771Y-50378D01*
X20702Y-50276D01*
X20660Y-50234D01*
X20660Y-50221D01*
X21496Y-50221D01*
X21496Y-50221D01*
X21610Y-50198D01*
X21610Y-50198D01*
X21708Y-50133D01*
X21939Y-49901D01*
X24048Y-49901D01*
X23977Y-50071D01*
X23977Y-50290D01*
X24061Y-50492D01*
X24215Y-50647D01*
X24417Y-50731D01*
X24636Y-50731D01*
X24838Y-50647D01*
X24993Y-50493D01*
X25027Y-50411D01*
X25061Y-50492D01*
X25215Y-50647D01*
X25417Y-50731D01*
X25636Y-50731D01*
X25838Y-50647D01*
X25993Y-50493D01*
X26027Y-50411D01*
X26061Y-50492D01*
X26215Y-50647D01*
X26417Y-50731D01*
X26636Y-50731D01*
X26838Y-50647D01*
X26993Y-50493D01*
X27027Y-50411D01*
X27061Y-50492D01*
X27215Y-50647D01*
X27417Y-50731D01*
X27636Y-50731D01*
X27838Y-50647D01*
X27993Y-50493D01*
X28024Y-50417D01*
X28046Y-50468D01*
X28141Y-50496D01*
X28456Y-50181D01*
X28451Y-50175D01*
X28521Y-50104D01*
X28527Y-50110D01*
X28533Y-50104D01*
X28603Y-50175D01*
X28598Y-50181D01*
X28913Y-50496D01*
X29008Y-50468D01*
X29026Y-50420D01*
X29046Y-50468D01*
X29141Y-50496D01*
X29456Y-50181D01*
X29451Y-50175D01*
X29521Y-50104D01*
X29527Y-50110D01*
X29533Y-50104D01*
X29603Y-50175D01*
X29598Y-50181D01*
X29913Y-50496D01*
X30008Y-50468D01*
X30028Y-50413D01*
X30061Y-50492D01*
X30215Y-50647D01*
X30417Y-50731D01*
X30636Y-50731D01*
X30838Y-50647D01*
X30993Y-50493D01*
X31027Y-50411D01*
X31061Y-50492D01*
X31215Y-50647D01*
X31417Y-50731D01*
X31636Y-50731D01*
X31838Y-50647D01*
X31993Y-50493D01*
X32027Y-50411D01*
X32061Y-50492D01*
X32215Y-50647D01*
X32417Y-50731D01*
X32636Y-50731D01*
X32838Y-50647D01*
X32993Y-50493D01*
X33027Y-50411D01*
X33061Y-50492D01*
X33215Y-50647D01*
X33417Y-50731D01*
X33636Y-50731D01*
X33838Y-50647D01*
X33888Y-50597D01*
X34113Y-50822D01*
X34113Y-50822D01*
X34211Y-50887D01*
X34325Y-50910D01*
X35098Y-50910D01*
X35098Y-50910D01*
X35212Y-50887D01*
X35212Y-50887D01*
X35310Y-50822D01*
X35406Y-50726D01*
X35417Y-50731D01*
X35636Y-50731D01*
X35838Y-50647D01*
X35977Y-50509D01*
X35977Y-50530D01*
X36015Y-50622D01*
X36085Y-50692D01*
X36177Y-50731D01*
X36277Y-50731D01*
X36836Y-50731D01*
G54D10*
G36*
X39100Y-48647D02*
X38924Y-48647D01*
X38924Y-46357D01*
X38913Y-46138D01*
X38851Y-45987D01*
X38755Y-45960D01*
X38440Y-46275D01*
X38755Y-46590D01*
X38851Y-46563D01*
X38924Y-46357D01*
X38924Y-48647D01*
X38685Y-48647D01*
X38685Y-46661D01*
X38370Y-46346D01*
X38054Y-46661D01*
X38082Y-46756D01*
X38288Y-46830D01*
X38506Y-46819D01*
X38657Y-46756D01*
X38685Y-46661D01*
X38685Y-48647D01*
X38340Y-48647D01*
X38278Y-48710D01*
X38278Y-49989D01*
X38286Y-49989D01*
X38286Y-50089D01*
X38278Y-50089D01*
X38278Y-50097D01*
X38178Y-50097D01*
X38178Y-50089D01*
X38170Y-50089D01*
X38170Y-49989D01*
X38178Y-49989D01*
X38178Y-48710D01*
X38115Y-48647D01*
X37037Y-48647D01*
X36945Y-48685D01*
X36874Y-48755D01*
X36836Y-48847D01*
X36836Y-48947D01*
X36836Y-49631D01*
X36778Y-49631D01*
X36178Y-49631D01*
X36086Y-49669D01*
X36075Y-49679D01*
X33254Y-46859D01*
X33292Y-46822D01*
X33348Y-46686D01*
X33348Y-46669D01*
X34442Y-45575D01*
X36898Y-45575D01*
X36903Y-45586D01*
X37058Y-45741D01*
X37139Y-45775D01*
X37058Y-45809D01*
X36904Y-45963D01*
X36820Y-46165D01*
X36819Y-46384D01*
X36903Y-46586D01*
X37058Y-46741D01*
X37260Y-46825D01*
X37479Y-46825D01*
X37681Y-46742D01*
X37836Y-46587D01*
X37867Y-46511D01*
X37888Y-46563D01*
X37984Y-46590D01*
X38299Y-46275D01*
X38293Y-46270D01*
X38364Y-46199D01*
X38370Y-46204D01*
X38685Y-45889D01*
X38657Y-45794D01*
X38602Y-45774D01*
X38681Y-45742D01*
X38836Y-45587D01*
X38919Y-45385D01*
X38920Y-45166D01*
X38836Y-44964D01*
X38682Y-44809D01*
X38600Y-44775D01*
X38681Y-44742D01*
X38836Y-44587D01*
X38919Y-44385D01*
X38920Y-44166D01*
X38836Y-43964D01*
X38682Y-43809D01*
X38479Y-43725D01*
X38261Y-43725D01*
X38058Y-43809D01*
X37920Y-43947D01*
X37920Y-43926D01*
X37882Y-43834D01*
X37811Y-43763D01*
X37720Y-43725D01*
X37620Y-43725D01*
X37020Y-43725D01*
X36928Y-43763D01*
X36858Y-43833D01*
X36820Y-43925D01*
X36820Y-44025D01*
X36820Y-44412D01*
X34342Y-44412D01*
X34342Y-44301D01*
X34286Y-44165D01*
X34183Y-44062D01*
X34048Y-44006D01*
X34030Y-44006D01*
X33850Y-43826D01*
X33753Y-43760D01*
X33638Y-43738D01*
X33476Y-43738D01*
X32256Y-42518D01*
X34303Y-42518D01*
X34303Y-42518D01*
X34418Y-42495D01*
X34418Y-42495D01*
X34515Y-42430D01*
X36075Y-40871D01*
X36085Y-40881D01*
X36177Y-40920D01*
X36277Y-40920D01*
X36836Y-40920D01*
X36836Y-41604D01*
X36836Y-41703D01*
X36874Y-41795D01*
X36945Y-41865D01*
X37037Y-41903D01*
X38115Y-41903D01*
X38178Y-41841D01*
X38178Y-40561D01*
X38170Y-40561D01*
X38170Y-40461D01*
X38178Y-40461D01*
X38178Y-40453D01*
X38278Y-40453D01*
X38278Y-40461D01*
X38286Y-40461D01*
X38286Y-40561D01*
X38278Y-40561D01*
X38278Y-41841D01*
X38340Y-41903D01*
X39100Y-41903D01*
X39100Y-48647D01*
X39100Y-48647D01*
G37*
G54D16*
X39100Y-48647D02*
X38924Y-48647D01*
X38924Y-46357D01*
X38913Y-46138D01*
X38851Y-45987D01*
X38755Y-45960D01*
X38440Y-46275D01*
X38755Y-46590D01*
X38851Y-46563D01*
X38924Y-46357D01*
X38924Y-48647D01*
X38685Y-48647D01*
X38685Y-46661D01*
X38370Y-46346D01*
X38054Y-46661D01*
X38082Y-46756D01*
X38288Y-46830D01*
X38506Y-46819D01*
X38657Y-46756D01*
X38685Y-46661D01*
X38685Y-48647D01*
X38340Y-48647D01*
X38278Y-48710D01*
X38278Y-49989D01*
X38286Y-49989D01*
X38286Y-50089D01*
X38278Y-50089D01*
X38278Y-50097D01*
X38178Y-50097D01*
X38178Y-50089D01*
X38170Y-50089D01*
X38170Y-49989D01*
X38178Y-49989D01*
X38178Y-48710D01*
X38115Y-48647D01*
X37037Y-48647D01*
X36945Y-48685D01*
X36874Y-48755D01*
X36836Y-48847D01*
X36836Y-48947D01*
X36836Y-49631D01*
X36778Y-49631D01*
X36178Y-49631D01*
X36086Y-49669D01*
X36075Y-49679D01*
X33254Y-46859D01*
X33292Y-46822D01*
X33348Y-46686D01*
X33348Y-46669D01*
X34442Y-45575D01*
X36898Y-45575D01*
X36903Y-45586D01*
X37058Y-45741D01*
X37139Y-45775D01*
X37058Y-45809D01*
X36904Y-45963D01*
X36820Y-46165D01*
X36819Y-46384D01*
X36903Y-46586D01*
X37058Y-46741D01*
X37260Y-46825D01*
X37479Y-46825D01*
X37681Y-46742D01*
X37836Y-46587D01*
X37867Y-46511D01*
X37888Y-46563D01*
X37984Y-46590D01*
X38299Y-46275D01*
X38293Y-46270D01*
X38364Y-46199D01*
X38370Y-46204D01*
X38685Y-45889D01*
X38657Y-45794D01*
X38602Y-45774D01*
X38681Y-45742D01*
X38836Y-45587D01*
X38919Y-45385D01*
X38920Y-45166D01*
X38836Y-44964D01*
X38682Y-44809D01*
X38600Y-44775D01*
X38681Y-44742D01*
X38836Y-44587D01*
X38919Y-44385D01*
X38920Y-44166D01*
X38836Y-43964D01*
X38682Y-43809D01*
X38479Y-43725D01*
X38261Y-43725D01*
X38058Y-43809D01*
X37920Y-43947D01*
X37920Y-43926D01*
X37882Y-43834D01*
X37811Y-43763D01*
X37720Y-43725D01*
X37620Y-43725D01*
X37020Y-43725D01*
X36928Y-43763D01*
X36858Y-43833D01*
X36820Y-43925D01*
X36820Y-44025D01*
X36820Y-44412D01*
X34342Y-44412D01*
X34342Y-44301D01*
X34286Y-44165D01*
X34183Y-44062D01*
X34048Y-44006D01*
X34030Y-44006D01*
X33850Y-43826D01*
X33753Y-43760D01*
X33638Y-43738D01*
X33476Y-43738D01*
X32256Y-42518D01*
X34303Y-42518D01*
X34303Y-42518D01*
X34418Y-42495D01*
X34418Y-42495D01*
X34515Y-42430D01*
X36075Y-40871D01*
X36085Y-40881D01*
X36177Y-40920D01*
X36277Y-40920D01*
X36836Y-40920D01*
X36836Y-41604D01*
X36836Y-41703D01*
X36874Y-41795D01*
X36945Y-41865D01*
X37037Y-41903D01*
X38115Y-41903D01*
X38178Y-41841D01*
X38178Y-40561D01*
X38170Y-40561D01*
X38170Y-40461D01*
X38178Y-40461D01*
X38178Y-40453D01*
X38278Y-40453D01*
X38278Y-40461D01*
X38286Y-40461D01*
X38286Y-40561D01*
X38278Y-40561D01*
X38278Y-41841D01*
X38340Y-41903D01*
X39100Y-41903D01*
X39100Y-48647D01*
M02*
