M48
INCH,TZ
T1C0.012
T2C0.040
T3C0.102
%
G90
G05
T1
X021220Y-040748
X021260Y-047933
X021260Y-049429
X021299Y-047146
X021909Y-045689
X021909Y-048406
X021909Y-049252
X021929Y-042146
X021929Y-043819
X022756Y-050354
X022835Y-042795
X023425Y-048858
X025157Y-047933
X025551Y-047559
X025591Y-043996
X026319Y-049075
X026772Y-046634
X026811Y-048839
X027087Y-041358
X027087Y-042520
X028406Y-048465
X028492Y-047589
X028524Y-049154
X028678Y-045997
X028917Y-048819
X029193Y-045571
X029594Y-044519
X029732Y-043906
X029738Y-043404
X030017Y-046157
X030197Y-042126
X030278Y-046616
X030286Y-047032
X030348Y-047708
X030768Y-045610
X030827Y-049173
X031193Y-041879
X031201Y-043937
X031201Y-048858
X031281Y-046166
X031575Y-041516
X031918Y-042219
X032980Y-046613
X033016Y-041759
X033306Y-044285
X033307Y-043563
X033327Y-042854
X033975Y-044374
X034094Y-047303
X035787Y-047343
T2
X022528Y-040370
X023528Y-040370
X024528Y-040370
X024528Y-050181
X025528Y-040370
X025528Y-050181
X026528Y-040370
X026528Y-050181
X027528Y-040370
X027528Y-050181
X028528Y-040370
X028528Y-050181
X029528Y-040370
X029528Y-050181
X030528Y-040370
X030528Y-050181
X031528Y-040370
X031528Y-050181
X032528Y-040370
X032528Y-050181
X033528Y-040370
X033528Y-050181
X034528Y-040370
X034528Y-050181
X035528Y-040370
X035528Y-050181
X036528Y-040370
X036528Y-050181
X037370Y-044276
X037370Y-045276
X037370Y-046276
X038370Y-044276
X038370Y-045276
X038370Y-046276
T3
X038228Y-040512
X038228Y-050039
T0
M30
