G04 (created by PCBNEW (2013-may-18)-stable) date Mon 04 May 2015 02:01:06 PM CST*
%MOIN*%
G04 Gerber Fmt 3.4, Leading zero omitted, Abs format*
%FSLAX34Y34*%
G01*
G70*
G90*
G04 APERTURE LIST*
%ADD10C,0.00590551*%
%ADD11C,0.00984252*%
%ADD12C,0.011811*%
%ADD13C,0.012*%
%ADD14C,0.008*%
%ADD15C,0.006*%
%ADD16C,0.0026*%
%ADD17C,0.004*%
%ADD18C,0.005*%
%ADD19C,0.0047*%
%ADD20C,0.0001*%
%ADD21C,0.0045*%
%ADD22C,0.00492126*%
G04 APERTURE END LIST*
G54D10*
X23158Y-47619D02*
X23121Y-47600D01*
X23065Y-47600D01*
X23008Y-47619D01*
X22971Y-47656D01*
X22952Y-47694D01*
X22934Y-47769D01*
X22934Y-47825D01*
X22952Y-47900D01*
X22971Y-47937D01*
X23008Y-47975D01*
X23065Y-47994D01*
X23102Y-47994D01*
X23158Y-47975D01*
X23177Y-47956D01*
X23177Y-47825D01*
X23102Y-47825D01*
X23496Y-47975D02*
X23458Y-47994D01*
X23383Y-47994D01*
X23346Y-47975D01*
X23327Y-47937D01*
X23327Y-47787D01*
X23346Y-47750D01*
X23383Y-47731D01*
X23458Y-47731D01*
X23496Y-47750D01*
X23515Y-47787D01*
X23515Y-47825D01*
X23327Y-47862D01*
X23683Y-47994D02*
X23683Y-47731D01*
X23683Y-47806D02*
X23702Y-47769D01*
X23721Y-47750D01*
X23758Y-47731D01*
X23796Y-47731D01*
X24096Y-47731D02*
X24096Y-48050D01*
X24077Y-48087D01*
X24058Y-48106D01*
X24021Y-48125D01*
X23965Y-48125D01*
X23927Y-48106D01*
X24096Y-47975D02*
X24058Y-47994D01*
X23983Y-47994D01*
X23946Y-47975D01*
X23927Y-47956D01*
X23908Y-47919D01*
X23908Y-47806D01*
X23927Y-47769D01*
X23946Y-47750D01*
X23983Y-47731D01*
X24058Y-47731D01*
X24096Y-47750D01*
X24433Y-47975D02*
X24396Y-47994D01*
X24321Y-47994D01*
X24283Y-47975D01*
X24265Y-47937D01*
X24265Y-47787D01*
X24283Y-47750D01*
X24321Y-47731D01*
X24396Y-47731D01*
X24433Y-47750D01*
X24452Y-47787D01*
X24452Y-47825D01*
X24265Y-47862D01*
X24677Y-47994D02*
X24640Y-47975D01*
X24621Y-47937D01*
X24621Y-47600D01*
X24790Y-47731D02*
X24883Y-47994D01*
X24977Y-47731D02*
X24883Y-47994D01*
X24846Y-48087D01*
X24827Y-48106D01*
X24790Y-48125D01*
X25427Y-47994D02*
X25427Y-47600D01*
X25614Y-47994D02*
X25614Y-47731D01*
X25614Y-47769D02*
X25633Y-47750D01*
X25671Y-47731D01*
X25727Y-47731D01*
X25764Y-47750D01*
X25783Y-47787D01*
X25783Y-47994D01*
X25783Y-47787D02*
X25802Y-47750D01*
X25839Y-47731D01*
X25896Y-47731D01*
X25933Y-47750D01*
X25952Y-47787D01*
X25952Y-47994D01*
X26139Y-47994D02*
X26139Y-47731D01*
X26139Y-47806D02*
X26158Y-47769D01*
X26177Y-47750D01*
X26214Y-47731D01*
X26252Y-47731D01*
X26533Y-47975D02*
X26496Y-47994D01*
X26421Y-47994D01*
X26383Y-47975D01*
X26364Y-47937D01*
X26364Y-47787D01*
X26383Y-47750D01*
X26421Y-47731D01*
X26496Y-47731D01*
X26533Y-47750D01*
X26552Y-47787D01*
X26552Y-47825D01*
X26364Y-47862D01*
X26721Y-47994D02*
X26721Y-47600D01*
X26889Y-47994D02*
X26889Y-47787D01*
X26871Y-47750D01*
X26833Y-47731D01*
X26777Y-47731D01*
X26739Y-47750D01*
X26721Y-47769D01*
X23543Y-48248D02*
X23562Y-48229D01*
X23599Y-48210D01*
X23693Y-48210D01*
X23730Y-48229D01*
X23749Y-48248D01*
X23768Y-48285D01*
X23768Y-48323D01*
X23749Y-48379D01*
X23524Y-48604D01*
X23768Y-48604D01*
X24011Y-48210D02*
X24049Y-48210D01*
X24086Y-48229D01*
X24105Y-48248D01*
X24124Y-48285D01*
X24143Y-48360D01*
X24143Y-48454D01*
X24124Y-48529D01*
X24105Y-48566D01*
X24086Y-48585D01*
X24049Y-48604D01*
X24011Y-48604D01*
X23974Y-48585D01*
X23955Y-48566D01*
X23937Y-48529D01*
X23918Y-48454D01*
X23918Y-48360D01*
X23937Y-48285D01*
X23955Y-48248D01*
X23974Y-48229D01*
X24011Y-48210D01*
X24518Y-48604D02*
X24293Y-48604D01*
X24405Y-48604D02*
X24405Y-48210D01*
X24368Y-48266D01*
X24330Y-48304D01*
X24293Y-48323D01*
X24874Y-48210D02*
X24686Y-48210D01*
X24668Y-48398D01*
X24686Y-48379D01*
X24724Y-48360D01*
X24818Y-48360D01*
X24855Y-48379D01*
X24874Y-48398D01*
X24893Y-48435D01*
X24893Y-48529D01*
X24874Y-48566D01*
X24855Y-48585D01*
X24818Y-48604D01*
X24724Y-48604D01*
X24686Y-48585D01*
X24668Y-48566D01*
X25361Y-48604D02*
X25361Y-48210D01*
X25493Y-48491D01*
X25624Y-48210D01*
X25624Y-48604D01*
X25980Y-48604D02*
X25980Y-48398D01*
X25961Y-48360D01*
X25924Y-48341D01*
X25849Y-48341D01*
X25811Y-48360D01*
X25980Y-48585D02*
X25943Y-48604D01*
X25849Y-48604D01*
X25811Y-48585D01*
X25793Y-48547D01*
X25793Y-48510D01*
X25811Y-48473D01*
X25849Y-48454D01*
X25943Y-48454D01*
X25980Y-48435D01*
X26130Y-48341D02*
X26224Y-48604D01*
X26317Y-48341D02*
X26224Y-48604D01*
X26186Y-48697D01*
X26167Y-48716D01*
X26130Y-48735D01*
X36497Y-39431D02*
X36534Y-39431D01*
X36571Y-39449D01*
X36590Y-39468D01*
X36609Y-39505D01*
X36628Y-39580D01*
X36628Y-39674D01*
X36609Y-39749D01*
X36590Y-39787D01*
X36571Y-39805D01*
X36534Y-39824D01*
X36497Y-39824D01*
X36459Y-39805D01*
X36440Y-39787D01*
X36422Y-39749D01*
X36403Y-39674D01*
X36403Y-39580D01*
X36422Y-39505D01*
X36440Y-39468D01*
X36459Y-39449D01*
X36497Y-39431D01*
X35643Y-39824D02*
X35419Y-39824D01*
X35531Y-39824D02*
X35531Y-39431D01*
X35494Y-39487D01*
X35456Y-39524D01*
X35419Y-39543D01*
X34434Y-39468D02*
X34453Y-39449D01*
X34491Y-39431D01*
X34584Y-39431D01*
X34622Y-39449D01*
X34640Y-39468D01*
X34659Y-39505D01*
X34659Y-39543D01*
X34640Y-39599D01*
X34416Y-39824D01*
X34659Y-39824D01*
X33412Y-39431D02*
X33655Y-39431D01*
X33524Y-39580D01*
X33580Y-39580D01*
X33618Y-39599D01*
X33637Y-39618D01*
X33655Y-39655D01*
X33655Y-39749D01*
X33637Y-39787D01*
X33618Y-39805D01*
X33580Y-39824D01*
X33468Y-39824D01*
X33430Y-39805D01*
X33412Y-39787D01*
X32555Y-39562D02*
X32555Y-39824D01*
X32461Y-39412D02*
X32367Y-39693D01*
X32611Y-39693D01*
X31609Y-39431D02*
X31422Y-39431D01*
X31403Y-39618D01*
X31422Y-39599D01*
X31459Y-39580D01*
X31553Y-39580D01*
X31590Y-39599D01*
X31609Y-39618D01*
X31628Y-39655D01*
X31628Y-39749D01*
X31609Y-39787D01*
X31590Y-39805D01*
X31553Y-39824D01*
X31459Y-39824D01*
X31422Y-39805D01*
X31403Y-39787D01*
X30586Y-39431D02*
X30511Y-39431D01*
X30474Y-39449D01*
X30455Y-39468D01*
X30418Y-39524D01*
X30399Y-39599D01*
X30399Y-39749D01*
X30418Y-39787D01*
X30436Y-39805D01*
X30474Y-39824D01*
X30549Y-39824D01*
X30586Y-39805D01*
X30605Y-39787D01*
X30624Y-39749D01*
X30624Y-39655D01*
X30605Y-39618D01*
X30586Y-39599D01*
X30549Y-39580D01*
X30474Y-39580D01*
X30436Y-39599D01*
X30418Y-39618D01*
X30399Y-39655D01*
X29376Y-39431D02*
X29639Y-39431D01*
X29470Y-39824D01*
X28466Y-39580D02*
X28428Y-39561D01*
X28410Y-39542D01*
X28391Y-39505D01*
X28391Y-39486D01*
X28410Y-39448D01*
X28428Y-39430D01*
X28466Y-39411D01*
X28541Y-39411D01*
X28578Y-39430D01*
X28597Y-39448D01*
X28616Y-39486D01*
X28616Y-39505D01*
X28597Y-39542D01*
X28578Y-39561D01*
X28541Y-39580D01*
X28466Y-39580D01*
X28428Y-39598D01*
X28410Y-39617D01*
X28391Y-39655D01*
X28391Y-39730D01*
X28410Y-39767D01*
X28428Y-39786D01*
X28466Y-39805D01*
X28541Y-39805D01*
X28578Y-39786D01*
X28597Y-39767D01*
X28616Y-39730D01*
X28616Y-39655D01*
X28597Y-39617D01*
X28578Y-39598D01*
X28541Y-39580D01*
X27464Y-39805D02*
X27539Y-39805D01*
X27576Y-39786D01*
X27595Y-39767D01*
X27633Y-39711D01*
X27651Y-39636D01*
X27651Y-39486D01*
X27633Y-39448D01*
X27614Y-39430D01*
X27576Y-39411D01*
X27501Y-39411D01*
X27464Y-39430D01*
X27445Y-39448D01*
X27426Y-39486D01*
X27426Y-39580D01*
X27445Y-39617D01*
X27464Y-39636D01*
X27501Y-39655D01*
X27576Y-39655D01*
X27614Y-39636D01*
X27633Y-39617D01*
X27651Y-39580D01*
X26460Y-39805D02*
X26235Y-39805D01*
X26347Y-39805D02*
X26347Y-39411D01*
X26310Y-39467D01*
X26272Y-39505D01*
X26235Y-39523D01*
X26704Y-39411D02*
X26741Y-39411D01*
X26779Y-39430D01*
X26797Y-39448D01*
X26816Y-39486D01*
X26835Y-39561D01*
X26835Y-39655D01*
X26816Y-39730D01*
X26797Y-39767D01*
X26779Y-39786D01*
X26741Y-39805D01*
X26704Y-39805D01*
X26666Y-39786D01*
X26647Y-39767D01*
X26629Y-39730D01*
X26610Y-39655D01*
X26610Y-39561D01*
X26629Y-39486D01*
X26647Y-39448D01*
X26666Y-39430D01*
X26704Y-39411D01*
X25476Y-39805D02*
X25251Y-39805D01*
X25363Y-39805D02*
X25363Y-39411D01*
X25326Y-39467D01*
X25288Y-39505D01*
X25251Y-39523D01*
X25851Y-39805D02*
X25626Y-39805D01*
X25738Y-39805D02*
X25738Y-39411D01*
X25701Y-39467D01*
X25663Y-39505D01*
X25626Y-39523D01*
X24452Y-39805D02*
X24227Y-39805D01*
X24340Y-39805D02*
X24340Y-39411D01*
X24302Y-39467D01*
X24265Y-39505D01*
X24227Y-39523D01*
X24602Y-39448D02*
X24621Y-39430D01*
X24658Y-39411D01*
X24752Y-39411D01*
X24790Y-39430D01*
X24808Y-39448D01*
X24827Y-39486D01*
X24827Y-39523D01*
X24808Y-39580D01*
X24583Y-39805D01*
X24827Y-39805D01*
X23468Y-39805D02*
X23243Y-39805D01*
X23355Y-39805D02*
X23355Y-39411D01*
X23318Y-39467D01*
X23280Y-39505D01*
X23243Y-39523D01*
X23599Y-39411D02*
X23843Y-39411D01*
X23712Y-39561D01*
X23768Y-39561D01*
X23805Y-39580D01*
X23824Y-39598D01*
X23843Y-39636D01*
X23843Y-39730D01*
X23824Y-39767D01*
X23805Y-39786D01*
X23768Y-39805D01*
X23655Y-39805D01*
X23618Y-39786D01*
X23599Y-39767D01*
X22239Y-39430D02*
X22201Y-39411D01*
X22145Y-39411D01*
X22089Y-39430D01*
X22051Y-39467D01*
X22033Y-39505D01*
X22014Y-39580D01*
X22014Y-39636D01*
X22033Y-39711D01*
X22051Y-39748D01*
X22089Y-39786D01*
X22145Y-39805D01*
X22183Y-39805D01*
X22239Y-39786D01*
X22258Y-39767D01*
X22258Y-39636D01*
X22183Y-39636D01*
X22426Y-39805D02*
X22426Y-39411D01*
X22651Y-39805D01*
X22651Y-39411D01*
X22839Y-39805D02*
X22839Y-39411D01*
X22933Y-39411D01*
X22989Y-39430D01*
X23026Y-39467D01*
X23045Y-39505D01*
X23064Y-39580D01*
X23064Y-39636D01*
X23045Y-39711D01*
X23026Y-39748D01*
X22989Y-39786D01*
X22933Y-39805D01*
X22839Y-39805D01*
X30128Y-49194D02*
X30259Y-49588D01*
X30390Y-49194D01*
X30522Y-49588D02*
X30522Y-49326D01*
X30522Y-49194D02*
X30503Y-49213D01*
X30522Y-49232D01*
X30540Y-49213D01*
X30522Y-49194D01*
X30522Y-49232D01*
X30709Y-49326D02*
X30709Y-49588D01*
X30709Y-49363D02*
X30728Y-49344D01*
X30765Y-49326D01*
X30822Y-49326D01*
X30859Y-49344D01*
X30878Y-49382D01*
X30878Y-49588D01*
X30039Y-49704D02*
X30039Y-50629D01*
X28011Y-49685D02*
X28011Y-50649D01*
X26043Y-49704D02*
X26043Y-50649D01*
X28952Y-49213D02*
X28914Y-49194D01*
X28858Y-49194D01*
X28802Y-49213D01*
X28764Y-49251D01*
X28745Y-49288D01*
X28727Y-49363D01*
X28727Y-49419D01*
X28745Y-49494D01*
X28764Y-49532D01*
X28802Y-49569D01*
X28858Y-49588D01*
X28895Y-49588D01*
X28952Y-49569D01*
X28970Y-49550D01*
X28970Y-49419D01*
X28895Y-49419D01*
X29139Y-49588D02*
X29139Y-49194D01*
X29364Y-49588D01*
X29364Y-49194D01*
X29551Y-49588D02*
X29551Y-49194D01*
X29645Y-49194D01*
X29701Y-49213D01*
X29739Y-49251D01*
X29758Y-49288D01*
X29776Y-49363D01*
X29776Y-49419D01*
X29758Y-49494D01*
X29739Y-49532D01*
X29701Y-49569D01*
X29645Y-49588D01*
X29551Y-49588D01*
X26738Y-49194D02*
X26870Y-49588D01*
X27001Y-49194D01*
X27357Y-49550D02*
X27338Y-49569D01*
X27282Y-49588D01*
X27245Y-49588D01*
X27188Y-49569D01*
X27151Y-49532D01*
X27132Y-49494D01*
X27113Y-49419D01*
X27113Y-49363D01*
X27132Y-49288D01*
X27151Y-49251D01*
X27188Y-49213D01*
X27245Y-49194D01*
X27282Y-49194D01*
X27338Y-49213D01*
X27357Y-49232D01*
X27751Y-49550D02*
X27732Y-49569D01*
X27676Y-49588D01*
X27638Y-49588D01*
X27582Y-49569D01*
X27544Y-49532D01*
X27526Y-49494D01*
X27507Y-49419D01*
X27507Y-49363D01*
X27526Y-49288D01*
X27544Y-49251D01*
X27582Y-49213D01*
X27638Y-49194D01*
X27676Y-49194D01*
X27732Y-49213D01*
X27751Y-49232D01*
X25034Y-49495D02*
X25222Y-49495D01*
X24997Y-49608D02*
X25128Y-49214D01*
X25259Y-49608D01*
X25390Y-49608D02*
X25390Y-49345D01*
X25390Y-49420D02*
X25409Y-49383D01*
X25428Y-49364D01*
X25465Y-49345D01*
X25503Y-49345D01*
X25784Y-49589D02*
X25747Y-49608D01*
X25672Y-49608D01*
X25634Y-49589D01*
X25615Y-49551D01*
X25615Y-49401D01*
X25634Y-49364D01*
X25672Y-49345D01*
X25747Y-49345D01*
X25784Y-49364D01*
X25803Y-49401D01*
X25803Y-49439D01*
X25615Y-49476D01*
X25915Y-49345D02*
X26065Y-49345D01*
X25972Y-49608D02*
X25972Y-49270D01*
X25990Y-49233D01*
X26028Y-49214D01*
X26065Y-49214D01*
X24590Y-49608D02*
X24459Y-49420D01*
X24365Y-49608D02*
X24365Y-49214D01*
X24515Y-49214D01*
X24552Y-49233D01*
X24571Y-49251D01*
X24590Y-49289D01*
X24590Y-49345D01*
X24571Y-49383D01*
X24552Y-49401D01*
X24515Y-49420D01*
X24365Y-49420D01*
X31295Y-49476D02*
X31482Y-49476D01*
X31257Y-49588D02*
X31389Y-49194D01*
X31520Y-49588D01*
X31651Y-49326D02*
X31651Y-49588D01*
X31651Y-49363D02*
X31670Y-49344D01*
X31707Y-49326D01*
X31764Y-49326D01*
X31801Y-49344D01*
X31820Y-49382D01*
X31820Y-49588D01*
X32176Y-49588D02*
X32176Y-49382D01*
X32157Y-49344D01*
X32120Y-49326D01*
X32045Y-49326D01*
X32007Y-49344D01*
X32176Y-49569D02*
X32139Y-49588D01*
X32045Y-49588D01*
X32007Y-49569D01*
X31989Y-49532D01*
X31989Y-49494D01*
X32007Y-49457D01*
X32045Y-49438D01*
X32139Y-49438D01*
X32176Y-49419D01*
X32420Y-49588D02*
X32382Y-49569D01*
X32364Y-49532D01*
X32364Y-49194D01*
X32626Y-49588D02*
X32589Y-49569D01*
X32570Y-49550D01*
X32551Y-49513D01*
X32551Y-49401D01*
X32570Y-49363D01*
X32589Y-49344D01*
X32626Y-49326D01*
X32682Y-49326D01*
X32720Y-49344D01*
X32739Y-49363D01*
X32757Y-49401D01*
X32757Y-49513D01*
X32739Y-49550D01*
X32720Y-49569D01*
X32682Y-49588D01*
X32626Y-49588D01*
X33095Y-49326D02*
X33095Y-49644D01*
X33076Y-49682D01*
X33057Y-49700D01*
X33020Y-49719D01*
X32964Y-49719D01*
X32926Y-49700D01*
X33095Y-49569D02*
X33057Y-49588D01*
X32982Y-49588D01*
X32945Y-49569D01*
X32926Y-49550D01*
X32907Y-49513D01*
X32907Y-49401D01*
X32926Y-49363D01*
X32945Y-49344D01*
X32982Y-49326D01*
X33057Y-49326D01*
X33095Y-49344D01*
X36648Y-50730D02*
X36461Y-50730D01*
X36442Y-50917D01*
X36461Y-50898D01*
X36498Y-50880D01*
X36592Y-50880D01*
X36630Y-50898D01*
X36648Y-50917D01*
X36667Y-50955D01*
X36667Y-51048D01*
X36648Y-51086D01*
X36630Y-51105D01*
X36592Y-51123D01*
X36498Y-51123D01*
X36461Y-51105D01*
X36442Y-51086D01*
X35586Y-50861D02*
X35586Y-51123D01*
X35493Y-50711D02*
X35399Y-50992D01*
X35643Y-50992D01*
X34396Y-50730D02*
X34640Y-50730D01*
X34508Y-50880D01*
X34565Y-50880D01*
X34602Y-50898D01*
X34621Y-50917D01*
X34640Y-50955D01*
X34640Y-51048D01*
X34621Y-51086D01*
X34602Y-51105D01*
X34565Y-51123D01*
X34452Y-51123D01*
X34415Y-51105D01*
X34396Y-51086D01*
X33391Y-50767D02*
X33410Y-50748D01*
X33447Y-50730D01*
X33541Y-50730D01*
X33578Y-50748D01*
X33597Y-50767D01*
X33616Y-50805D01*
X33616Y-50842D01*
X33597Y-50898D01*
X33372Y-51123D01*
X33616Y-51123D01*
X32632Y-51123D02*
X32407Y-51123D01*
X32519Y-51123D02*
X32519Y-50730D01*
X32482Y-50786D01*
X32444Y-50823D01*
X32407Y-50842D01*
X31477Y-50710D02*
X31514Y-50710D01*
X31552Y-50729D01*
X31571Y-50748D01*
X31589Y-50785D01*
X31608Y-50860D01*
X31608Y-50954D01*
X31589Y-51029D01*
X31571Y-51066D01*
X31552Y-51085D01*
X31514Y-51104D01*
X31477Y-51104D01*
X31439Y-51085D01*
X31421Y-51066D01*
X31402Y-51029D01*
X31383Y-50954D01*
X31383Y-50860D01*
X31402Y-50785D01*
X31421Y-50748D01*
X31439Y-50729D01*
X31477Y-50710D01*
X31062Y-49685D02*
X31062Y-50669D01*
G54D11*
X36594Y-44431D02*
X36594Y-44037D01*
X36482Y-45475D02*
X36538Y-45494D01*
X36631Y-45494D01*
X36669Y-45475D01*
X36688Y-45456D01*
X36706Y-45419D01*
X36706Y-45381D01*
X36688Y-45344D01*
X36669Y-45325D01*
X36631Y-45306D01*
X36556Y-45287D01*
X36519Y-45269D01*
X36500Y-45250D01*
X36482Y-45212D01*
X36482Y-45175D01*
X36500Y-45137D01*
X36519Y-45119D01*
X36556Y-45100D01*
X36650Y-45100D01*
X36706Y-45119D01*
X39076Y-45100D02*
X39151Y-45100D01*
X39189Y-45119D01*
X39226Y-45156D01*
X39245Y-45231D01*
X39245Y-45362D01*
X39226Y-45437D01*
X39189Y-45475D01*
X39151Y-45494D01*
X39076Y-45494D01*
X39039Y-45475D01*
X39001Y-45437D01*
X38982Y-45362D01*
X38982Y-45231D01*
X39001Y-45156D01*
X39039Y-45119D01*
X39076Y-45100D01*
X39002Y-44037D02*
X39133Y-44431D01*
X39265Y-44037D01*
X36696Y-46419D02*
X36565Y-46231D01*
X36471Y-46419D02*
X36471Y-46025D01*
X36621Y-46025D01*
X36659Y-46044D01*
X36677Y-46062D01*
X36696Y-46100D01*
X36696Y-46156D01*
X36677Y-46194D01*
X36659Y-46212D01*
X36621Y-46231D01*
X36471Y-46231D01*
X39236Y-46083D02*
X39199Y-46064D01*
X39143Y-46064D01*
X39086Y-46083D01*
X39049Y-46121D01*
X39030Y-46158D01*
X39011Y-46233D01*
X39011Y-46289D01*
X39030Y-46364D01*
X39049Y-46402D01*
X39086Y-46439D01*
X39143Y-46458D01*
X39180Y-46458D01*
X39236Y-46439D01*
X39255Y-46421D01*
X39255Y-46289D01*
X39180Y-46289D01*
G54D12*
X37356Y-43585D02*
X37356Y-42994D01*
X37609Y-43557D02*
X37694Y-43585D01*
X37834Y-43585D01*
X37890Y-43557D01*
X37919Y-43529D01*
X37947Y-43473D01*
X37947Y-43416D01*
X37919Y-43360D01*
X37890Y-43332D01*
X37834Y-43304D01*
X37722Y-43276D01*
X37665Y-43248D01*
X37637Y-43219D01*
X37609Y-43163D01*
X37609Y-43107D01*
X37637Y-43051D01*
X37665Y-43023D01*
X37722Y-42994D01*
X37862Y-42994D01*
X37947Y-43023D01*
X38200Y-43585D02*
X38200Y-42994D01*
X38425Y-42994D01*
X38481Y-43023D01*
X38509Y-43051D01*
X38537Y-43107D01*
X38537Y-43191D01*
X38509Y-43248D01*
X38481Y-43276D01*
X38425Y-43304D01*
X38200Y-43304D01*
G54D10*
X23175Y-47267D02*
X23157Y-47286D01*
X23100Y-47305D01*
X23063Y-47305D01*
X23007Y-47286D01*
X22969Y-47248D01*
X22950Y-47211D01*
X22932Y-47136D01*
X22932Y-47080D01*
X22950Y-47005D01*
X22969Y-46967D01*
X23007Y-46930D01*
X23063Y-46911D01*
X23100Y-46911D01*
X23157Y-46930D01*
X23175Y-46948D01*
X23569Y-47267D02*
X23550Y-47286D01*
X23494Y-47305D01*
X23457Y-47305D01*
X23400Y-47286D01*
X23363Y-47248D01*
X23344Y-47211D01*
X23325Y-47136D01*
X23325Y-47080D01*
X23344Y-47005D01*
X23363Y-46967D01*
X23400Y-46930D01*
X23457Y-46911D01*
X23494Y-46911D01*
X23550Y-46930D01*
X23569Y-46948D01*
X23738Y-47155D02*
X24038Y-47155D01*
X24356Y-47098D02*
X24413Y-47117D01*
X24431Y-47136D01*
X24450Y-47173D01*
X24450Y-47230D01*
X24431Y-47267D01*
X24413Y-47286D01*
X24375Y-47305D01*
X24225Y-47305D01*
X24225Y-46911D01*
X24356Y-46911D01*
X24394Y-46930D01*
X24413Y-46948D01*
X24431Y-46986D01*
X24431Y-47023D01*
X24413Y-47061D01*
X24394Y-47080D01*
X24356Y-47098D01*
X24225Y-47098D01*
X24694Y-47117D02*
X24694Y-47305D01*
X24563Y-46911D02*
X24694Y-47117D01*
X24825Y-46911D01*
X24956Y-47155D02*
X25256Y-47155D01*
X25425Y-47286D02*
X25481Y-47305D01*
X25575Y-47305D01*
X25613Y-47286D01*
X25631Y-47267D01*
X25650Y-47230D01*
X25650Y-47192D01*
X25631Y-47155D01*
X25613Y-47136D01*
X25575Y-47117D01*
X25500Y-47098D01*
X25463Y-47080D01*
X25444Y-47061D01*
X25425Y-47023D01*
X25425Y-46986D01*
X25444Y-46948D01*
X25463Y-46930D01*
X25500Y-46911D01*
X25594Y-46911D01*
X25650Y-46930D01*
X25800Y-47192D02*
X25988Y-47192D01*
X25763Y-47305D02*
X25894Y-46911D01*
X26025Y-47305D01*
X26419Y-46911D02*
X26662Y-46911D01*
X26531Y-47061D01*
X26587Y-47061D01*
X26625Y-47080D01*
X26644Y-47098D01*
X26662Y-47136D01*
X26662Y-47230D01*
X26644Y-47267D01*
X26625Y-47286D01*
X26587Y-47305D01*
X26475Y-47305D01*
X26437Y-47286D01*
X26419Y-47267D01*
X26831Y-47267D02*
X26850Y-47286D01*
X26831Y-47305D01*
X26812Y-47286D01*
X26831Y-47267D01*
X26831Y-47305D01*
X27094Y-46911D02*
X27131Y-46911D01*
X27169Y-46930D01*
X27187Y-46948D01*
X27206Y-46986D01*
X27225Y-47061D01*
X27225Y-47155D01*
X27206Y-47230D01*
X27187Y-47267D01*
X27169Y-47286D01*
X27131Y-47305D01*
X27094Y-47305D01*
X27056Y-47286D01*
X27037Y-47267D01*
X27019Y-47230D01*
X27000Y-47155D01*
X27000Y-47061D01*
X27019Y-46986D01*
X27037Y-46948D01*
X27056Y-46930D01*
X27094Y-46911D01*
G54D11*
X25449Y-41970D02*
X25449Y-41576D01*
X25599Y-41576D01*
X25637Y-41595D01*
X25656Y-41614D01*
X25674Y-41651D01*
X25674Y-41707D01*
X25656Y-41745D01*
X25637Y-41764D01*
X25599Y-41782D01*
X25449Y-41782D01*
X26068Y-41932D02*
X26049Y-41951D01*
X25993Y-41970D01*
X25956Y-41970D01*
X25899Y-41951D01*
X25862Y-41914D01*
X25843Y-41876D01*
X25824Y-41801D01*
X25824Y-41745D01*
X25843Y-41670D01*
X25862Y-41632D01*
X25899Y-41595D01*
X25956Y-41576D01*
X25993Y-41576D01*
X26049Y-41595D01*
X26068Y-41614D01*
X26237Y-41970D02*
X26237Y-41576D01*
X26574Y-41951D02*
X26537Y-41970D01*
X26462Y-41970D01*
X26424Y-41951D01*
X26406Y-41914D01*
X26406Y-41764D01*
X26424Y-41726D01*
X26462Y-41707D01*
X26537Y-41707D01*
X26574Y-41726D01*
X26593Y-41764D01*
X26593Y-41801D01*
X26406Y-41839D01*
X26762Y-41970D02*
X26762Y-41576D01*
X26856Y-41576D01*
X26912Y-41595D01*
X26949Y-41632D01*
X26968Y-41670D01*
X26987Y-41745D01*
X26987Y-41801D01*
X26968Y-41876D01*
X26949Y-41914D01*
X26912Y-41951D01*
X26856Y-41970D01*
X26762Y-41970D01*
X27324Y-41707D02*
X27324Y-41970D01*
X27155Y-41707D02*
X27155Y-41914D01*
X27174Y-41951D01*
X27212Y-41970D01*
X27268Y-41970D01*
X27305Y-41951D01*
X27324Y-41932D01*
X27512Y-41970D02*
X27512Y-41707D01*
X27512Y-41576D02*
X27493Y-41595D01*
X27512Y-41614D01*
X27530Y-41595D01*
X27512Y-41576D01*
X27512Y-41614D01*
X27699Y-41707D02*
X27699Y-41970D01*
X27699Y-41745D02*
X27718Y-41726D01*
X27755Y-41707D01*
X27812Y-41707D01*
X27849Y-41726D01*
X27868Y-41764D01*
X27868Y-41970D01*
X28112Y-41970D02*
X28074Y-41951D01*
X28055Y-41932D01*
X28037Y-41895D01*
X28037Y-41782D01*
X28055Y-41745D01*
X28074Y-41726D01*
X28112Y-41707D01*
X28168Y-41707D01*
X28205Y-41726D01*
X28224Y-41745D01*
X28243Y-41782D01*
X28243Y-41895D01*
X28224Y-41932D01*
X28205Y-41951D01*
X28168Y-41970D01*
X28112Y-41970D01*
X28674Y-41576D02*
X28918Y-41576D01*
X28787Y-41726D01*
X28843Y-41726D01*
X28880Y-41745D01*
X28899Y-41764D01*
X28918Y-41801D01*
X28918Y-41895D01*
X28899Y-41932D01*
X28880Y-41951D01*
X28843Y-41970D01*
X28730Y-41970D01*
X28693Y-41951D01*
X28674Y-41932D01*
X29068Y-41614D02*
X29086Y-41595D01*
X29124Y-41576D01*
X29218Y-41576D01*
X29255Y-41595D01*
X29274Y-41614D01*
X29293Y-41651D01*
X29293Y-41689D01*
X29274Y-41745D01*
X29049Y-41970D01*
X29293Y-41970D01*
X29461Y-41576D02*
X29461Y-41895D01*
X29480Y-41932D01*
X29499Y-41951D01*
X29536Y-41970D01*
X29611Y-41970D01*
X29649Y-41951D01*
X29668Y-41932D01*
X29686Y-41895D01*
X29686Y-41576D01*
X30043Y-41707D02*
X30043Y-41970D01*
X29949Y-41557D02*
X29855Y-41839D01*
X30099Y-41839D01*
X27474Y-42357D02*
X27568Y-42619D01*
X27662Y-42357D01*
X28018Y-42619D02*
X27793Y-42619D01*
X27905Y-42619D02*
X27905Y-42226D01*
X27868Y-42282D01*
X27830Y-42320D01*
X27793Y-42338D01*
G54D13*
X27528Y-45275D02*
X30314Y-42489D01*
X30314Y-42489D02*
X33100Y-45275D01*
X30449Y-47927D02*
X33100Y-45275D01*
X30180Y-47927D02*
X27528Y-45275D01*
X30449Y-47927D02*
X30180Y-47927D01*
G54D14*
X30564Y-47396D02*
G75*
G03X30564Y-47396I-250J0D01*
G74*
G01*
G54D15*
X38728Y-50539D02*
X37728Y-50539D01*
X37728Y-49539D02*
X38728Y-49539D01*
X37728Y-50539D02*
X37728Y-49539D01*
X38728Y-49539D02*
X38728Y-50539D01*
X38728Y-41011D02*
X37728Y-41011D01*
X37728Y-40011D02*
X38728Y-40011D01*
X37728Y-41011D02*
X37728Y-40011D01*
X38728Y-40011D02*
X38728Y-41011D01*
G54D14*
X36870Y-46775D02*
X36870Y-43775D01*
X38870Y-43775D02*
X38870Y-46775D01*
X38870Y-46775D02*
X36870Y-46775D01*
X36870Y-43775D02*
X38870Y-43775D01*
G54D10*
X37027Y-40870D02*
X22027Y-40870D01*
X22027Y-40870D02*
X22027Y-39870D01*
X22027Y-39870D02*
X37027Y-39870D01*
X37027Y-39870D02*
X37027Y-40870D01*
X37027Y-50681D02*
X24027Y-50681D01*
X24027Y-50681D02*
X24027Y-49681D01*
X24027Y-49681D02*
X37027Y-49681D01*
X37027Y-49681D02*
X37027Y-50681D01*
G54D16*
X23897Y-43090D02*
X24251Y-43090D01*
X24251Y-43090D02*
X24251Y-42933D01*
X23897Y-42933D02*
X24251Y-42933D01*
X23897Y-43090D02*
X23897Y-42933D01*
X23897Y-43601D02*
X24251Y-43601D01*
X24251Y-43601D02*
X24251Y-43444D01*
X23897Y-43444D02*
X24251Y-43444D01*
X23897Y-43601D02*
X23897Y-43444D01*
X23897Y-43267D02*
X23956Y-43267D01*
X23956Y-43267D02*
X23956Y-43149D01*
X23897Y-43149D02*
X23956Y-43149D01*
X23897Y-43267D02*
X23897Y-43149D01*
X24192Y-43267D02*
X24251Y-43267D01*
X24251Y-43267D02*
X24251Y-43149D01*
X24192Y-43149D02*
X24251Y-43149D01*
X24192Y-43267D02*
X24192Y-43149D01*
X24015Y-43267D02*
X24133Y-43267D01*
X24133Y-43267D02*
X24133Y-43149D01*
X24015Y-43149D02*
X24133Y-43149D01*
X24015Y-43267D02*
X24015Y-43149D01*
G54D17*
X23917Y-43090D02*
X23917Y-43444D01*
X24231Y-43090D02*
X24231Y-43444D01*
G54D10*
X34527Y-43661D02*
X34527Y-42244D01*
X34527Y-42244D02*
X36181Y-42244D01*
X36181Y-42244D02*
X36181Y-43661D01*
X36181Y-43661D02*
X34527Y-43661D01*
X35274Y-43132D02*
X35354Y-43132D01*
X35354Y-43132D02*
X35354Y-42772D01*
X35354Y-42772D02*
X35434Y-42772D01*
G54D18*
X24385Y-44938D02*
X24485Y-44938D01*
X24485Y-44938D02*
X24485Y-44038D01*
X24485Y-44038D02*
X24385Y-44038D01*
X24385Y-44938D02*
X24385Y-44038D01*
X24385Y-44038D02*
X23735Y-44038D01*
X23035Y-44938D02*
X22385Y-44938D01*
X22385Y-44938D02*
X22385Y-44038D01*
X22385Y-44038D02*
X23035Y-44038D01*
X23735Y-44938D02*
X24385Y-44938D01*
X22385Y-45081D02*
X22385Y-45981D01*
X22385Y-45981D02*
X23035Y-45981D01*
X23735Y-45081D02*
X24385Y-45081D01*
X24385Y-45081D02*
X24385Y-45981D01*
X24385Y-45981D02*
X23735Y-45981D01*
X23035Y-45081D02*
X22385Y-45081D01*
X25156Y-43090D02*
X25156Y-42812D01*
X25156Y-42812D02*
X24606Y-42812D01*
X24606Y-42812D02*
X24606Y-43090D01*
X25156Y-43762D02*
X25156Y-43484D01*
X25156Y-43762D02*
X24606Y-43762D01*
X24606Y-43762D02*
X24606Y-43484D01*
X33936Y-48662D02*
X33658Y-48662D01*
X33658Y-48662D02*
X33658Y-49212D01*
X33658Y-49212D02*
X33936Y-49212D01*
X34608Y-48662D02*
X34330Y-48662D01*
X34608Y-48662D02*
X34608Y-49212D01*
X34608Y-49212D02*
X34330Y-49212D01*
X22244Y-47420D02*
X22522Y-47420D01*
X22522Y-47420D02*
X22522Y-46870D01*
X22522Y-46870D02*
X22244Y-46870D01*
X21572Y-47420D02*
X21850Y-47420D01*
X21572Y-47420D02*
X21572Y-46870D01*
X21572Y-46870D02*
X21850Y-46870D01*
X22244Y-48208D02*
X22522Y-48208D01*
X22522Y-48208D02*
X22522Y-47658D01*
X22522Y-47658D02*
X22244Y-47658D01*
X21572Y-48208D02*
X21850Y-48208D01*
X21572Y-48208D02*
X21572Y-47658D01*
X21572Y-47658D02*
X21850Y-47658D01*
X23818Y-41633D02*
X23818Y-41355D01*
X23818Y-41355D02*
X23268Y-41355D01*
X23268Y-41355D02*
X23268Y-41633D01*
X23818Y-42305D02*
X23818Y-42027D01*
X23818Y-42305D02*
X23268Y-42305D01*
X23268Y-42305D02*
X23268Y-42027D01*
X35491Y-44528D02*
X35213Y-44528D01*
X35213Y-44528D02*
X35213Y-45078D01*
X35213Y-45078D02*
X35491Y-45078D01*
X36163Y-44528D02*
X35885Y-44528D01*
X36163Y-44528D02*
X36163Y-45078D01*
X36163Y-45078D02*
X35885Y-45078D01*
X35491Y-45256D02*
X35213Y-45256D01*
X35213Y-45256D02*
X35213Y-45806D01*
X35213Y-45806D02*
X35491Y-45806D01*
X36163Y-45256D02*
X35885Y-45256D01*
X36163Y-45256D02*
X36163Y-45806D01*
X36163Y-45806D02*
X35885Y-45806D01*
G54D19*
X36240Y-42067D02*
X36515Y-42067D01*
X35846Y-42067D02*
X35571Y-42067D01*
X36240Y-41555D02*
X36515Y-41555D01*
X35571Y-41555D02*
X35846Y-41555D01*
X36515Y-41561D02*
X36515Y-42061D01*
X35571Y-42061D02*
X35571Y-41561D01*
X32558Y-47795D02*
X32558Y-48070D01*
X32558Y-47401D02*
X32558Y-47126D01*
X33070Y-47795D02*
X33070Y-48070D01*
X33070Y-47126D02*
X33070Y-47401D01*
X33064Y-48070D02*
X32564Y-48070D01*
X32564Y-47126D02*
X33064Y-47126D01*
X23031Y-46673D02*
X23306Y-46673D01*
X22637Y-46673D02*
X22362Y-46673D01*
X23031Y-46161D02*
X23306Y-46161D01*
X22362Y-46161D02*
X22637Y-46161D01*
X23306Y-46167D02*
X23306Y-46667D01*
X22362Y-46667D02*
X22362Y-46167D01*
X25964Y-44842D02*
X25964Y-44567D01*
X25964Y-45236D02*
X25964Y-45511D01*
X25452Y-44842D02*
X25452Y-44567D01*
X25452Y-45511D02*
X25452Y-45236D01*
X25458Y-44567D02*
X25958Y-44567D01*
X25958Y-45511D02*
X25458Y-45511D01*
X26614Y-44842D02*
X26614Y-44567D01*
X26614Y-45236D02*
X26614Y-45511D01*
X26102Y-44842D02*
X26102Y-44567D01*
X26102Y-45511D02*
X26102Y-45236D01*
X26108Y-44567D02*
X26608Y-44567D01*
X26608Y-45511D02*
X26108Y-45511D01*
X27736Y-47677D02*
X27736Y-47402D01*
X27736Y-48071D02*
X27736Y-48346D01*
X27224Y-47677D02*
X27224Y-47402D01*
X27224Y-48346D02*
X27224Y-48071D01*
X27230Y-47402D02*
X27730Y-47402D01*
X27730Y-48346D02*
X27230Y-48346D01*
X34311Y-42755D02*
X34311Y-42480D01*
X34311Y-43149D02*
X34311Y-43424D01*
X33799Y-42755D02*
X33799Y-42480D01*
X33799Y-43424D02*
X33799Y-43149D01*
X33805Y-42480D02*
X34305Y-42480D01*
X34305Y-43424D02*
X33805Y-43424D01*
G54D16*
X34094Y-45767D02*
X34094Y-45413D01*
X34094Y-45413D02*
X33937Y-45413D01*
X33937Y-45767D02*
X33937Y-45413D01*
X34094Y-45767D02*
X33937Y-45767D01*
X34605Y-45767D02*
X34605Y-45413D01*
X34605Y-45413D02*
X34448Y-45413D01*
X34448Y-45767D02*
X34448Y-45413D01*
X34605Y-45767D02*
X34448Y-45767D01*
X34271Y-45767D02*
X34271Y-45708D01*
X34271Y-45708D02*
X34153Y-45708D01*
X34153Y-45767D02*
X34153Y-45708D01*
X34271Y-45767D02*
X34153Y-45767D01*
X34271Y-45472D02*
X34271Y-45413D01*
X34271Y-45413D02*
X34153Y-45413D01*
X34153Y-45472D02*
X34153Y-45413D01*
X34271Y-45472D02*
X34153Y-45472D01*
X34271Y-45649D02*
X34271Y-45531D01*
X34271Y-45531D02*
X34153Y-45531D01*
X34153Y-45649D02*
X34153Y-45531D01*
X34271Y-45649D02*
X34153Y-45649D01*
G54D17*
X34094Y-45747D02*
X34448Y-45747D01*
X34094Y-45433D02*
X34448Y-45433D01*
G54D16*
X34094Y-44980D02*
X34094Y-44626D01*
X34094Y-44626D02*
X33937Y-44626D01*
X33937Y-44980D02*
X33937Y-44626D01*
X34094Y-44980D02*
X33937Y-44980D01*
X34605Y-44980D02*
X34605Y-44626D01*
X34605Y-44626D02*
X34448Y-44626D01*
X34448Y-44980D02*
X34448Y-44626D01*
X34605Y-44980D02*
X34448Y-44980D01*
X34271Y-44980D02*
X34271Y-44921D01*
X34271Y-44921D02*
X34153Y-44921D01*
X34153Y-44980D02*
X34153Y-44921D01*
X34271Y-44980D02*
X34153Y-44980D01*
X34271Y-44685D02*
X34271Y-44626D01*
X34271Y-44626D02*
X34153Y-44626D01*
X34153Y-44685D02*
X34153Y-44626D01*
X34271Y-44685D02*
X34153Y-44685D01*
X34271Y-44862D02*
X34271Y-44744D01*
X34271Y-44744D02*
X34153Y-44744D01*
X34153Y-44862D02*
X34153Y-44744D01*
X34271Y-44862D02*
X34153Y-44862D01*
G54D17*
X34094Y-44960D02*
X34448Y-44960D01*
X34094Y-44646D02*
X34448Y-44646D01*
G54D16*
X22539Y-41634D02*
X22893Y-41634D01*
X22893Y-41634D02*
X22893Y-41477D01*
X22539Y-41477D02*
X22893Y-41477D01*
X22539Y-41634D02*
X22539Y-41477D01*
X22539Y-42145D02*
X22893Y-42145D01*
X22893Y-42145D02*
X22893Y-41988D01*
X22539Y-41988D02*
X22893Y-41988D01*
X22539Y-42145D02*
X22539Y-41988D01*
X22539Y-41811D02*
X22598Y-41811D01*
X22598Y-41811D02*
X22598Y-41693D01*
X22539Y-41693D02*
X22598Y-41693D01*
X22539Y-41811D02*
X22539Y-41693D01*
X22834Y-41811D02*
X22893Y-41811D01*
X22893Y-41811D02*
X22893Y-41693D01*
X22834Y-41693D02*
X22893Y-41693D01*
X22834Y-41811D02*
X22834Y-41693D01*
X22657Y-41811D02*
X22775Y-41811D01*
X22775Y-41811D02*
X22775Y-41693D01*
X22657Y-41693D02*
X22775Y-41693D01*
X22657Y-41811D02*
X22657Y-41693D01*
G54D17*
X22559Y-41634D02*
X22559Y-41988D01*
X22873Y-41634D02*
X22873Y-41988D01*
G54D10*
X35748Y-48031D02*
X35748Y-48228D01*
X36043Y-48031D02*
X35452Y-48031D01*
X35157Y-47834D02*
X35551Y-47834D01*
X36338Y-47834D02*
X35944Y-47834D01*
X35157Y-47440D02*
X35157Y-48228D01*
X36338Y-47440D02*
X36338Y-48228D01*
G54D20*
G36*
X27675Y-43490D02*
X27672Y-43542D01*
X27661Y-43630D01*
X27635Y-43672D01*
X27577Y-43688D01*
X27552Y-43691D01*
X27465Y-43714D01*
X27408Y-43775D01*
X27389Y-43812D01*
X27357Y-43889D01*
X27359Y-43944D01*
X27397Y-44010D01*
X27411Y-44029D01*
X27486Y-44135D01*
X27394Y-44231D01*
X27302Y-44328D01*
X27205Y-44259D01*
X27123Y-44217D01*
X27051Y-44205D01*
X27045Y-44206D01*
X27006Y-44204D01*
X26969Y-44167D01*
X26927Y-44083D01*
X26901Y-44019D01*
X26819Y-43814D01*
X26899Y-43720D01*
X26966Y-43604D01*
X26967Y-43493D01*
X26901Y-43383D01*
X26881Y-43361D01*
X26769Y-43282D01*
X26658Y-43270D01*
X26551Y-43323D01*
X26527Y-43345D01*
X26458Y-43454D01*
X26446Y-43575D01*
X26490Y-43687D01*
X26524Y-43727D01*
X26604Y-43801D01*
X26519Y-44015D01*
X26471Y-44128D01*
X26435Y-44191D01*
X26400Y-44214D01*
X26363Y-44211D01*
X26278Y-44220D01*
X26207Y-44260D01*
X26121Y-44327D01*
X26029Y-44231D01*
X25937Y-44135D01*
X26005Y-44024D01*
X26047Y-43944D01*
X26053Y-43881D01*
X26028Y-43807D01*
X25980Y-43729D01*
X25908Y-43696D01*
X25872Y-43691D01*
X25802Y-43679D01*
X25768Y-43647D01*
X25754Y-43576D01*
X25751Y-43539D01*
X25748Y-43450D01*
X25765Y-43406D01*
X25821Y-43386D01*
X25874Y-43377D01*
X25968Y-43353D01*
X26019Y-43307D01*
X26043Y-43256D01*
X26060Y-43173D01*
X26036Y-43101D01*
X26011Y-43063D01*
X25959Y-42980D01*
X25953Y-42922D01*
X25993Y-42865D01*
X26025Y-42833D01*
X26105Y-42758D01*
X26237Y-42834D01*
X26321Y-42879D01*
X26374Y-42892D01*
X26423Y-42874D01*
X26457Y-42853D01*
X26519Y-42793D01*
X26545Y-42732D01*
X26559Y-42630D01*
X26611Y-42578D01*
X26711Y-42564D01*
X26712Y-42564D01*
X26795Y-42568D01*
X26835Y-42595D01*
X26856Y-42664D01*
X26861Y-42694D01*
X26889Y-42791D01*
X26943Y-42846D01*
X26979Y-42864D01*
X27052Y-42885D01*
X27114Y-42871D01*
X27179Y-42830D01*
X27283Y-42756D01*
X27380Y-42848D01*
X27477Y-42941D01*
X27407Y-43054D01*
X27364Y-43137D01*
X27358Y-43202D01*
X27378Y-43262D01*
X27422Y-43332D01*
X27497Y-43370D01*
X27550Y-43381D01*
X27633Y-43398D01*
X27669Y-43427D01*
X27675Y-43490D01*
X27675Y-43490D01*
X27675Y-43490D01*
G37*
G54D14*
X29821Y-45337D02*
X29478Y-45681D01*
X29451Y-45735D01*
X29444Y-45768D01*
X29451Y-45816D01*
X29505Y-45869D01*
X29552Y-45876D01*
X29585Y-45869D01*
X29639Y-45842D01*
X29983Y-45499D01*
X29841Y-46206D02*
X29680Y-46044D01*
X29761Y-46125D02*
X30185Y-45701D01*
X30097Y-45735D01*
X30030Y-45748D01*
X29983Y-45741D01*
X29552Y-43519D02*
X29685Y-43651D01*
X29446Y-43572D02*
X29817Y-43386D01*
X29632Y-43757D01*
X29963Y-43532D02*
X30122Y-43691D01*
X29764Y-43890D02*
X30043Y-43611D01*
X29937Y-44062D02*
X30215Y-43784D01*
X30109Y-44075D01*
X30401Y-43969D01*
X30122Y-44248D01*
X30401Y-44234D02*
X30493Y-44327D01*
X30387Y-44513D02*
X30255Y-44380D01*
X30533Y-44102D01*
X30666Y-44234D01*
X30918Y-44513D02*
X30904Y-44473D01*
X30865Y-44433D01*
X30812Y-44407D01*
X30759Y-44407D01*
X30719Y-44420D01*
X30653Y-44460D01*
X30613Y-44500D01*
X30573Y-44566D01*
X30560Y-44606D01*
X30560Y-44659D01*
X30586Y-44712D01*
X30613Y-44738D01*
X30666Y-44765D01*
X30692Y-44765D01*
X30785Y-44672D01*
X30732Y-44619D01*
X30851Y-44818D02*
X30984Y-44950D01*
X30745Y-44871D02*
X31117Y-44685D01*
X30931Y-45056D01*
X31276Y-44844D02*
X31448Y-45017D01*
X31249Y-45030D01*
X31289Y-45070D01*
X31302Y-45109D01*
X31302Y-45136D01*
X31289Y-45176D01*
X31223Y-45242D01*
X31183Y-45255D01*
X31156Y-45255D01*
X31117Y-45242D01*
X31037Y-45162D01*
X31024Y-45123D01*
X31024Y-45096D01*
X31528Y-45149D02*
X31554Y-45149D01*
X31594Y-45162D01*
X31660Y-45229D01*
X31673Y-45268D01*
X31673Y-45295D01*
X31660Y-45335D01*
X31634Y-45361D01*
X31581Y-45388D01*
X31262Y-45388D01*
X31435Y-45560D01*
X31832Y-45401D02*
X31607Y-45626D01*
X31594Y-45666D01*
X31594Y-45693D01*
X31607Y-45732D01*
X31660Y-45785D01*
X31700Y-45799D01*
X31726Y-45799D01*
X31766Y-45785D01*
X31991Y-45560D01*
X32151Y-45905D02*
X31965Y-46090D01*
X32190Y-45732D02*
X31925Y-45865D01*
X32098Y-46037D01*
G54D10*
X23781Y-43967D02*
X23387Y-43967D01*
X23387Y-43817D01*
X23406Y-43779D01*
X23425Y-43760D01*
X23462Y-43742D01*
X23518Y-43742D01*
X23556Y-43760D01*
X23575Y-43779D01*
X23593Y-43817D01*
X23593Y-43967D01*
X23781Y-43517D02*
X23762Y-43554D01*
X23743Y-43573D01*
X23706Y-43592D01*
X23593Y-43592D01*
X23556Y-43573D01*
X23537Y-43554D01*
X23518Y-43517D01*
X23518Y-43460D01*
X23537Y-43423D01*
X23556Y-43404D01*
X23593Y-43385D01*
X23706Y-43385D01*
X23743Y-43404D01*
X23762Y-43423D01*
X23781Y-43460D01*
X23781Y-43517D01*
X23518Y-43254D02*
X23781Y-43179D01*
X23593Y-43104D01*
X23781Y-43029D01*
X23518Y-42954D01*
X23762Y-42654D02*
X23781Y-42692D01*
X23781Y-42767D01*
X23762Y-42804D01*
X23725Y-42823D01*
X23575Y-42823D01*
X23537Y-42804D01*
X23518Y-42767D01*
X23518Y-42692D01*
X23537Y-42654D01*
X23575Y-42635D01*
X23612Y-42635D01*
X23650Y-42823D01*
X23781Y-42467D02*
X23518Y-42467D01*
X23593Y-42467D02*
X23556Y-42448D01*
X23537Y-42429D01*
X23518Y-42392D01*
X23518Y-42354D01*
X36509Y-43561D02*
X36490Y-43598D01*
X36471Y-43617D01*
X36434Y-43636D01*
X36415Y-43636D01*
X36377Y-43617D01*
X36359Y-43598D01*
X36340Y-43561D01*
X36340Y-43486D01*
X36359Y-43448D01*
X36377Y-43429D01*
X36415Y-43411D01*
X36434Y-43411D01*
X36471Y-43429D01*
X36490Y-43448D01*
X36509Y-43486D01*
X36509Y-43561D01*
X36527Y-43598D01*
X36546Y-43617D01*
X36584Y-43636D01*
X36659Y-43636D01*
X36696Y-43617D01*
X36715Y-43598D01*
X36734Y-43561D01*
X36734Y-43486D01*
X36715Y-43448D01*
X36696Y-43429D01*
X36659Y-43411D01*
X36584Y-43411D01*
X36546Y-43429D01*
X36527Y-43448D01*
X36509Y-43486D01*
X36734Y-43242D02*
X36340Y-43242D01*
X36621Y-43111D01*
X36340Y-42979D01*
X36734Y-42979D01*
X36734Y-42792D02*
X36340Y-42792D01*
X36527Y-42792D02*
X36527Y-42567D01*
X36734Y-42567D02*
X36340Y-42567D01*
X36471Y-42417D02*
X36471Y-42211D01*
X36734Y-42417D01*
X36734Y-42211D01*
G54D18*
X23335Y-44581D02*
X23321Y-44595D01*
X23278Y-44609D01*
X23250Y-44609D01*
X23207Y-44595D01*
X23178Y-44566D01*
X23164Y-44538D01*
X23150Y-44481D01*
X23150Y-44438D01*
X23164Y-44381D01*
X23178Y-44352D01*
X23207Y-44323D01*
X23250Y-44309D01*
X23278Y-44309D01*
X23321Y-44323D01*
X23335Y-44338D01*
X23450Y-44338D02*
X23464Y-44323D01*
X23492Y-44309D01*
X23564Y-44309D01*
X23592Y-44323D01*
X23607Y-44338D01*
X23621Y-44366D01*
X23621Y-44395D01*
X23607Y-44438D01*
X23435Y-44609D01*
X23621Y-44609D01*
X23285Y-45495D02*
X23185Y-45495D01*
X23185Y-45652D02*
X23185Y-45352D01*
X23328Y-45352D01*
X23600Y-45652D02*
X23428Y-45652D01*
X23514Y-45652D02*
X23514Y-45352D01*
X23485Y-45395D01*
X23457Y-45424D01*
X23428Y-45438D01*
G54D21*
X24876Y-43392D02*
X24816Y-43298D01*
X24774Y-43392D02*
X24774Y-43195D01*
X24842Y-43195D01*
X24859Y-43204D01*
X24868Y-43213D01*
X24876Y-43232D01*
X24876Y-43260D01*
X24868Y-43279D01*
X24859Y-43288D01*
X24842Y-43298D01*
X24774Y-43298D01*
X24936Y-43195D02*
X25056Y-43195D01*
X24979Y-43392D01*
X24753Y-42499D02*
X24667Y-42499D01*
X24659Y-42594D01*
X24667Y-42585D01*
X24684Y-42575D01*
X24727Y-42575D01*
X24744Y-42585D01*
X24753Y-42594D01*
X24761Y-42613D01*
X24761Y-42661D01*
X24753Y-42680D01*
X24744Y-42689D01*
X24727Y-42699D01*
X24684Y-42699D01*
X24667Y-42689D01*
X24659Y-42680D01*
X24916Y-42566D02*
X24916Y-42699D01*
X24873Y-42489D02*
X24830Y-42632D01*
X24941Y-42632D01*
X25019Y-42699D02*
X25053Y-42699D01*
X25070Y-42689D01*
X25079Y-42680D01*
X25096Y-42651D01*
X25104Y-42613D01*
X25104Y-42537D01*
X25096Y-42518D01*
X25087Y-42508D01*
X25070Y-42499D01*
X25036Y-42499D01*
X25019Y-42508D01*
X25010Y-42518D01*
X25001Y-42537D01*
X25001Y-42585D01*
X25010Y-42604D01*
X25019Y-42613D01*
X25036Y-42623D01*
X25070Y-42623D01*
X25087Y-42613D01*
X25096Y-42604D01*
X25104Y-42585D01*
X34238Y-48942D02*
X34144Y-49002D01*
X34238Y-49044D02*
X34041Y-49044D01*
X34041Y-48976D01*
X34050Y-48959D01*
X34060Y-48950D01*
X34079Y-48942D01*
X34107Y-48942D01*
X34126Y-48950D01*
X34135Y-48959D01*
X34144Y-48976D01*
X34144Y-49044D01*
X34041Y-48882D02*
X34041Y-48770D01*
X34116Y-48830D01*
X34116Y-48804D01*
X34126Y-48787D01*
X34135Y-48779D01*
X34154Y-48770D01*
X34201Y-48770D01*
X34219Y-48779D01*
X34229Y-48787D01*
X34238Y-48804D01*
X34238Y-48856D01*
X34229Y-48873D01*
X34219Y-48882D01*
X33545Y-49061D02*
X33545Y-49164D01*
X33545Y-49112D02*
X33345Y-49112D01*
X33374Y-49129D01*
X33393Y-49147D01*
X33402Y-49164D01*
X33345Y-48949D02*
X33345Y-48932D01*
X33355Y-48915D01*
X33364Y-48907D01*
X33383Y-48898D01*
X33422Y-48889D01*
X33469Y-48889D01*
X33507Y-48898D01*
X33526Y-48907D01*
X33536Y-48915D01*
X33545Y-48932D01*
X33545Y-48949D01*
X33536Y-48967D01*
X33526Y-48975D01*
X33507Y-48984D01*
X33469Y-48992D01*
X33422Y-48992D01*
X33383Y-48984D01*
X33364Y-48975D01*
X33355Y-48967D01*
X33345Y-48949D01*
X33545Y-48812D02*
X33345Y-48812D01*
X33545Y-48709D02*
X33431Y-48787D01*
X33345Y-48709D02*
X33460Y-48812D01*
X22101Y-47200D02*
X22008Y-47260D01*
X22101Y-47303D02*
X21904Y-47303D01*
X21904Y-47234D01*
X21914Y-47217D01*
X21923Y-47209D01*
X21942Y-47200D01*
X21970Y-47200D01*
X21989Y-47209D01*
X21998Y-47217D01*
X22008Y-47234D01*
X22008Y-47303D01*
X22101Y-47029D02*
X22101Y-47132D01*
X22101Y-47080D02*
X21904Y-47080D01*
X21933Y-47097D01*
X21951Y-47114D01*
X21961Y-47132D01*
X22616Y-47282D02*
X22606Y-47274D01*
X22597Y-47257D01*
X22597Y-47214D01*
X22606Y-47197D01*
X22616Y-47188D01*
X22635Y-47179D01*
X22654Y-47179D01*
X22682Y-47188D01*
X22797Y-47291D01*
X22797Y-47179D01*
X22616Y-47111D02*
X22606Y-47102D01*
X22597Y-47085D01*
X22597Y-47042D01*
X22606Y-47025D01*
X22616Y-47017D01*
X22635Y-47008D01*
X22654Y-47008D01*
X22682Y-47017D01*
X22797Y-47119D01*
X22797Y-47008D01*
X22101Y-47988D02*
X22008Y-48048D01*
X22101Y-48090D02*
X21904Y-48090D01*
X21904Y-48022D01*
X21914Y-48005D01*
X21923Y-47996D01*
X21942Y-47988D01*
X21970Y-47988D01*
X21989Y-47996D01*
X21998Y-48005D01*
X22008Y-48022D01*
X22008Y-48090D01*
X21923Y-47919D02*
X21914Y-47910D01*
X21904Y-47893D01*
X21904Y-47850D01*
X21914Y-47833D01*
X21923Y-47825D01*
X21942Y-47816D01*
X21961Y-47816D01*
X21989Y-47825D01*
X22101Y-47928D01*
X22101Y-47816D01*
X22616Y-48070D02*
X22606Y-48061D01*
X22597Y-48044D01*
X22597Y-48001D01*
X22606Y-47984D01*
X22616Y-47975D01*
X22635Y-47967D01*
X22654Y-47967D01*
X22682Y-47975D01*
X22797Y-48078D01*
X22797Y-47967D01*
X22616Y-47898D02*
X22606Y-47890D01*
X22597Y-47873D01*
X22597Y-47830D01*
X22606Y-47813D01*
X22616Y-47804D01*
X22635Y-47795D01*
X22654Y-47795D01*
X22682Y-47804D01*
X22797Y-47907D01*
X22797Y-47795D01*
X23538Y-41935D02*
X23478Y-41841D01*
X23435Y-41935D02*
X23435Y-41738D01*
X23504Y-41738D01*
X23521Y-41747D01*
X23529Y-41757D01*
X23538Y-41775D01*
X23538Y-41804D01*
X23529Y-41822D01*
X23521Y-41832D01*
X23504Y-41841D01*
X23435Y-41841D01*
X23692Y-41738D02*
X23658Y-41738D01*
X23641Y-41747D01*
X23632Y-41757D01*
X23615Y-41785D01*
X23606Y-41822D01*
X23606Y-41897D01*
X23615Y-41916D01*
X23624Y-41926D01*
X23641Y-41935D01*
X23675Y-41935D01*
X23692Y-41926D01*
X23701Y-41916D01*
X23709Y-41897D01*
X23709Y-41851D01*
X23701Y-41832D01*
X23692Y-41822D01*
X23675Y-41813D01*
X23641Y-41813D01*
X23624Y-41822D01*
X23615Y-41832D01*
X23606Y-41851D01*
X23423Y-41242D02*
X23320Y-41242D01*
X23371Y-41242D02*
X23371Y-41042D01*
X23354Y-41071D01*
X23337Y-41090D01*
X23320Y-41099D01*
X23534Y-41042D02*
X23551Y-41042D01*
X23569Y-41052D01*
X23577Y-41061D01*
X23586Y-41080D01*
X23594Y-41118D01*
X23594Y-41166D01*
X23586Y-41204D01*
X23577Y-41223D01*
X23569Y-41233D01*
X23551Y-41242D01*
X23534Y-41242D01*
X23517Y-41233D01*
X23509Y-41223D01*
X23500Y-41204D01*
X23491Y-41166D01*
X23491Y-41118D01*
X23500Y-41080D01*
X23509Y-41061D01*
X23517Y-41052D01*
X23534Y-41042D01*
X23706Y-41042D02*
X23723Y-41042D01*
X23740Y-41052D01*
X23749Y-41061D01*
X23757Y-41080D01*
X23766Y-41118D01*
X23766Y-41166D01*
X23757Y-41204D01*
X23749Y-41223D01*
X23740Y-41233D01*
X23723Y-41242D01*
X23706Y-41242D01*
X23689Y-41233D01*
X23680Y-41223D01*
X23671Y-41204D01*
X23663Y-41166D01*
X23663Y-41118D01*
X23671Y-41080D01*
X23680Y-41061D01*
X23689Y-41052D01*
X23706Y-41042D01*
X35793Y-44808D02*
X35699Y-44868D01*
X35793Y-44911D02*
X35596Y-44911D01*
X35596Y-44842D01*
X35606Y-44825D01*
X35615Y-44816D01*
X35634Y-44808D01*
X35662Y-44808D01*
X35681Y-44816D01*
X35690Y-44825D01*
X35699Y-44842D01*
X35699Y-44911D01*
X35662Y-44653D02*
X35793Y-44653D01*
X35587Y-44696D02*
X35728Y-44739D01*
X35728Y-44628D01*
X34900Y-44931D02*
X34900Y-45017D01*
X34996Y-45026D01*
X34986Y-45017D01*
X34977Y-45000D01*
X34977Y-44957D01*
X34986Y-44940D01*
X34996Y-44931D01*
X35015Y-44923D01*
X35062Y-44923D01*
X35081Y-44931D01*
X35091Y-44940D01*
X35100Y-44957D01*
X35100Y-45000D01*
X35091Y-45017D01*
X35081Y-45026D01*
X34967Y-44768D02*
X35100Y-44768D01*
X34891Y-44811D02*
X35034Y-44854D01*
X35034Y-44743D01*
X35100Y-44666D02*
X35100Y-44631D01*
X35091Y-44614D01*
X35081Y-44606D01*
X35053Y-44588D01*
X35015Y-44580D01*
X34939Y-44580D01*
X34919Y-44588D01*
X34910Y-44597D01*
X34900Y-44614D01*
X34900Y-44648D01*
X34910Y-44666D01*
X34919Y-44674D01*
X34939Y-44683D01*
X34986Y-44683D01*
X35005Y-44674D01*
X35015Y-44666D01*
X35024Y-44648D01*
X35024Y-44614D01*
X35015Y-44597D01*
X35005Y-44588D01*
X34986Y-44580D01*
X35793Y-45536D02*
X35699Y-45596D01*
X35793Y-45639D02*
X35596Y-45639D01*
X35596Y-45570D01*
X35606Y-45553D01*
X35615Y-45545D01*
X35634Y-45536D01*
X35662Y-45536D01*
X35681Y-45545D01*
X35690Y-45553D01*
X35699Y-45570D01*
X35699Y-45639D01*
X35596Y-45373D02*
X35596Y-45459D01*
X35690Y-45467D01*
X35681Y-45459D01*
X35671Y-45442D01*
X35671Y-45399D01*
X35681Y-45382D01*
X35690Y-45373D01*
X35709Y-45365D01*
X35756Y-45365D01*
X35774Y-45373D01*
X35784Y-45382D01*
X35793Y-45399D01*
X35793Y-45442D01*
X35784Y-45459D01*
X35774Y-45467D01*
X34900Y-45660D02*
X34900Y-45745D01*
X34996Y-45754D01*
X34986Y-45745D01*
X34977Y-45728D01*
X34977Y-45685D01*
X34986Y-45668D01*
X34996Y-45660D01*
X35015Y-45651D01*
X35062Y-45651D01*
X35081Y-45660D01*
X35091Y-45668D01*
X35100Y-45685D01*
X35100Y-45728D01*
X35091Y-45745D01*
X35081Y-45754D01*
X34967Y-45497D02*
X35100Y-45497D01*
X34891Y-45540D02*
X35034Y-45582D01*
X35034Y-45471D01*
X35100Y-45394D02*
X35100Y-45360D01*
X35091Y-45342D01*
X35081Y-45334D01*
X35053Y-45317D01*
X35015Y-45308D01*
X34939Y-45308D01*
X34919Y-45317D01*
X34910Y-45325D01*
X34900Y-45342D01*
X34900Y-45377D01*
X34910Y-45394D01*
X34919Y-45402D01*
X34939Y-45411D01*
X34986Y-45411D01*
X35005Y-45402D01*
X35015Y-45394D01*
X35024Y-45377D01*
X35024Y-45342D01*
X35015Y-45325D01*
X35005Y-45317D01*
X34986Y-45308D01*
X36105Y-41841D02*
X36114Y-41849D01*
X36124Y-41875D01*
X36124Y-41892D01*
X36114Y-41918D01*
X36095Y-41935D01*
X36076Y-41943D01*
X36038Y-41952D01*
X36009Y-41952D01*
X35971Y-41943D01*
X35952Y-41935D01*
X35933Y-41918D01*
X35924Y-41892D01*
X35924Y-41875D01*
X35933Y-41849D01*
X35943Y-41841D01*
X35924Y-41781D02*
X35924Y-41661D01*
X36124Y-41738D01*
X36793Y-41907D02*
X36793Y-42009D01*
X36793Y-41958D02*
X36593Y-41958D01*
X36622Y-41975D01*
X36641Y-41992D01*
X36650Y-42009D01*
X36593Y-41795D02*
X36593Y-41778D01*
X36603Y-41761D01*
X36612Y-41752D01*
X36631Y-41744D01*
X36669Y-41735D01*
X36717Y-41735D01*
X36755Y-41744D01*
X36774Y-41752D01*
X36784Y-41761D01*
X36793Y-41778D01*
X36793Y-41795D01*
X36784Y-41812D01*
X36774Y-41821D01*
X36755Y-41829D01*
X36717Y-41838D01*
X36669Y-41838D01*
X36631Y-41829D01*
X36612Y-41821D01*
X36603Y-41812D01*
X36593Y-41795D01*
X36660Y-41658D02*
X36860Y-41658D01*
X36669Y-41658D02*
X36660Y-41641D01*
X36660Y-41607D01*
X36669Y-41589D01*
X36679Y-41581D01*
X36698Y-41572D01*
X36755Y-41572D01*
X36774Y-41581D01*
X36784Y-41589D01*
X36793Y-41607D01*
X36793Y-41641D01*
X36784Y-41658D01*
X32784Y-47660D02*
X32776Y-47669D01*
X32750Y-47679D01*
X32733Y-47679D01*
X32707Y-47669D01*
X32690Y-47650D01*
X32682Y-47631D01*
X32673Y-47593D01*
X32673Y-47565D01*
X32682Y-47526D01*
X32690Y-47507D01*
X32707Y-47488D01*
X32733Y-47479D01*
X32750Y-47479D01*
X32776Y-47488D01*
X32784Y-47498D01*
X32939Y-47479D02*
X32904Y-47479D01*
X32887Y-47488D01*
X32879Y-47498D01*
X32862Y-47526D01*
X32853Y-47565D01*
X32853Y-47641D01*
X32862Y-47660D01*
X32870Y-47669D01*
X32887Y-47679D01*
X32922Y-47679D01*
X32939Y-47669D01*
X32947Y-47660D01*
X32956Y-47641D01*
X32956Y-47593D01*
X32947Y-47574D01*
X32939Y-47565D01*
X32922Y-47555D01*
X32887Y-47555D01*
X32870Y-47565D01*
X32862Y-47574D01*
X32853Y-47593D01*
X32784Y-47029D02*
X32682Y-47029D01*
X32733Y-47029D02*
X32733Y-46829D01*
X32716Y-46857D01*
X32699Y-46876D01*
X32682Y-46886D01*
X32939Y-46896D02*
X32939Y-47029D01*
X32862Y-46896D02*
X32862Y-47000D01*
X32870Y-47019D01*
X32887Y-47029D01*
X32913Y-47029D01*
X32930Y-47019D01*
X32939Y-47010D01*
X22896Y-46447D02*
X22906Y-46455D01*
X22915Y-46481D01*
X22915Y-46498D01*
X22906Y-46524D01*
X22887Y-46541D01*
X22867Y-46550D01*
X22829Y-46558D01*
X22801Y-46558D01*
X22763Y-46550D01*
X22744Y-46541D01*
X22725Y-46524D01*
X22715Y-46498D01*
X22715Y-46481D01*
X22725Y-46455D01*
X22734Y-46447D01*
X22915Y-46275D02*
X22915Y-46378D01*
X22915Y-46327D02*
X22715Y-46327D01*
X22744Y-46344D01*
X22763Y-46361D01*
X22772Y-46378D01*
X22065Y-46635D02*
X22065Y-46618D01*
X22075Y-46601D01*
X22084Y-46593D01*
X22103Y-46584D01*
X22141Y-46575D01*
X22189Y-46575D01*
X22227Y-46584D01*
X22246Y-46593D01*
X22256Y-46601D01*
X22265Y-46618D01*
X22265Y-46635D01*
X22256Y-46653D01*
X22246Y-46661D01*
X22227Y-46670D01*
X22189Y-46678D01*
X22141Y-46678D01*
X22103Y-46670D01*
X22084Y-46661D01*
X22075Y-46653D01*
X22065Y-46635D01*
X22246Y-46498D02*
X22256Y-46490D01*
X22265Y-46498D01*
X22256Y-46507D01*
X22246Y-46498D01*
X22265Y-46498D01*
X22265Y-46318D02*
X22265Y-46421D01*
X22265Y-46370D02*
X22065Y-46370D01*
X22094Y-46387D01*
X22113Y-46404D01*
X22122Y-46421D01*
X22132Y-46164D02*
X22265Y-46164D01*
X22132Y-46241D02*
X22237Y-46241D01*
X22256Y-46233D01*
X22265Y-46215D01*
X22265Y-46190D01*
X22256Y-46173D01*
X22246Y-46164D01*
X25678Y-45101D02*
X25670Y-45110D01*
X25644Y-45120D01*
X25627Y-45120D01*
X25601Y-45110D01*
X25584Y-45091D01*
X25575Y-45072D01*
X25567Y-45034D01*
X25567Y-45006D01*
X25575Y-44967D01*
X25584Y-44948D01*
X25601Y-44929D01*
X25627Y-44920D01*
X25644Y-44920D01*
X25670Y-44929D01*
X25678Y-44939D01*
X25832Y-44986D02*
X25832Y-45120D01*
X25790Y-44910D02*
X25747Y-45053D01*
X25858Y-45053D01*
X25490Y-45570D02*
X25507Y-45570D01*
X25524Y-45579D01*
X25532Y-45589D01*
X25541Y-45608D01*
X25550Y-45646D01*
X25550Y-45694D01*
X25541Y-45732D01*
X25532Y-45751D01*
X25524Y-45760D01*
X25507Y-45770D01*
X25490Y-45770D01*
X25472Y-45760D01*
X25464Y-45751D01*
X25455Y-45732D01*
X25447Y-45694D01*
X25447Y-45646D01*
X25455Y-45608D01*
X25464Y-45589D01*
X25472Y-45579D01*
X25490Y-45570D01*
X25627Y-45751D02*
X25635Y-45760D01*
X25627Y-45770D01*
X25618Y-45760D01*
X25627Y-45751D01*
X25627Y-45770D01*
X25807Y-45770D02*
X25704Y-45770D01*
X25755Y-45770D02*
X25755Y-45570D01*
X25738Y-45598D01*
X25721Y-45617D01*
X25704Y-45627D01*
X25961Y-45636D02*
X25961Y-45770D01*
X25884Y-45636D02*
X25884Y-45741D01*
X25892Y-45760D01*
X25910Y-45770D01*
X25935Y-45770D01*
X25952Y-45760D01*
X25961Y-45751D01*
X26328Y-45101D02*
X26319Y-45110D01*
X26293Y-45120D01*
X26276Y-45120D01*
X26251Y-45110D01*
X26233Y-45091D01*
X26225Y-45072D01*
X26216Y-45034D01*
X26216Y-45006D01*
X26225Y-44967D01*
X26233Y-44948D01*
X26251Y-44929D01*
X26276Y-44920D01*
X26293Y-44920D01*
X26319Y-44929D01*
X26328Y-44939D01*
X26388Y-44920D02*
X26499Y-44920D01*
X26439Y-44996D01*
X26465Y-44996D01*
X26482Y-45006D01*
X26491Y-45015D01*
X26499Y-45034D01*
X26499Y-45082D01*
X26491Y-45101D01*
X26482Y-45110D01*
X26465Y-45120D01*
X26413Y-45120D01*
X26396Y-45110D01*
X26388Y-45101D01*
X26139Y-45570D02*
X26156Y-45570D01*
X26173Y-45579D01*
X26182Y-45589D01*
X26191Y-45608D01*
X26199Y-45646D01*
X26199Y-45694D01*
X26191Y-45732D01*
X26182Y-45751D01*
X26173Y-45760D01*
X26156Y-45770D01*
X26139Y-45770D01*
X26122Y-45760D01*
X26113Y-45751D01*
X26105Y-45732D01*
X26096Y-45694D01*
X26096Y-45646D01*
X26105Y-45608D01*
X26113Y-45589D01*
X26122Y-45579D01*
X26139Y-45570D01*
X26276Y-45751D02*
X26285Y-45760D01*
X26276Y-45770D01*
X26268Y-45760D01*
X26276Y-45751D01*
X26276Y-45770D01*
X26456Y-45770D02*
X26353Y-45770D01*
X26405Y-45770D02*
X26405Y-45570D01*
X26388Y-45598D01*
X26371Y-45617D01*
X26353Y-45627D01*
X26611Y-45636D02*
X26611Y-45770D01*
X26533Y-45636D02*
X26533Y-45741D01*
X26542Y-45760D01*
X26559Y-45770D01*
X26585Y-45770D01*
X26602Y-45760D01*
X26611Y-45751D01*
X27450Y-47935D02*
X27441Y-47945D01*
X27416Y-47954D01*
X27398Y-47954D01*
X27373Y-47945D01*
X27356Y-47926D01*
X27347Y-47907D01*
X27338Y-47869D01*
X27338Y-47840D01*
X27347Y-47802D01*
X27356Y-47783D01*
X27373Y-47764D01*
X27398Y-47754D01*
X27416Y-47754D01*
X27441Y-47764D01*
X27450Y-47774D01*
X27613Y-47754D02*
X27527Y-47754D01*
X27518Y-47850D01*
X27527Y-47840D01*
X27544Y-47831D01*
X27587Y-47831D01*
X27604Y-47840D01*
X27613Y-47850D01*
X27621Y-47869D01*
X27621Y-47916D01*
X27613Y-47935D01*
X27604Y-47945D01*
X27587Y-47954D01*
X27544Y-47954D01*
X27527Y-47945D01*
X27518Y-47935D01*
X27261Y-48404D02*
X27278Y-48404D01*
X27296Y-48414D01*
X27304Y-48424D01*
X27313Y-48443D01*
X27321Y-48481D01*
X27321Y-48528D01*
X27313Y-48566D01*
X27304Y-48585D01*
X27296Y-48595D01*
X27278Y-48604D01*
X27261Y-48604D01*
X27244Y-48595D01*
X27236Y-48585D01*
X27227Y-48566D01*
X27218Y-48528D01*
X27218Y-48481D01*
X27227Y-48443D01*
X27236Y-48424D01*
X27244Y-48414D01*
X27261Y-48404D01*
X27398Y-48585D02*
X27407Y-48595D01*
X27398Y-48604D01*
X27390Y-48595D01*
X27398Y-48585D01*
X27398Y-48604D01*
X27578Y-48604D02*
X27476Y-48604D01*
X27527Y-48604D02*
X27527Y-48404D01*
X27510Y-48433D01*
X27493Y-48452D01*
X27476Y-48462D01*
X27733Y-48471D02*
X27733Y-48604D01*
X27656Y-48471D02*
X27656Y-48576D01*
X27664Y-48595D01*
X27681Y-48604D01*
X27707Y-48604D01*
X27724Y-48595D01*
X27733Y-48585D01*
X34025Y-43014D02*
X34016Y-43024D01*
X33990Y-43033D01*
X33973Y-43033D01*
X33947Y-43024D01*
X33930Y-43005D01*
X33922Y-42986D01*
X33913Y-42947D01*
X33913Y-42919D01*
X33922Y-42881D01*
X33930Y-42862D01*
X33947Y-42843D01*
X33973Y-42833D01*
X33990Y-42833D01*
X34016Y-42843D01*
X34025Y-42852D01*
X34127Y-42919D02*
X34110Y-42909D01*
X34102Y-42900D01*
X34093Y-42881D01*
X34093Y-42871D01*
X34102Y-42852D01*
X34110Y-42843D01*
X34127Y-42833D01*
X34162Y-42833D01*
X34179Y-42843D01*
X34187Y-42852D01*
X34196Y-42871D01*
X34196Y-42881D01*
X34187Y-42900D01*
X34179Y-42909D01*
X34162Y-42919D01*
X34127Y-42919D01*
X34110Y-42928D01*
X34102Y-42938D01*
X34093Y-42957D01*
X34093Y-42995D01*
X34102Y-43014D01*
X34110Y-43024D01*
X34127Y-43033D01*
X34162Y-43033D01*
X34179Y-43024D01*
X34187Y-43014D01*
X34196Y-42995D01*
X34196Y-42957D01*
X34187Y-42938D01*
X34179Y-42928D01*
X34162Y-42919D01*
X33900Y-42325D02*
X33797Y-42325D01*
X33848Y-42325D02*
X33848Y-42125D01*
X33831Y-42153D01*
X33814Y-42172D01*
X33797Y-42182D01*
X34011Y-42125D02*
X34028Y-42125D01*
X34045Y-42134D01*
X34054Y-42144D01*
X34062Y-42163D01*
X34071Y-42201D01*
X34071Y-42248D01*
X34062Y-42286D01*
X34054Y-42305D01*
X34045Y-42315D01*
X34028Y-42325D01*
X34011Y-42325D01*
X33994Y-42315D01*
X33985Y-42305D01*
X33977Y-42286D01*
X33968Y-42248D01*
X33968Y-42201D01*
X33977Y-42163D01*
X33985Y-42144D01*
X33994Y-42134D01*
X34011Y-42125D01*
X34148Y-42191D02*
X34148Y-42391D01*
X34148Y-42201D02*
X34165Y-42191D01*
X34200Y-42191D01*
X34217Y-42201D01*
X34225Y-42210D01*
X34234Y-42229D01*
X34234Y-42286D01*
X34225Y-42305D01*
X34217Y-42315D01*
X34200Y-42325D01*
X34165Y-42325D01*
X34148Y-42315D01*
G54D11*
X34383Y-46360D02*
X34251Y-46172D01*
X34158Y-46360D02*
X34158Y-45966D01*
X34308Y-45966D01*
X34345Y-45985D01*
X34364Y-46003D01*
X34383Y-46041D01*
X34383Y-46097D01*
X34364Y-46135D01*
X34345Y-46153D01*
X34308Y-46172D01*
X34158Y-46172D01*
X34514Y-45966D02*
X34776Y-46360D01*
X34776Y-45966D02*
X34514Y-46360D01*
X34168Y-44096D02*
X34393Y-44096D01*
X34281Y-44490D02*
X34281Y-44096D01*
X34487Y-44096D02*
X34749Y-44490D01*
X34749Y-44096D02*
X34487Y-44490D01*
G54D10*
X22442Y-42308D02*
X22049Y-42308D01*
X22049Y-42215D01*
X22067Y-42158D01*
X22105Y-42121D01*
X22142Y-42102D01*
X22217Y-42083D01*
X22274Y-42083D01*
X22349Y-42102D01*
X22386Y-42121D01*
X22424Y-42158D01*
X22442Y-42215D01*
X22442Y-42308D01*
X22442Y-41708D02*
X22442Y-41933D01*
X22442Y-41821D02*
X22049Y-41821D01*
X22105Y-41858D01*
X22142Y-41896D01*
X22161Y-41933D01*
X22049Y-41577D02*
X22049Y-41333D01*
X22199Y-41465D01*
X22199Y-41408D01*
X22217Y-41371D01*
X22236Y-41352D01*
X22274Y-41333D01*
X22367Y-41333D01*
X22405Y-41352D01*
X22424Y-41371D01*
X22442Y-41408D01*
X22442Y-41521D01*
X22424Y-41558D01*
X22405Y-41577D01*
G54D22*
X37186Y-48347D02*
X36999Y-48478D01*
X37186Y-48572D02*
X36793Y-48572D01*
X36793Y-48422D01*
X36811Y-48384D01*
X36830Y-48366D01*
X36868Y-48347D01*
X36924Y-48347D01*
X36961Y-48366D01*
X36980Y-48384D01*
X36999Y-48422D01*
X36999Y-48572D01*
X36980Y-48178D02*
X36980Y-48047D01*
X37186Y-47991D02*
X37186Y-48178D01*
X36793Y-48178D01*
X36793Y-47991D01*
X37168Y-47841D02*
X37186Y-47784D01*
X37186Y-47691D01*
X37168Y-47653D01*
X37149Y-47634D01*
X37111Y-47616D01*
X37074Y-47616D01*
X37036Y-47634D01*
X37018Y-47653D01*
X36999Y-47691D01*
X36980Y-47766D01*
X36961Y-47803D01*
X36943Y-47822D01*
X36905Y-47841D01*
X36868Y-47841D01*
X36830Y-47822D01*
X36811Y-47803D01*
X36793Y-47766D01*
X36793Y-47672D01*
X36811Y-47616D01*
X36980Y-47447D02*
X36980Y-47316D01*
X37186Y-47260D02*
X37186Y-47447D01*
X36793Y-47447D01*
X36793Y-47260D01*
X36793Y-47147D02*
X36793Y-46922D01*
X37186Y-47035D02*
X36793Y-47035D01*
M02*
