G04 (created by PCBNEW (2013-may-18)-stable) date Mon 04 May 2015 02:01:06 PM CST*
%MOIN*%
G04 Gerber Fmt 3.4, Leading zero omitted, Abs format*
%FSLAX34Y34*%
G01*
G70*
G90*
G04 APERTURE LIST*
%ADD10C,0.00590551*%
%ADD11C,0.011811*%
%ADD12C,0.0001*%
G04 APERTURE END LIST*
G54D10*
G54D11*
X24834Y-44274D02*
X24496Y-44274D01*
X24665Y-44865D02*
X24665Y-44274D01*
X24074Y-44836D02*
X24131Y-44865D01*
X24243Y-44865D01*
X24299Y-44836D01*
X24327Y-44780D01*
X24327Y-44555D01*
X24299Y-44499D01*
X24243Y-44471D01*
X24131Y-44471D01*
X24074Y-44499D01*
X24046Y-44555D01*
X24046Y-44611D01*
X24327Y-44668D01*
X23821Y-44836D02*
X23765Y-44865D01*
X23652Y-44865D01*
X23596Y-44836D01*
X23568Y-44780D01*
X23568Y-44752D01*
X23596Y-44696D01*
X23652Y-44668D01*
X23737Y-44668D01*
X23793Y-44640D01*
X23821Y-44583D01*
X23821Y-44555D01*
X23793Y-44499D01*
X23737Y-44471D01*
X23652Y-44471D01*
X23596Y-44499D01*
X23399Y-44471D02*
X23174Y-44471D01*
X23315Y-44274D02*
X23315Y-44780D01*
X23287Y-44836D01*
X23231Y-44865D01*
X23174Y-44865D01*
X22753Y-44836D02*
X22809Y-44865D01*
X22921Y-44865D01*
X22978Y-44836D01*
X23006Y-44780D01*
X23006Y-44555D01*
X22978Y-44499D01*
X22921Y-44471D01*
X22809Y-44471D01*
X22753Y-44499D01*
X22724Y-44555D01*
X22724Y-44611D01*
X23006Y-44668D01*
X22218Y-44865D02*
X22218Y-44274D01*
X22218Y-44836D02*
X22275Y-44865D01*
X22387Y-44865D01*
X22443Y-44836D01*
X22471Y-44808D01*
X22500Y-44752D01*
X22500Y-44583D01*
X22471Y-44527D01*
X22443Y-44499D01*
X22387Y-44471D01*
X22275Y-44471D01*
X22218Y-44499D01*
G54D12*
G36*
X24356Y-46817D02*
X23523Y-46817D01*
X22690Y-46817D01*
X22690Y-45984D01*
X22690Y-45151D01*
X23523Y-45151D01*
X24356Y-45151D01*
X24356Y-45984D01*
X24356Y-46817D01*
X24356Y-46817D01*
X24356Y-46817D01*
G37*
M02*
