G04 (created by PCBNEW (2013-may-18)-stable) date Mon 04 May 2015 02:01:06 PM CST*
%MOIN*%
G04 Gerber Fmt 3.4, Leading zero omitted, Abs format*
%FSLAX34Y34*%
G01*
G70*
G90*
G04 APERTURE LIST*
%ADD10C,0.00590551*%
%ADD11R,0.0984252X0.0314961*%
%ADD12R,0.240346X0.240346*%
%ADD13R,0.06X0.06*%
%ADD14C,0.06*%
%ADD15R,0.0314X0.0314*%
%ADD16R,0.0671181X0.0592441*%
%ADD17R,0.06X0.08*%
%ADD18R,0.045X0.025*%
%ADD19R,0.025X0.045*%
%ADD20R,0.0513701X0.0474331*%
G04 APERTURE END LIST*
G54D10*
G36*
X28992Y-46711D02*
X28568Y-47135D01*
X28455Y-47022D01*
X28879Y-46597D01*
X28992Y-46711D01*
X28992Y-46711D01*
G37*
G36*
X29215Y-46933D02*
X28791Y-47358D01*
X28678Y-47244D01*
X29102Y-46820D01*
X29215Y-46933D01*
X29215Y-46933D01*
G37*
G36*
X29438Y-47156D02*
X29013Y-47580D01*
X28900Y-47467D01*
X29325Y-47043D01*
X29438Y-47156D01*
X29438Y-47156D01*
G37*
G36*
X29660Y-47379D02*
X29236Y-47803D01*
X29123Y-47690D01*
X29547Y-47266D01*
X29660Y-47379D01*
X29660Y-47379D01*
G37*
G36*
X29883Y-47601D02*
X29459Y-48026D01*
X29346Y-47913D01*
X29770Y-47488D01*
X29883Y-47601D01*
X29883Y-47601D01*
G37*
G36*
X30106Y-47824D02*
X29682Y-48248D01*
X29568Y-48135D01*
X29993Y-47711D01*
X30106Y-47824D01*
X30106Y-47824D01*
G37*
G36*
X28769Y-46488D02*
X28345Y-46912D01*
X28232Y-46799D01*
X28656Y-46375D01*
X28769Y-46488D01*
X28769Y-46488D01*
G37*
G36*
X28547Y-46265D02*
X28122Y-46689D01*
X28009Y-46576D01*
X28434Y-46152D01*
X28547Y-46265D01*
X28547Y-46265D01*
G37*
G36*
X28324Y-46042D02*
X27900Y-46467D01*
X27787Y-46353D01*
X28211Y-45929D01*
X28324Y-46042D01*
X28324Y-46042D01*
G37*
G36*
X28101Y-45820D02*
X27677Y-46244D01*
X27564Y-46131D01*
X27988Y-45706D01*
X28101Y-45820D01*
X28101Y-45820D01*
G37*
G36*
X27878Y-45597D02*
X27454Y-46021D01*
X27341Y-45908D01*
X27765Y-45484D01*
X27878Y-45597D01*
X27878Y-45597D01*
G37*
G36*
X32174Y-43529D02*
X31750Y-43953D01*
X31637Y-43840D01*
X32061Y-43415D01*
X32174Y-43529D01*
X32174Y-43529D01*
G37*
G36*
X32397Y-43751D02*
X31973Y-44176D01*
X31859Y-44062D01*
X32284Y-43638D01*
X32397Y-43751D01*
X32397Y-43751D01*
G37*
G36*
X32620Y-43974D02*
X32195Y-44398D01*
X32082Y-44285D01*
X32506Y-43861D01*
X32620Y-43974D01*
X32620Y-43974D01*
G37*
G36*
X32842Y-44197D02*
X32418Y-44621D01*
X32305Y-44508D01*
X32729Y-44084D01*
X32842Y-44197D01*
X32842Y-44197D01*
G37*
G36*
X33065Y-44419D02*
X32641Y-44844D01*
X32528Y-44731D01*
X32952Y-44306D01*
X33065Y-44419D01*
X33065Y-44419D01*
G37*
G36*
X33288Y-44642D02*
X32864Y-45066D01*
X32750Y-44953D01*
X33175Y-44529D01*
X33288Y-44642D01*
X33288Y-44642D01*
G37*
G36*
X31951Y-43306D02*
X31527Y-43730D01*
X31414Y-43617D01*
X31838Y-43193D01*
X31951Y-43306D01*
X31951Y-43306D01*
G37*
G36*
X31729Y-43083D02*
X31304Y-43507D01*
X31191Y-43394D01*
X31616Y-42970D01*
X31729Y-43083D01*
X31729Y-43083D01*
G37*
G36*
X31506Y-42860D02*
X31082Y-43285D01*
X30969Y-43171D01*
X31393Y-42747D01*
X31506Y-42860D01*
X31506Y-42860D01*
G37*
G36*
X31283Y-42638D02*
X30859Y-43062D01*
X30746Y-42949D01*
X31170Y-42524D01*
X31283Y-42638D01*
X31283Y-42638D01*
G37*
G36*
X31060Y-42415D02*
X30636Y-42839D01*
X30523Y-42726D01*
X30947Y-42302D01*
X31060Y-42415D01*
X31060Y-42415D01*
G37*
G36*
X32174Y-47022D02*
X32061Y-47135D01*
X31637Y-46711D01*
X31750Y-46597D01*
X32174Y-47022D01*
X32174Y-47022D01*
G37*
G36*
X28992Y-43840D02*
X28879Y-43953D01*
X28455Y-43529D01*
X28568Y-43415D01*
X28992Y-43840D01*
X28992Y-43840D01*
G37*
G36*
X32397Y-46799D02*
X32284Y-46912D01*
X31859Y-46488D01*
X31973Y-46375D01*
X32397Y-46799D01*
X32397Y-46799D01*
G37*
G36*
X29215Y-43617D02*
X29102Y-43730D01*
X28678Y-43306D01*
X28791Y-43193D01*
X29215Y-43617D01*
X29215Y-43617D01*
G37*
G36*
X29438Y-43394D02*
X29325Y-43507D01*
X28900Y-43083D01*
X29013Y-42970D01*
X29438Y-43394D01*
X29438Y-43394D01*
G37*
G36*
X32620Y-46576D02*
X32506Y-46689D01*
X32082Y-46265D01*
X32195Y-46152D01*
X32620Y-46576D01*
X32620Y-46576D01*
G37*
G36*
X32842Y-46353D02*
X32729Y-46467D01*
X32305Y-46042D01*
X32418Y-45929D01*
X32842Y-46353D01*
X32842Y-46353D01*
G37*
G36*
X29660Y-43171D02*
X29547Y-43285D01*
X29123Y-42860D01*
X29236Y-42747D01*
X29660Y-43171D01*
X29660Y-43171D01*
G37*
G36*
X29883Y-42949D02*
X29770Y-43062D01*
X29346Y-42638D01*
X29459Y-42524D01*
X29883Y-42949D01*
X29883Y-42949D01*
G37*
G36*
X33065Y-46131D02*
X32952Y-46244D01*
X32528Y-45820D01*
X32641Y-45706D01*
X33065Y-46131D01*
X33065Y-46131D01*
G37*
G36*
X33288Y-45908D02*
X33175Y-46021D01*
X32750Y-45597D01*
X32864Y-45484D01*
X33288Y-45908D01*
X33288Y-45908D01*
G37*
G36*
X30106Y-42726D02*
X29993Y-42839D01*
X29568Y-42415D01*
X29682Y-42302D01*
X30106Y-42726D01*
X30106Y-42726D01*
G37*
G36*
X28769Y-44062D02*
X28656Y-44176D01*
X28232Y-43751D01*
X28345Y-43638D01*
X28769Y-44062D01*
X28769Y-44062D01*
G37*
G36*
X31951Y-47244D02*
X31838Y-47358D01*
X31414Y-46933D01*
X31527Y-46820D01*
X31951Y-47244D01*
X31951Y-47244D01*
G37*
G36*
X31729Y-47467D02*
X31616Y-47580D01*
X31191Y-47156D01*
X31304Y-47043D01*
X31729Y-47467D01*
X31729Y-47467D01*
G37*
G36*
X28547Y-44285D02*
X28434Y-44398D01*
X28009Y-43974D01*
X28122Y-43861D01*
X28547Y-44285D01*
X28547Y-44285D01*
G37*
G36*
X28324Y-44508D02*
X28211Y-44621D01*
X27787Y-44197D01*
X27900Y-44084D01*
X28324Y-44508D01*
X28324Y-44508D01*
G37*
G36*
X31506Y-47690D02*
X31393Y-47803D01*
X30969Y-47379D01*
X31082Y-47266D01*
X31506Y-47690D01*
X31506Y-47690D01*
G37*
G36*
X31283Y-47913D02*
X31170Y-48026D01*
X30746Y-47601D01*
X30859Y-47488D01*
X31283Y-47913D01*
X31283Y-47913D01*
G37*
G36*
X28101Y-44731D02*
X27988Y-44844D01*
X27564Y-44419D01*
X27677Y-44306D01*
X28101Y-44731D01*
X28101Y-44731D01*
G37*
G36*
X27878Y-44953D02*
X27765Y-45066D01*
X27341Y-44642D01*
X27454Y-44529D01*
X27878Y-44953D01*
X27878Y-44953D01*
G37*
G36*
X31060Y-48135D02*
X30947Y-48248D01*
X30523Y-47824D01*
X30636Y-47711D01*
X31060Y-48135D01*
X31060Y-48135D01*
G37*
G54D11*
X19862Y-40629D03*
X19862Y-40944D03*
X19862Y-41259D03*
X19862Y-41574D03*
X19862Y-41889D03*
X19862Y-42204D03*
X19862Y-42519D03*
X19862Y-42834D03*
X19862Y-44409D03*
X19862Y-44724D03*
X19862Y-45039D03*
X19862Y-45354D03*
X19862Y-45669D03*
X19862Y-45984D03*
X19862Y-46299D03*
X19862Y-46614D03*
X19862Y-46929D03*
X19862Y-47244D03*
X19862Y-47559D03*
X19862Y-47874D03*
X19862Y-48188D03*
X19862Y-48503D03*
X19862Y-48818D03*
X19862Y-49133D03*
X19862Y-49448D03*
X19862Y-49763D03*
G54D12*
X38228Y-50039D03*
X38228Y-40511D03*
G54D13*
X37370Y-44275D03*
G54D14*
X38370Y-44275D03*
X37370Y-45275D03*
X38370Y-45275D03*
X37370Y-46275D03*
X38370Y-46275D03*
G54D13*
X36527Y-40370D03*
G54D14*
X35527Y-40370D03*
X34527Y-40370D03*
X33527Y-40370D03*
X32527Y-40370D03*
X31527Y-40370D03*
X30527Y-40370D03*
X29527Y-40370D03*
X28527Y-40370D03*
X27527Y-40370D03*
X26527Y-40370D03*
X25527Y-40370D03*
X24527Y-40370D03*
X23527Y-40370D03*
X22527Y-40370D03*
G54D13*
X36527Y-50181D03*
G54D14*
X35527Y-50181D03*
X34527Y-50181D03*
X33527Y-50181D03*
X32527Y-50181D03*
X31527Y-50181D03*
X30527Y-50181D03*
X29527Y-50181D03*
X28527Y-50181D03*
X27527Y-50181D03*
X26527Y-50181D03*
X25527Y-50181D03*
X24527Y-50181D03*
G54D15*
X24074Y-43562D03*
X24074Y-42972D03*
G54D16*
X35787Y-43287D03*
X34921Y-43287D03*
X34921Y-42618D03*
X35787Y-42618D03*
G54D17*
X24035Y-44488D03*
X22735Y-44488D03*
X22735Y-45531D03*
X24035Y-45531D03*
G54D18*
X24881Y-42987D03*
X24881Y-43587D03*
G54D19*
X33833Y-48937D03*
X34433Y-48937D03*
X22347Y-47145D03*
X21747Y-47145D03*
X22347Y-47933D03*
X21747Y-47933D03*
G54D18*
X23543Y-41530D03*
X23543Y-42130D03*
G54D19*
X35388Y-44803D03*
X35988Y-44803D03*
X35388Y-45531D03*
X35988Y-45531D03*
X35743Y-41811D03*
X36343Y-41811D03*
G54D18*
X32814Y-47298D03*
X32814Y-47898D03*
G54D19*
X22534Y-46417D03*
X23134Y-46417D03*
G54D18*
X25708Y-45339D03*
X25708Y-44739D03*
X26358Y-45339D03*
X26358Y-44739D03*
X27480Y-48174D03*
X27480Y-47574D03*
X34055Y-43252D03*
X34055Y-42652D03*
G54D15*
X34566Y-45590D03*
X33976Y-45590D03*
X34566Y-44803D03*
X33976Y-44803D03*
X22716Y-42106D03*
X22716Y-41516D03*
G54D20*
X36338Y-46751D03*
X36338Y-48917D03*
X35157Y-46751D03*
X35157Y-48917D03*
M02*
