G04 (created by PCBNEW (2013-may-18)-stable) date Sun 24 May 2015 11:52:58 PM CST*
%MOIN*%
G04 Gerber Fmt 3.4, Leading zero omitted, Abs format*
%FSLAX34Y34*%
G01*
G70*
G90*
G04 APERTURE LIST*
%ADD10C,0.00590551*%
%ADD11R,0.0905512X0.023622*%
%ADD12R,0.228346X0.228346*%
%ADD13R,0.06X0.06*%
%ADD14C,0.06*%
%ADD15C,0.023622*%
%ADD16C,0.01*%
%ADD17C,0.015748*%
%ADD18C,0.011811*%
G04 APERTURE END LIST*
G54D10*
G54D11*
X19862Y-40787D03*
X19862Y-41102D03*
X19862Y-41417D03*
X19862Y-41732D03*
X19862Y-42047D03*
X19862Y-42362D03*
X19862Y-42677D03*
X19862Y-42992D03*
X19862Y-44566D03*
X19862Y-44881D03*
X19862Y-45196D03*
X19862Y-45511D03*
X19862Y-45826D03*
X19862Y-46141D03*
X19862Y-46456D03*
X19862Y-46771D03*
X19862Y-47086D03*
X19862Y-47401D03*
X19862Y-47716D03*
X19862Y-48031D03*
X19862Y-48346D03*
X19862Y-48661D03*
X19862Y-48976D03*
X19862Y-49291D03*
X19862Y-49606D03*
X19862Y-49921D03*
G54D12*
X38228Y-50039D03*
X38228Y-40511D03*
G54D13*
X37370Y-44275D03*
G54D14*
X38370Y-44275D03*
X37370Y-45275D03*
X38370Y-45275D03*
X37370Y-46275D03*
X38370Y-46275D03*
G54D13*
X36527Y-40370D03*
G54D14*
X35527Y-40370D03*
X34527Y-40370D03*
X33527Y-40370D03*
X32527Y-40370D03*
X31527Y-40370D03*
X30527Y-40370D03*
X29527Y-40370D03*
X28527Y-40370D03*
X27527Y-40370D03*
X26527Y-40370D03*
X25527Y-40370D03*
X24527Y-40370D03*
X23527Y-40370D03*
X22527Y-40370D03*
G54D13*
X36527Y-50181D03*
G54D14*
X35527Y-50181D03*
X34527Y-50181D03*
X33527Y-50181D03*
X32527Y-50181D03*
X31527Y-50181D03*
X30527Y-50181D03*
X29527Y-50181D03*
X28527Y-50181D03*
X27527Y-50181D03*
X26527Y-50181D03*
X25527Y-50181D03*
X24527Y-50181D03*
G54D15*
X27653Y-46612D03*
X28539Y-45929D03*
X28932Y-46137D03*
X29272Y-46588D03*
X30236Y-46166D03*
X30729Y-46145D03*
X28877Y-47992D03*
X28307Y-48523D03*
X30826Y-49173D03*
X28523Y-49153D03*
X26318Y-49074D03*
X25157Y-47933D03*
X25551Y-47559D03*
X26811Y-48838D03*
X28917Y-48818D03*
X31200Y-48858D03*
X33129Y-41496D03*
X33364Y-41071D03*
X33546Y-44381D03*
X28736Y-42961D03*
X32128Y-42599D03*
X30736Y-48408D03*
X29256Y-43863D03*
X33999Y-46004D03*
X36647Y-47764D03*
X35493Y-46728D03*
X21909Y-49251D03*
X21909Y-45688D03*
X21909Y-48405D03*
X21929Y-43818D03*
X21220Y-40748D03*
X21929Y-42145D03*
X32967Y-47175D03*
X31194Y-46600D03*
X30964Y-41299D03*
X30157Y-41417D03*
X30157Y-42165D03*
X28759Y-44586D03*
X27421Y-46377D03*
X27007Y-41200D03*
X24862Y-41220D03*
X25787Y-41200D03*
X28129Y-41200D03*
X30669Y-45354D03*
X32913Y-48543D03*
X35492Y-43779D03*
X33287Y-43208D03*
X35905Y-42933D03*
X22755Y-50354D03*
X21259Y-49429D03*
X21299Y-47145D03*
X21259Y-47933D03*
X32086Y-44822D03*
X30078Y-43287D03*
X28070Y-45334D03*
X35334Y-48043D03*
X27262Y-44241D03*
G54D16*
X28441Y-47400D02*
X27653Y-46612D01*
X30106Y-47400D02*
X28441Y-47400D01*
X31527Y-48821D02*
X30106Y-47400D01*
X31527Y-50181D02*
X31527Y-48821D01*
X28539Y-46238D02*
X28539Y-45929D01*
X29379Y-47077D02*
X28539Y-46238D01*
X30037Y-47077D02*
X29379Y-47077D01*
X32527Y-49568D02*
X30037Y-47077D01*
X32527Y-50181D02*
X32527Y-49568D01*
X29847Y-46137D02*
X28932Y-46137D01*
X31376Y-47667D02*
X29847Y-46137D01*
X32637Y-47667D02*
X31376Y-47667D01*
X34966Y-49996D02*
X32637Y-47667D01*
X34966Y-50350D02*
X34966Y-49996D01*
X34687Y-50629D02*
X34966Y-50350D01*
X33976Y-50629D02*
X34687Y-50629D01*
X33527Y-50181D02*
X33976Y-50629D01*
X29909Y-46588D02*
X29272Y-46588D01*
X33070Y-49749D02*
X29909Y-46588D01*
X34095Y-49749D02*
X33070Y-49749D01*
X34527Y-50181D02*
X34095Y-49749D01*
X31022Y-46953D02*
X30236Y-46166D01*
X32300Y-46953D02*
X31022Y-46953D01*
X35527Y-50181D02*
X32300Y-46953D01*
X32492Y-46145D02*
X30729Y-46145D01*
X36527Y-50181D02*
X32492Y-46145D01*
X28838Y-47992D02*
X28877Y-47992D01*
X28307Y-48523D02*
X28838Y-47992D01*
X28543Y-49173D02*
X30826Y-49173D01*
X28523Y-49153D02*
X28543Y-49173D01*
X26299Y-49074D02*
X26318Y-49074D01*
X25157Y-47933D02*
X26299Y-49074D01*
X25551Y-47578D02*
X25551Y-47559D01*
X26811Y-48838D02*
X25551Y-47578D01*
X29980Y-48818D02*
X28917Y-48818D01*
X30196Y-48602D02*
X29980Y-48818D01*
X30413Y-48602D02*
X30196Y-48602D01*
X30629Y-48818D02*
X30413Y-48602D01*
X31161Y-48818D02*
X30629Y-48818D01*
X31200Y-48858D02*
X31161Y-48818D01*
X35421Y-41476D02*
X36527Y-40370D01*
X33149Y-41476D02*
X35421Y-41476D01*
X33129Y-41496D02*
X33149Y-41476D01*
X34826Y-41071D02*
X33364Y-41071D01*
X35527Y-40370D02*
X34826Y-41071D01*
X29978Y-40814D02*
X33546Y-44381D01*
X29978Y-40190D02*
X29978Y-40814D01*
X29729Y-39940D02*
X29978Y-40190D01*
X25956Y-39940D02*
X29729Y-39940D01*
X25527Y-40370D02*
X25956Y-39940D01*
X27118Y-42961D02*
X24527Y-40370D01*
X28736Y-42961D02*
X27118Y-42961D01*
X32128Y-41957D02*
X32128Y-42599D01*
X33274Y-40811D02*
X32128Y-41957D01*
X34086Y-40811D02*
X33274Y-40811D01*
X34527Y-40370D02*
X34086Y-40811D01*
X29927Y-47598D02*
X30736Y-48408D01*
X28277Y-47598D02*
X29927Y-47598D01*
X27015Y-46336D02*
X28277Y-47598D01*
X27015Y-44129D02*
X27015Y-46336D01*
X27151Y-43993D02*
X27015Y-44129D01*
X27363Y-43993D02*
X27151Y-43993D01*
X27481Y-44111D02*
X27363Y-43993D01*
X29370Y-44111D02*
X27481Y-44111D01*
X29527Y-43953D02*
X29370Y-44111D01*
X29527Y-40370D02*
X29527Y-43953D01*
X29256Y-41098D02*
X29256Y-43863D01*
X28527Y-40370D02*
X29256Y-41098D01*
X35212Y-46004D02*
X33999Y-46004D01*
X36941Y-44275D02*
X35212Y-46004D01*
X37370Y-44275D02*
X36941Y-44275D01*
X36647Y-46998D02*
X36647Y-47764D01*
X37370Y-46275D02*
X36647Y-46998D01*
X35917Y-46728D02*
X35493Y-46728D01*
X37370Y-45275D02*
X35917Y-46728D01*
G54D17*
X21909Y-49507D02*
X21909Y-49251D01*
X21815Y-49601D02*
X21909Y-49507D01*
X21909Y-45688D02*
X21909Y-48405D01*
X21181Y-40787D02*
X21220Y-40748D01*
X19862Y-40787D02*
X21181Y-40787D01*
X21929Y-42145D02*
X21929Y-43818D01*
X21496Y-49921D02*
X21815Y-49601D01*
X19862Y-49921D02*
X21496Y-49921D01*
X21815Y-49601D02*
X29027Y-49601D01*
X29948Y-49601D02*
X30527Y-50181D01*
X29027Y-49601D02*
X29948Y-49601D01*
X29027Y-50347D02*
X29027Y-49601D01*
X29518Y-50837D02*
X29027Y-50347D01*
X35519Y-50837D02*
X29518Y-50837D01*
X35990Y-50367D02*
X35519Y-50837D01*
X35990Y-49989D02*
X35990Y-50367D01*
X33176Y-47175D02*
X35990Y-49989D01*
X32967Y-47175D02*
X33176Y-47175D01*
G54D18*
X31200Y-46614D02*
X31200Y-46607D01*
X31200Y-46607D02*
X31194Y-46600D01*
X30157Y-42165D02*
X30157Y-41417D01*
X28759Y-44586D02*
X28759Y-44606D01*
X27362Y-46318D02*
X27362Y-45551D01*
X27421Y-46377D02*
X27362Y-46318D01*
X28129Y-41200D02*
X27007Y-41200D01*
X27007Y-41200D02*
X27007Y-41200D01*
X27007Y-41200D02*
X25787Y-41200D01*
X24083Y-44577D02*
X24862Y-43799D01*
X24862Y-43799D02*
X24862Y-41220D01*
G54D17*
X20483Y-44577D02*
X21510Y-44577D01*
X20472Y-44566D02*
X20483Y-44577D01*
X20472Y-44566D02*
X19862Y-44566D01*
G54D18*
X21510Y-44577D02*
X24083Y-44577D01*
X35511Y-43759D02*
X35511Y-43208D01*
X35492Y-43779D02*
X35511Y-43759D01*
X33287Y-43208D02*
X35511Y-43208D01*
X35629Y-43208D02*
X35905Y-42933D01*
X35511Y-43208D02*
X35629Y-43208D01*
G54D17*
X19862Y-49606D02*
X20846Y-49606D01*
G54D18*
X21082Y-49606D02*
X21259Y-49429D01*
X20846Y-49606D02*
X21082Y-49606D01*
G54D17*
X20826Y-48031D02*
X20846Y-48051D01*
X19862Y-48031D02*
X20826Y-48031D01*
X20767Y-45826D02*
X20826Y-45767D01*
X19862Y-45826D02*
X20767Y-45826D01*
X21795Y-41102D02*
X22527Y-40370D01*
X19862Y-41102D02*
X21795Y-41102D01*
X20477Y-47082D02*
X20835Y-47082D01*
X20472Y-47086D02*
X20477Y-47082D01*
X19862Y-47086D02*
X20472Y-47086D01*
G54D16*
X21043Y-47401D02*
X21299Y-47145D01*
X19862Y-47401D02*
X21043Y-47401D01*
X21043Y-47716D02*
X21259Y-47933D01*
X19862Y-47716D02*
X21043Y-47716D01*
G54D17*
X31535Y-44822D02*
X32086Y-44822D01*
X30905Y-44192D02*
X31535Y-44822D01*
X30078Y-44192D02*
X30905Y-44192D01*
X30078Y-44192D02*
X30078Y-43287D01*
X28799Y-45314D02*
X30078Y-44192D01*
X28740Y-45314D02*
X28799Y-45314D01*
X28090Y-45354D02*
X28740Y-45314D01*
X28070Y-45334D02*
X28090Y-45354D01*
X34701Y-47437D02*
X35334Y-47437D01*
X32086Y-44822D02*
X34701Y-47437D01*
X35334Y-47437D02*
X35334Y-48043D01*
X37870Y-44775D02*
X38370Y-44275D01*
X37870Y-45454D02*
X37870Y-44775D01*
X37591Y-45733D02*
X37870Y-45454D01*
X37206Y-45733D02*
X37591Y-45733D01*
X35502Y-47437D02*
X37206Y-45733D01*
X35334Y-47437D02*
X35502Y-47437D01*
X27262Y-44526D02*
X27262Y-44241D01*
X28070Y-45334D02*
X27262Y-44526D01*
G54D10*
G36*
X28956Y-42660D02*
X28945Y-42649D01*
X28809Y-42592D01*
X28663Y-42592D01*
X28528Y-42648D01*
X28515Y-42661D01*
X27242Y-42661D01*
X25501Y-40920D01*
X25636Y-40920D01*
X25838Y-40836D01*
X25993Y-40682D01*
X26027Y-40600D01*
X26061Y-40681D01*
X26215Y-40836D01*
X26417Y-40919D01*
X26636Y-40920D01*
X26838Y-40836D01*
X26993Y-40682D01*
X27027Y-40600D01*
X27061Y-40681D01*
X27215Y-40836D01*
X27417Y-40919D01*
X27636Y-40920D01*
X27838Y-40836D01*
X27993Y-40682D01*
X28027Y-40600D01*
X28061Y-40681D01*
X28215Y-40836D01*
X28417Y-40919D01*
X28636Y-40920D01*
X28648Y-40915D01*
X28956Y-41222D01*
X28956Y-42660D01*
X28956Y-42660D01*
G37*
G54D16*
X28956Y-42660D02*
X28945Y-42649D01*
X28809Y-42592D01*
X28663Y-42592D01*
X28528Y-42648D01*
X28515Y-42661D01*
X27242Y-42661D01*
X25501Y-40920D01*
X25636Y-40920D01*
X25838Y-40836D01*
X25993Y-40682D01*
X26027Y-40600D01*
X26061Y-40681D01*
X26215Y-40836D01*
X26417Y-40919D01*
X26636Y-40920D01*
X26838Y-40836D01*
X26993Y-40682D01*
X27027Y-40600D01*
X27061Y-40681D01*
X27215Y-40836D01*
X27417Y-40919D01*
X27636Y-40920D01*
X27838Y-40836D01*
X27993Y-40682D01*
X28027Y-40600D01*
X28061Y-40681D01*
X28215Y-40836D01*
X28417Y-40919D01*
X28636Y-40920D01*
X28648Y-40915D01*
X28956Y-41222D01*
X28956Y-42660D01*
G54D10*
G36*
X28977Y-47100D02*
X28565Y-47100D01*
X28021Y-46556D01*
X28021Y-46539D01*
X27966Y-46404D01*
X27862Y-46300D01*
X27727Y-46244D01*
X27580Y-46244D01*
X27445Y-46300D01*
X27424Y-46321D01*
X27315Y-46212D01*
X27315Y-45044D01*
X27719Y-45448D01*
X27758Y-45542D01*
X27862Y-45646D01*
X27997Y-45702D01*
X28143Y-45702D01*
X28207Y-45676D01*
X28275Y-45672D01*
X28227Y-45720D01*
X28171Y-45855D01*
X28171Y-46002D01*
X28227Y-46137D01*
X28239Y-46149D01*
X28239Y-46238D01*
X28262Y-46353D01*
X28327Y-46450D01*
X28977Y-47100D01*
X28977Y-47100D01*
G37*
G54D16*
X28977Y-47100D02*
X28565Y-47100D01*
X28021Y-46556D01*
X28021Y-46539D01*
X27966Y-46404D01*
X27862Y-46300D01*
X27727Y-46244D01*
X27580Y-46244D01*
X27445Y-46300D01*
X27424Y-46321D01*
X27315Y-46212D01*
X27315Y-45044D01*
X27719Y-45448D01*
X27758Y-45542D01*
X27862Y-45646D01*
X27997Y-45702D01*
X28143Y-45702D01*
X28207Y-45676D01*
X28275Y-45672D01*
X28227Y-45720D01*
X28171Y-45855D01*
X28171Y-46002D01*
X28227Y-46137D01*
X28239Y-46149D01*
X28239Y-46238D01*
X28262Y-46353D01*
X28327Y-46450D01*
X28977Y-47100D01*
G54D10*
G36*
X29127Y-50911D02*
X20840Y-50911D01*
X20840Y-50649D01*
X20835Y-50623D01*
X20835Y-50597D01*
X20811Y-50476D01*
X20811Y-50476D01*
X20811Y-50476D01*
X20771Y-50378D01*
X20702Y-50276D01*
X20675Y-50250D01*
X21496Y-50250D01*
X21621Y-50224D01*
X21621Y-50224D01*
X21728Y-50153D01*
X21951Y-49930D01*
X24036Y-49930D01*
X23977Y-50071D01*
X23977Y-50290D01*
X24061Y-50492D01*
X24215Y-50647D01*
X24417Y-50731D01*
X24636Y-50731D01*
X24838Y-50647D01*
X24993Y-50493D01*
X25027Y-50411D01*
X25061Y-50492D01*
X25215Y-50647D01*
X25417Y-50731D01*
X25636Y-50731D01*
X25838Y-50647D01*
X25993Y-50493D01*
X26027Y-50411D01*
X26061Y-50492D01*
X26215Y-50647D01*
X26417Y-50731D01*
X26636Y-50731D01*
X26838Y-50647D01*
X26993Y-50493D01*
X27027Y-50411D01*
X27061Y-50492D01*
X27215Y-50647D01*
X27417Y-50731D01*
X27636Y-50731D01*
X27838Y-50647D01*
X27993Y-50493D01*
X28024Y-50417D01*
X28046Y-50468D01*
X28141Y-50496D01*
X28456Y-50181D01*
X28451Y-50175D01*
X28521Y-50104D01*
X28527Y-50110D01*
X28533Y-50104D01*
X28603Y-50175D01*
X28598Y-50181D01*
X28603Y-50186D01*
X28533Y-50257D01*
X28527Y-50251D01*
X28212Y-50567D01*
X28239Y-50662D01*
X28445Y-50735D01*
X28664Y-50724D01*
X28815Y-50662D01*
X28829Y-50613D01*
X29127Y-50911D01*
X29127Y-50911D01*
G37*
G54D16*
X29127Y-50911D02*
X20840Y-50911D01*
X20840Y-50649D01*
X20835Y-50623D01*
X20835Y-50597D01*
X20811Y-50476D01*
X20811Y-50476D01*
X20811Y-50476D01*
X20771Y-50378D01*
X20702Y-50276D01*
X20675Y-50250D01*
X21496Y-50250D01*
X21621Y-50224D01*
X21621Y-50224D01*
X21728Y-50153D01*
X21951Y-49930D01*
X24036Y-49930D01*
X23977Y-50071D01*
X23977Y-50290D01*
X24061Y-50492D01*
X24215Y-50647D01*
X24417Y-50731D01*
X24636Y-50731D01*
X24838Y-50647D01*
X24993Y-50493D01*
X25027Y-50411D01*
X25061Y-50492D01*
X25215Y-50647D01*
X25417Y-50731D01*
X25636Y-50731D01*
X25838Y-50647D01*
X25993Y-50493D01*
X26027Y-50411D01*
X26061Y-50492D01*
X26215Y-50647D01*
X26417Y-50731D01*
X26636Y-50731D01*
X26838Y-50647D01*
X26993Y-50493D01*
X27027Y-50411D01*
X27061Y-50492D01*
X27215Y-50647D01*
X27417Y-50731D01*
X27636Y-50731D01*
X27838Y-50647D01*
X27993Y-50493D01*
X28024Y-50417D01*
X28046Y-50468D01*
X28141Y-50496D01*
X28456Y-50181D01*
X28451Y-50175D01*
X28521Y-50104D01*
X28527Y-50110D01*
X28533Y-50104D01*
X28603Y-50175D01*
X28598Y-50181D01*
X28603Y-50186D01*
X28533Y-50257D01*
X28527Y-50251D01*
X28212Y-50567D01*
X28239Y-50662D01*
X28445Y-50735D01*
X28664Y-50724D01*
X28815Y-50662D01*
X28829Y-50613D01*
X29127Y-50911D01*
G54D10*
G36*
X29332Y-44411D02*
X28672Y-44989D01*
X28260Y-45014D01*
X28184Y-44983D01*
X27612Y-44411D01*
X29332Y-44411D01*
X29332Y-44411D01*
G37*
G54D16*
X29332Y-44411D02*
X28672Y-44989D01*
X28260Y-45014D01*
X28184Y-44983D01*
X27612Y-44411D01*
X29332Y-44411D01*
G54D10*
G36*
X29603Y-50186D02*
X29533Y-50257D01*
X29527Y-50251D01*
X29521Y-50257D01*
X29451Y-50186D01*
X29456Y-50181D01*
X29451Y-50175D01*
X29521Y-50104D01*
X29527Y-50110D01*
X29533Y-50104D01*
X29603Y-50175D01*
X29598Y-50181D01*
X29603Y-50186D01*
X29603Y-50186D01*
G37*
G54D16*
X29603Y-50186D02*
X29533Y-50257D01*
X29527Y-50251D01*
X29521Y-50257D01*
X29451Y-50186D01*
X29456Y-50181D01*
X29451Y-50175D01*
X29521Y-50104D01*
X29527Y-50110D01*
X29533Y-50104D01*
X29603Y-50175D01*
X29598Y-50181D01*
X29603Y-50186D01*
G54D10*
G36*
X32777Y-46855D02*
X32759Y-46863D01*
X32696Y-46926D01*
X32512Y-46741D01*
X32414Y-46676D01*
X32300Y-46653D01*
X31146Y-46653D01*
X30944Y-46451D01*
X30949Y-46445D01*
X32367Y-46445D01*
X32777Y-46855D01*
X32777Y-46855D01*
G37*
G54D16*
X32777Y-46855D02*
X32759Y-46863D01*
X32696Y-46926D01*
X32512Y-46741D01*
X32414Y-46676D01*
X32300Y-46653D01*
X31146Y-46653D01*
X30944Y-46451D01*
X30949Y-46445D01*
X32367Y-46445D01*
X32777Y-46855D01*
G54D10*
G36*
X32815Y-40846D02*
X31916Y-41745D01*
X31851Y-41842D01*
X31828Y-41957D01*
X31828Y-42239D01*
X30508Y-40920D01*
X30636Y-40920D01*
X30838Y-40836D01*
X30993Y-40682D01*
X31027Y-40600D01*
X31061Y-40681D01*
X31215Y-40836D01*
X31417Y-40919D01*
X31636Y-40920D01*
X31838Y-40836D01*
X31993Y-40682D01*
X32027Y-40600D01*
X32061Y-40681D01*
X32215Y-40836D01*
X32417Y-40919D01*
X32636Y-40920D01*
X32815Y-40846D01*
X32815Y-40846D01*
G37*
G54D16*
X32815Y-40846D02*
X31916Y-41745D01*
X31851Y-41842D01*
X31828Y-41957D01*
X31828Y-42239D01*
X30508Y-40920D01*
X30636Y-40920D01*
X30838Y-40836D01*
X30993Y-40682D01*
X31027Y-40600D01*
X31061Y-40681D01*
X31215Y-40836D01*
X31417Y-40919D01*
X31636Y-40920D01*
X31838Y-40836D01*
X31993Y-40682D01*
X32027Y-40600D01*
X32061Y-40681D01*
X32215Y-40836D01*
X32417Y-40919D01*
X32636Y-40920D01*
X32815Y-40846D01*
G54D10*
G36*
X33994Y-49449D02*
X33195Y-49449D01*
X31713Y-47967D01*
X32513Y-47967D01*
X33994Y-49449D01*
X33994Y-49449D01*
G37*
G54D16*
X33994Y-49449D02*
X33195Y-49449D01*
X31713Y-47967D01*
X32513Y-47967D01*
X33994Y-49449D01*
G54D10*
G36*
X35022Y-48251D02*
X32704Y-45933D01*
X32607Y-45868D01*
X32492Y-45845D01*
X30949Y-45845D01*
X30938Y-45833D01*
X30802Y-45777D01*
X30656Y-45777D01*
X30520Y-45833D01*
X30472Y-45882D01*
X30444Y-45855D01*
X30309Y-45798D01*
X30163Y-45798D01*
X30027Y-45854D01*
X29997Y-45884D01*
X29962Y-45860D01*
X29847Y-45837D01*
X29153Y-45837D01*
X29141Y-45826D01*
X29006Y-45769D01*
X28871Y-45769D01*
X28851Y-45721D01*
X28774Y-45643D01*
X28799Y-45643D01*
X28851Y-45633D01*
X28904Y-45626D01*
X28914Y-45620D01*
X28925Y-45618D01*
X28969Y-45588D01*
X29015Y-45562D01*
X30204Y-44521D01*
X30769Y-44521D01*
X31302Y-45055D01*
X31302Y-45055D01*
X31409Y-45126D01*
X31535Y-45151D01*
X31918Y-45151D01*
X31973Y-45174D01*
X34468Y-47669D01*
X34575Y-47740D01*
X34575Y-47740D01*
X34701Y-47766D01*
X35005Y-47766D01*
X35005Y-47875D01*
X34966Y-47970D01*
X34966Y-48116D01*
X35022Y-48251D01*
X35022Y-48251D01*
G37*
G54D16*
X35022Y-48251D02*
X32704Y-45933D01*
X32607Y-45868D01*
X32492Y-45845D01*
X30949Y-45845D01*
X30938Y-45833D01*
X30802Y-45777D01*
X30656Y-45777D01*
X30520Y-45833D01*
X30472Y-45882D01*
X30444Y-45855D01*
X30309Y-45798D01*
X30163Y-45798D01*
X30027Y-45854D01*
X29997Y-45884D01*
X29962Y-45860D01*
X29847Y-45837D01*
X29153Y-45837D01*
X29141Y-45826D01*
X29006Y-45769D01*
X28871Y-45769D01*
X28851Y-45721D01*
X28774Y-45643D01*
X28799Y-45643D01*
X28851Y-45633D01*
X28904Y-45626D01*
X28914Y-45620D01*
X28925Y-45618D01*
X28969Y-45588D01*
X29015Y-45562D01*
X30204Y-44521D01*
X30769Y-44521D01*
X31302Y-45055D01*
X31302Y-45055D01*
X31409Y-45126D01*
X31535Y-45151D01*
X31918Y-45151D01*
X31973Y-45174D01*
X34468Y-47669D01*
X34575Y-47740D01*
X34575Y-47740D01*
X34701Y-47766D01*
X35005Y-47766D01*
X35005Y-47875D01*
X34966Y-47970D01*
X34966Y-48116D01*
X35022Y-48251D01*
G54D10*
G36*
X36836Y-39820D02*
X36778Y-39820D01*
X36178Y-39820D01*
X36086Y-39858D01*
X36015Y-39928D01*
X35977Y-40020D01*
X35977Y-40042D01*
X35839Y-39904D01*
X35637Y-39820D01*
X35418Y-39819D01*
X35216Y-39903D01*
X35061Y-40058D01*
X35027Y-40139D01*
X34994Y-40058D01*
X34839Y-39904D01*
X34637Y-39820D01*
X34418Y-39819D01*
X34216Y-39903D01*
X34061Y-40058D01*
X34027Y-40139D01*
X33994Y-40058D01*
X33839Y-39904D01*
X33637Y-39820D01*
X33418Y-39819D01*
X33216Y-39903D01*
X33061Y-40058D01*
X33027Y-40139D01*
X32994Y-40058D01*
X32839Y-39904D01*
X32637Y-39820D01*
X32418Y-39819D01*
X32216Y-39903D01*
X32061Y-40058D01*
X32027Y-40139D01*
X31994Y-40058D01*
X31839Y-39904D01*
X31637Y-39820D01*
X31418Y-39819D01*
X31216Y-39903D01*
X31061Y-40058D01*
X31027Y-40139D01*
X30994Y-40058D01*
X30839Y-39904D01*
X30637Y-39820D01*
X30418Y-39819D01*
X30216Y-39903D01*
X30166Y-39953D01*
X29941Y-39728D01*
X29844Y-39663D01*
X29729Y-39640D01*
X25956Y-39640D01*
X25842Y-39663D01*
X25744Y-39728D01*
X25648Y-39824D01*
X25637Y-39820D01*
X25418Y-39819D01*
X25216Y-39903D01*
X25061Y-40058D01*
X25027Y-40139D01*
X24994Y-40058D01*
X24839Y-39904D01*
X24637Y-39820D01*
X24418Y-39819D01*
X24216Y-39903D01*
X24061Y-40058D01*
X24027Y-40139D01*
X23994Y-40058D01*
X23839Y-39904D01*
X23637Y-39820D01*
X23418Y-39819D01*
X23216Y-39903D01*
X23061Y-40058D01*
X23030Y-40133D01*
X23008Y-40082D01*
X22913Y-40054D01*
X22842Y-40125D01*
X22842Y-39984D01*
X22815Y-39888D01*
X22609Y-39815D01*
X22390Y-39826D01*
X22239Y-39888D01*
X22212Y-39984D01*
X22527Y-40299D01*
X22842Y-39984D01*
X22842Y-40125D01*
X22598Y-40370D01*
X22913Y-40685D01*
X23008Y-40657D01*
X23028Y-40602D01*
X23061Y-40681D01*
X23215Y-40836D01*
X23417Y-40919D01*
X23636Y-40920D01*
X23838Y-40836D01*
X23993Y-40682D01*
X24027Y-40600D01*
X24061Y-40681D01*
X24215Y-40836D01*
X24417Y-40919D01*
X24636Y-40920D01*
X24648Y-40915D01*
X26906Y-43173D01*
X26906Y-43173D01*
X27003Y-43238D01*
X27118Y-43261D01*
X28515Y-43261D01*
X28527Y-43272D01*
X28662Y-43329D01*
X28809Y-43329D01*
X28944Y-43273D01*
X28956Y-43261D01*
X28956Y-43642D01*
X28944Y-43654D01*
X28888Y-43789D01*
X28888Y-43811D01*
X27605Y-43811D01*
X27575Y-43781D01*
X27478Y-43716D01*
X27363Y-43693D01*
X27151Y-43693D01*
X27036Y-43716D01*
X26939Y-43781D01*
X26803Y-43917D01*
X26738Y-44014D01*
X26715Y-44129D01*
X26715Y-46336D01*
X26738Y-46451D01*
X26803Y-46548D01*
X28065Y-47811D01*
X28065Y-47811D01*
X28162Y-47876D01*
X28277Y-47898D01*
X28507Y-47898D01*
X28250Y-48155D01*
X28234Y-48155D01*
X28098Y-48211D01*
X27995Y-48314D01*
X27939Y-48450D01*
X27938Y-48596D01*
X27994Y-48731D01*
X28098Y-48835D01*
X28233Y-48891D01*
X28264Y-48891D01*
X28211Y-48944D01*
X28155Y-49080D01*
X28155Y-49226D01*
X28174Y-49272D01*
X26635Y-49272D01*
X26673Y-49180D01*
X26737Y-49206D01*
X26883Y-49206D01*
X27019Y-49150D01*
X27122Y-49047D01*
X27179Y-48912D01*
X27179Y-48765D01*
X27123Y-48630D01*
X27019Y-48526D01*
X26884Y-48470D01*
X26867Y-48470D01*
X25919Y-47522D01*
X25919Y-47486D01*
X25863Y-47350D01*
X25759Y-47247D01*
X25624Y-47191D01*
X25478Y-47190D01*
X25342Y-47246D01*
X25239Y-47350D01*
X25183Y-47485D01*
X25183Y-47564D01*
X25084Y-47564D01*
X24949Y-47620D01*
X24845Y-47724D01*
X24789Y-47859D01*
X24789Y-48005D01*
X24845Y-48141D01*
X24948Y-48244D01*
X25083Y-48301D01*
X25101Y-48301D01*
X25952Y-49152D01*
X26002Y-49272D01*
X22842Y-49272D01*
X22842Y-40755D01*
X22527Y-40440D01*
X22456Y-40511D01*
X22456Y-40370D01*
X22141Y-40054D01*
X22046Y-40082D01*
X21972Y-40288D01*
X21983Y-40506D01*
X22046Y-40657D01*
X22141Y-40685D01*
X22456Y-40370D01*
X22456Y-40511D01*
X22212Y-40755D01*
X22239Y-40851D01*
X22445Y-40924D01*
X22664Y-40913D01*
X22815Y-40851D01*
X22842Y-40755D01*
X22842Y-49272D01*
X22297Y-49272D01*
X22297Y-43745D01*
X22257Y-43650D01*
X22257Y-42313D01*
X22297Y-42219D01*
X22297Y-42072D01*
X22241Y-41937D01*
X22137Y-41833D01*
X22002Y-41777D01*
X21856Y-41777D01*
X21720Y-41833D01*
X21617Y-41936D01*
X21561Y-42072D01*
X21560Y-42218D01*
X21600Y-42314D01*
X21600Y-43650D01*
X21561Y-43745D01*
X21560Y-43891D01*
X21616Y-44027D01*
X21720Y-44130D01*
X21855Y-44186D01*
X22002Y-44187D01*
X22137Y-44131D01*
X22241Y-44027D01*
X22297Y-43892D01*
X22297Y-43745D01*
X22297Y-49272D01*
X22277Y-49272D01*
X22277Y-49179D01*
X22221Y-49043D01*
X22118Y-48940D01*
X21982Y-48883D01*
X21836Y-48883D01*
X21701Y-48939D01*
X21597Y-49043D01*
X21541Y-49178D01*
X21541Y-49324D01*
X21566Y-49385D01*
X21359Y-49592D01*
X20660Y-49592D01*
X20660Y-48016D01*
X20896Y-48016D01*
X20947Y-48141D01*
X21051Y-48244D01*
X21186Y-48301D01*
X21332Y-48301D01*
X21468Y-48245D01*
X21571Y-48141D01*
X21580Y-48120D01*
X21580Y-48237D01*
X21541Y-48331D01*
X21541Y-48478D01*
X21597Y-48613D01*
X21700Y-48717D01*
X21835Y-48773D01*
X21982Y-48773D01*
X22117Y-48717D01*
X22221Y-48614D01*
X22277Y-48479D01*
X22277Y-48332D01*
X22238Y-48237D01*
X22238Y-45857D01*
X22277Y-45762D01*
X22277Y-45616D01*
X22221Y-45480D01*
X22118Y-45377D01*
X21982Y-45320D01*
X21836Y-45320D01*
X21701Y-45376D01*
X21597Y-45480D01*
X21541Y-45615D01*
X21541Y-45761D01*
X21580Y-45857D01*
X21580Y-46906D01*
X21508Y-46833D01*
X21372Y-46777D01*
X21226Y-46777D01*
X21090Y-46833D01*
X20987Y-46936D01*
X20931Y-47072D01*
X20931Y-47089D01*
X20919Y-47101D01*
X20660Y-47101D01*
X20660Y-44316D01*
X20755Y-44297D01*
X20853Y-44257D01*
X20853Y-44256D01*
X20853Y-44256D01*
X20948Y-44193D01*
X20948Y-44192D01*
X21023Y-44118D01*
X21087Y-44022D01*
X21127Y-43925D01*
X21127Y-43925D01*
X21127Y-43925D01*
X21150Y-43812D01*
X21150Y-43812D01*
X21150Y-43812D01*
X21150Y-43812D01*
X21150Y-43759D01*
X21150Y-43707D01*
X21150Y-43707D01*
X21150Y-43706D01*
X21150Y-43706D01*
X21127Y-43594D01*
X21127Y-43594D01*
X21127Y-43593D01*
X21087Y-43496D01*
X21023Y-43401D01*
X20948Y-43326D01*
X20948Y-43326D01*
X20853Y-43262D01*
X20853Y-43262D01*
X20853Y-43262D01*
X20755Y-43222D01*
X20660Y-43203D01*
X20660Y-41116D01*
X21181Y-41116D01*
X21181Y-41116D01*
X21293Y-41116D01*
X21428Y-41060D01*
X21532Y-40956D01*
X21588Y-40821D01*
X21588Y-40675D01*
X21532Y-40539D01*
X21429Y-40436D01*
X21294Y-40379D01*
X21147Y-40379D01*
X21012Y-40435D01*
X20989Y-40458D01*
X20660Y-40458D01*
X20660Y-40316D01*
X20702Y-40274D01*
X20771Y-40172D01*
X20811Y-40075D01*
X20811Y-40074D01*
X20811Y-40074D01*
X20835Y-39953D01*
X20835Y-39928D01*
X20840Y-39901D01*
X20840Y-39639D01*
X36836Y-39639D01*
X36836Y-39820D01*
X36836Y-39820D01*
G37*
G54D16*
X36836Y-39820D02*
X36778Y-39820D01*
X36178Y-39820D01*
X36086Y-39858D01*
X36015Y-39928D01*
X35977Y-40020D01*
X35977Y-40042D01*
X35839Y-39904D01*
X35637Y-39820D01*
X35418Y-39819D01*
X35216Y-39903D01*
X35061Y-40058D01*
X35027Y-40139D01*
X34994Y-40058D01*
X34839Y-39904D01*
X34637Y-39820D01*
X34418Y-39819D01*
X34216Y-39903D01*
X34061Y-40058D01*
X34027Y-40139D01*
X33994Y-40058D01*
X33839Y-39904D01*
X33637Y-39820D01*
X33418Y-39819D01*
X33216Y-39903D01*
X33061Y-40058D01*
X33027Y-40139D01*
X32994Y-40058D01*
X32839Y-39904D01*
X32637Y-39820D01*
X32418Y-39819D01*
X32216Y-39903D01*
X32061Y-40058D01*
X32027Y-40139D01*
X31994Y-40058D01*
X31839Y-39904D01*
X31637Y-39820D01*
X31418Y-39819D01*
X31216Y-39903D01*
X31061Y-40058D01*
X31027Y-40139D01*
X30994Y-40058D01*
X30839Y-39904D01*
X30637Y-39820D01*
X30418Y-39819D01*
X30216Y-39903D01*
X30166Y-39953D01*
X29941Y-39728D01*
X29844Y-39663D01*
X29729Y-39640D01*
X25956Y-39640D01*
X25842Y-39663D01*
X25744Y-39728D01*
X25648Y-39824D01*
X25637Y-39820D01*
X25418Y-39819D01*
X25216Y-39903D01*
X25061Y-40058D01*
X25027Y-40139D01*
X24994Y-40058D01*
X24839Y-39904D01*
X24637Y-39820D01*
X24418Y-39819D01*
X24216Y-39903D01*
X24061Y-40058D01*
X24027Y-40139D01*
X23994Y-40058D01*
X23839Y-39904D01*
X23637Y-39820D01*
X23418Y-39819D01*
X23216Y-39903D01*
X23061Y-40058D01*
X23030Y-40133D01*
X23008Y-40082D01*
X22913Y-40054D01*
X22842Y-40125D01*
X22842Y-39984D01*
X22815Y-39888D01*
X22609Y-39815D01*
X22390Y-39826D01*
X22239Y-39888D01*
X22212Y-39984D01*
X22527Y-40299D01*
X22842Y-39984D01*
X22842Y-40125D01*
X22598Y-40370D01*
X22913Y-40685D01*
X23008Y-40657D01*
X23028Y-40602D01*
X23061Y-40681D01*
X23215Y-40836D01*
X23417Y-40919D01*
X23636Y-40920D01*
X23838Y-40836D01*
X23993Y-40682D01*
X24027Y-40600D01*
X24061Y-40681D01*
X24215Y-40836D01*
X24417Y-40919D01*
X24636Y-40920D01*
X24648Y-40915D01*
X26906Y-43173D01*
X26906Y-43173D01*
X27003Y-43238D01*
X27118Y-43261D01*
X28515Y-43261D01*
X28527Y-43272D01*
X28662Y-43329D01*
X28809Y-43329D01*
X28944Y-43273D01*
X28956Y-43261D01*
X28956Y-43642D01*
X28944Y-43654D01*
X28888Y-43789D01*
X28888Y-43811D01*
X27605Y-43811D01*
X27575Y-43781D01*
X27478Y-43716D01*
X27363Y-43693D01*
X27151Y-43693D01*
X27036Y-43716D01*
X26939Y-43781D01*
X26803Y-43917D01*
X26738Y-44014D01*
X26715Y-44129D01*
X26715Y-46336D01*
X26738Y-46451D01*
X26803Y-46548D01*
X28065Y-47811D01*
X28065Y-47811D01*
X28162Y-47876D01*
X28277Y-47898D01*
X28507Y-47898D01*
X28250Y-48155D01*
X28234Y-48155D01*
X28098Y-48211D01*
X27995Y-48314D01*
X27939Y-48450D01*
X27938Y-48596D01*
X27994Y-48731D01*
X28098Y-48835D01*
X28233Y-48891D01*
X28264Y-48891D01*
X28211Y-48944D01*
X28155Y-49080D01*
X28155Y-49226D01*
X28174Y-49272D01*
X26635Y-49272D01*
X26673Y-49180D01*
X26737Y-49206D01*
X26883Y-49206D01*
X27019Y-49150D01*
X27122Y-49047D01*
X27179Y-48912D01*
X27179Y-48765D01*
X27123Y-48630D01*
X27019Y-48526D01*
X26884Y-48470D01*
X26867Y-48470D01*
X25919Y-47522D01*
X25919Y-47486D01*
X25863Y-47350D01*
X25759Y-47247D01*
X25624Y-47191D01*
X25478Y-47190D01*
X25342Y-47246D01*
X25239Y-47350D01*
X25183Y-47485D01*
X25183Y-47564D01*
X25084Y-47564D01*
X24949Y-47620D01*
X24845Y-47724D01*
X24789Y-47859D01*
X24789Y-48005D01*
X24845Y-48141D01*
X24948Y-48244D01*
X25083Y-48301D01*
X25101Y-48301D01*
X25952Y-49152D01*
X26002Y-49272D01*
X22842Y-49272D01*
X22842Y-40755D01*
X22527Y-40440D01*
X22456Y-40511D01*
X22456Y-40370D01*
X22141Y-40054D01*
X22046Y-40082D01*
X21972Y-40288D01*
X21983Y-40506D01*
X22046Y-40657D01*
X22141Y-40685D01*
X22456Y-40370D01*
X22456Y-40511D01*
X22212Y-40755D01*
X22239Y-40851D01*
X22445Y-40924D01*
X22664Y-40913D01*
X22815Y-40851D01*
X22842Y-40755D01*
X22842Y-49272D01*
X22297Y-49272D01*
X22297Y-43745D01*
X22257Y-43650D01*
X22257Y-42313D01*
X22297Y-42219D01*
X22297Y-42072D01*
X22241Y-41937D01*
X22137Y-41833D01*
X22002Y-41777D01*
X21856Y-41777D01*
X21720Y-41833D01*
X21617Y-41936D01*
X21561Y-42072D01*
X21560Y-42218D01*
X21600Y-42314D01*
X21600Y-43650D01*
X21561Y-43745D01*
X21560Y-43891D01*
X21616Y-44027D01*
X21720Y-44130D01*
X21855Y-44186D01*
X22002Y-44187D01*
X22137Y-44131D01*
X22241Y-44027D01*
X22297Y-43892D01*
X22297Y-43745D01*
X22297Y-49272D01*
X22277Y-49272D01*
X22277Y-49179D01*
X22221Y-49043D01*
X22118Y-48940D01*
X21982Y-48883D01*
X21836Y-48883D01*
X21701Y-48939D01*
X21597Y-49043D01*
X21541Y-49178D01*
X21541Y-49324D01*
X21566Y-49385D01*
X21359Y-49592D01*
X20660Y-49592D01*
X20660Y-48016D01*
X20896Y-48016D01*
X20947Y-48141D01*
X21051Y-48244D01*
X21186Y-48301D01*
X21332Y-48301D01*
X21468Y-48245D01*
X21571Y-48141D01*
X21580Y-48120D01*
X21580Y-48237D01*
X21541Y-48331D01*
X21541Y-48478D01*
X21597Y-48613D01*
X21700Y-48717D01*
X21835Y-48773D01*
X21982Y-48773D01*
X22117Y-48717D01*
X22221Y-48614D01*
X22277Y-48479D01*
X22277Y-48332D01*
X22238Y-48237D01*
X22238Y-45857D01*
X22277Y-45762D01*
X22277Y-45616D01*
X22221Y-45480D01*
X22118Y-45377D01*
X21982Y-45320D01*
X21836Y-45320D01*
X21701Y-45376D01*
X21597Y-45480D01*
X21541Y-45615D01*
X21541Y-45761D01*
X21580Y-45857D01*
X21580Y-46906D01*
X21508Y-46833D01*
X21372Y-46777D01*
X21226Y-46777D01*
X21090Y-46833D01*
X20987Y-46936D01*
X20931Y-47072D01*
X20931Y-47089D01*
X20919Y-47101D01*
X20660Y-47101D01*
X20660Y-44316D01*
X20755Y-44297D01*
X20853Y-44257D01*
X20853Y-44256D01*
X20853Y-44256D01*
X20948Y-44193D01*
X20948Y-44192D01*
X21023Y-44118D01*
X21087Y-44022D01*
X21127Y-43925D01*
X21127Y-43925D01*
X21127Y-43925D01*
X21150Y-43812D01*
X21150Y-43812D01*
X21150Y-43812D01*
X21150Y-43812D01*
X21150Y-43759D01*
X21150Y-43707D01*
X21150Y-43707D01*
X21150Y-43706D01*
X21150Y-43706D01*
X21127Y-43594D01*
X21127Y-43594D01*
X21127Y-43593D01*
X21087Y-43496D01*
X21023Y-43401D01*
X20948Y-43326D01*
X20948Y-43326D01*
X20853Y-43262D01*
X20853Y-43262D01*
X20853Y-43262D01*
X20755Y-43222D01*
X20660Y-43203D01*
X20660Y-41116D01*
X21181Y-41116D01*
X21181Y-41116D01*
X21293Y-41116D01*
X21428Y-41060D01*
X21532Y-40956D01*
X21588Y-40821D01*
X21588Y-40675D01*
X21532Y-40539D01*
X21429Y-40436D01*
X21294Y-40379D01*
X21147Y-40379D01*
X21012Y-40435D01*
X20989Y-40458D01*
X20660Y-40458D01*
X20660Y-40316D01*
X20702Y-40274D01*
X20771Y-40172D01*
X20811Y-40075D01*
X20811Y-40074D01*
X20811Y-40074D01*
X20835Y-39953D01*
X20835Y-39928D01*
X20840Y-39901D01*
X20840Y-39639D01*
X36836Y-39639D01*
X36836Y-39820D01*
G54D10*
G36*
X39100Y-48647D02*
X38924Y-48647D01*
X38924Y-46357D01*
X38913Y-46138D01*
X38851Y-45987D01*
X38755Y-45960D01*
X38440Y-46275D01*
X38755Y-46590D01*
X38851Y-46563D01*
X38924Y-46357D01*
X38924Y-48647D01*
X38685Y-48647D01*
X38685Y-46661D01*
X38370Y-46346D01*
X38054Y-46661D01*
X38082Y-46756D01*
X38288Y-46830D01*
X38506Y-46819D01*
X38657Y-46756D01*
X38685Y-46661D01*
X38685Y-48647D01*
X38340Y-48647D01*
X38278Y-48710D01*
X38278Y-49989D01*
X38286Y-49989D01*
X38286Y-50089D01*
X38278Y-50089D01*
X38278Y-50097D01*
X38178Y-50097D01*
X38178Y-50089D01*
X38170Y-50089D01*
X38170Y-49989D01*
X38178Y-49989D01*
X38178Y-48710D01*
X38115Y-48647D01*
X37037Y-48647D01*
X36945Y-48685D01*
X36874Y-48755D01*
X36836Y-48847D01*
X36836Y-48947D01*
X36836Y-49631D01*
X36778Y-49631D01*
X36401Y-49631D01*
X35127Y-48356D01*
X35261Y-48412D01*
X35407Y-48412D01*
X35542Y-48356D01*
X35646Y-48252D01*
X35702Y-48117D01*
X35702Y-47971D01*
X35663Y-47875D01*
X35663Y-47717D01*
X35734Y-47669D01*
X36347Y-47057D01*
X36347Y-47543D01*
X36335Y-47555D01*
X36279Y-47690D01*
X36278Y-47836D01*
X36334Y-47972D01*
X36438Y-48075D01*
X36573Y-48132D01*
X36719Y-48132D01*
X36855Y-48076D01*
X36958Y-47972D01*
X37015Y-47837D01*
X37015Y-47691D01*
X36959Y-47555D01*
X36947Y-47543D01*
X36947Y-47122D01*
X37249Y-46820D01*
X37260Y-46825D01*
X37479Y-46825D01*
X37681Y-46742D01*
X37836Y-46587D01*
X37867Y-46511D01*
X37888Y-46563D01*
X37984Y-46590D01*
X38299Y-46275D01*
X37984Y-45960D01*
X37888Y-45987D01*
X37869Y-46043D01*
X37836Y-45964D01*
X37830Y-45958D01*
X38052Y-45736D01*
X38058Y-45741D01*
X38133Y-45772D01*
X38082Y-45794D01*
X38054Y-45889D01*
X38370Y-46204D01*
X38685Y-45889D01*
X38657Y-45794D01*
X38602Y-45774D01*
X38681Y-45742D01*
X38836Y-45587D01*
X38919Y-45385D01*
X38920Y-45166D01*
X38836Y-44964D01*
X38682Y-44809D01*
X38600Y-44775D01*
X38681Y-44742D01*
X38836Y-44587D01*
X38919Y-44385D01*
X38920Y-44166D01*
X38836Y-43964D01*
X38682Y-43809D01*
X38479Y-43725D01*
X38261Y-43725D01*
X38058Y-43809D01*
X37920Y-43947D01*
X37920Y-43926D01*
X37882Y-43834D01*
X37811Y-43763D01*
X37720Y-43725D01*
X37620Y-43725D01*
X37020Y-43725D01*
X36928Y-43763D01*
X36858Y-43833D01*
X36820Y-43925D01*
X36820Y-44002D01*
X36729Y-44063D01*
X35087Y-45704D01*
X34219Y-45704D01*
X34208Y-45692D01*
X34072Y-45636D01*
X33926Y-45636D01*
X33791Y-45692D01*
X33687Y-45795D01*
X33639Y-45910D01*
X32438Y-44709D01*
X32398Y-44614D01*
X32295Y-44510D01*
X32160Y-44454D01*
X32013Y-44454D01*
X31918Y-44494D01*
X31671Y-44494D01*
X31137Y-43960D01*
X31031Y-43889D01*
X30905Y-43864D01*
X30407Y-43864D01*
X30407Y-43455D01*
X30446Y-43360D01*
X30446Y-43214D01*
X30390Y-43079D01*
X30287Y-42975D01*
X30152Y-42919D01*
X30005Y-42919D01*
X29870Y-42975D01*
X29827Y-43018D01*
X29827Y-41087D01*
X33178Y-44437D01*
X33178Y-44454D01*
X33234Y-44590D01*
X33337Y-44693D01*
X33472Y-44749D01*
X33619Y-44750D01*
X33754Y-44694D01*
X33858Y-44590D01*
X33914Y-44455D01*
X33914Y-44308D01*
X33858Y-44173D01*
X33755Y-44069D01*
X33619Y-44013D01*
X33602Y-44013D01*
X32418Y-42829D01*
X32440Y-42808D01*
X32496Y-42672D01*
X32496Y-42526D01*
X32440Y-42391D01*
X32428Y-42378D01*
X32428Y-42081D01*
X32814Y-41696D01*
X32817Y-41704D01*
X32921Y-41807D01*
X33056Y-41864D01*
X33202Y-41864D01*
X33338Y-41808D01*
X33370Y-41776D01*
X35421Y-41776D01*
X35421Y-41776D01*
X35536Y-41753D01*
X35536Y-41753D01*
X35633Y-41688D01*
X36401Y-40920D01*
X36836Y-40920D01*
X36836Y-41604D01*
X36836Y-41703D01*
X36874Y-41795D01*
X36945Y-41865D01*
X37037Y-41903D01*
X38115Y-41903D01*
X38178Y-41841D01*
X38178Y-40561D01*
X38170Y-40561D01*
X38170Y-40461D01*
X38178Y-40461D01*
X38178Y-40453D01*
X38278Y-40453D01*
X38278Y-40461D01*
X38286Y-40461D01*
X38286Y-40561D01*
X38278Y-40561D01*
X38278Y-41841D01*
X38340Y-41903D01*
X39100Y-41903D01*
X39100Y-48647D01*
X39100Y-48647D01*
G37*
G54D16*
X39100Y-48647D02*
X38924Y-48647D01*
X38924Y-46357D01*
X38913Y-46138D01*
X38851Y-45987D01*
X38755Y-45960D01*
X38440Y-46275D01*
X38755Y-46590D01*
X38851Y-46563D01*
X38924Y-46357D01*
X38924Y-48647D01*
X38685Y-48647D01*
X38685Y-46661D01*
X38370Y-46346D01*
X38054Y-46661D01*
X38082Y-46756D01*
X38288Y-46830D01*
X38506Y-46819D01*
X38657Y-46756D01*
X38685Y-46661D01*
X38685Y-48647D01*
X38340Y-48647D01*
X38278Y-48710D01*
X38278Y-49989D01*
X38286Y-49989D01*
X38286Y-50089D01*
X38278Y-50089D01*
X38278Y-50097D01*
X38178Y-50097D01*
X38178Y-50089D01*
X38170Y-50089D01*
X38170Y-49989D01*
X38178Y-49989D01*
X38178Y-48710D01*
X38115Y-48647D01*
X37037Y-48647D01*
X36945Y-48685D01*
X36874Y-48755D01*
X36836Y-48847D01*
X36836Y-48947D01*
X36836Y-49631D01*
X36778Y-49631D01*
X36401Y-49631D01*
X35127Y-48356D01*
X35261Y-48412D01*
X35407Y-48412D01*
X35542Y-48356D01*
X35646Y-48252D01*
X35702Y-48117D01*
X35702Y-47971D01*
X35663Y-47875D01*
X35663Y-47717D01*
X35734Y-47669D01*
X36347Y-47057D01*
X36347Y-47543D01*
X36335Y-47555D01*
X36279Y-47690D01*
X36278Y-47836D01*
X36334Y-47972D01*
X36438Y-48075D01*
X36573Y-48132D01*
X36719Y-48132D01*
X36855Y-48076D01*
X36958Y-47972D01*
X37015Y-47837D01*
X37015Y-47691D01*
X36959Y-47555D01*
X36947Y-47543D01*
X36947Y-47122D01*
X37249Y-46820D01*
X37260Y-46825D01*
X37479Y-46825D01*
X37681Y-46742D01*
X37836Y-46587D01*
X37867Y-46511D01*
X37888Y-46563D01*
X37984Y-46590D01*
X38299Y-46275D01*
X37984Y-45960D01*
X37888Y-45987D01*
X37869Y-46043D01*
X37836Y-45964D01*
X37830Y-45958D01*
X38052Y-45736D01*
X38058Y-45741D01*
X38133Y-45772D01*
X38082Y-45794D01*
X38054Y-45889D01*
X38370Y-46204D01*
X38685Y-45889D01*
X38657Y-45794D01*
X38602Y-45774D01*
X38681Y-45742D01*
X38836Y-45587D01*
X38919Y-45385D01*
X38920Y-45166D01*
X38836Y-44964D01*
X38682Y-44809D01*
X38600Y-44775D01*
X38681Y-44742D01*
X38836Y-44587D01*
X38919Y-44385D01*
X38920Y-44166D01*
X38836Y-43964D01*
X38682Y-43809D01*
X38479Y-43725D01*
X38261Y-43725D01*
X38058Y-43809D01*
X37920Y-43947D01*
X37920Y-43926D01*
X37882Y-43834D01*
X37811Y-43763D01*
X37720Y-43725D01*
X37620Y-43725D01*
X37020Y-43725D01*
X36928Y-43763D01*
X36858Y-43833D01*
X36820Y-43925D01*
X36820Y-44002D01*
X36729Y-44063D01*
X35087Y-45704D01*
X34219Y-45704D01*
X34208Y-45692D01*
X34072Y-45636D01*
X33926Y-45636D01*
X33791Y-45692D01*
X33687Y-45795D01*
X33639Y-45910D01*
X32438Y-44709D01*
X32398Y-44614D01*
X32295Y-44510D01*
X32160Y-44454D01*
X32013Y-44454D01*
X31918Y-44494D01*
X31671Y-44494D01*
X31137Y-43960D01*
X31031Y-43889D01*
X30905Y-43864D01*
X30407Y-43864D01*
X30407Y-43455D01*
X30446Y-43360D01*
X30446Y-43214D01*
X30390Y-43079D01*
X30287Y-42975D01*
X30152Y-42919D01*
X30005Y-42919D01*
X29870Y-42975D01*
X29827Y-43018D01*
X29827Y-41087D01*
X33178Y-44437D01*
X33178Y-44454D01*
X33234Y-44590D01*
X33337Y-44693D01*
X33472Y-44749D01*
X33619Y-44750D01*
X33754Y-44694D01*
X33858Y-44590D01*
X33914Y-44455D01*
X33914Y-44308D01*
X33858Y-44173D01*
X33755Y-44069D01*
X33619Y-44013D01*
X33602Y-44013D01*
X32418Y-42829D01*
X32440Y-42808D01*
X32496Y-42672D01*
X32496Y-42526D01*
X32440Y-42391D01*
X32428Y-42378D01*
X32428Y-42081D01*
X32814Y-41696D01*
X32817Y-41704D01*
X32921Y-41807D01*
X33056Y-41864D01*
X33202Y-41864D01*
X33338Y-41808D01*
X33370Y-41776D01*
X35421Y-41776D01*
X35421Y-41776D01*
X35536Y-41753D01*
X35536Y-41753D01*
X35633Y-41688D01*
X36401Y-40920D01*
X36836Y-40920D01*
X36836Y-41604D01*
X36836Y-41703D01*
X36874Y-41795D01*
X36945Y-41865D01*
X37037Y-41903D01*
X38115Y-41903D01*
X38178Y-41841D01*
X38178Y-40561D01*
X38170Y-40561D01*
X38170Y-40461D01*
X38178Y-40461D01*
X38178Y-40453D01*
X38278Y-40453D01*
X38278Y-40461D01*
X38286Y-40461D01*
X38286Y-40561D01*
X38278Y-40561D01*
X38278Y-41841D01*
X38340Y-41903D01*
X39100Y-41903D01*
X39100Y-48647D01*
M02*
