G04 (created by PCBNEW (2013-may-18)-stable) date Sun 24 May 2015 11:52:58 PM CST*
%MOIN*%
G04 Gerber Fmt 3.4, Leading zero omitted, Abs format*
%FSLAX34Y34*%
G01*
G70*
G90*
G04 APERTURE LIST*
%ADD10C,0.00590551*%
%ADD11R,0.0905512X0.023622*%
%ADD12R,0.228346X0.228346*%
%ADD13R,0.06X0.06*%
%ADD14C,0.06*%
%ADD15R,0.0314X0.0314*%
%ADD16R,0.06X0.08*%
%ADD17R,0.045X0.025*%
%ADD18R,0.025X0.045*%
%ADD19R,0.0393701X0.0354331*%
%ADD20R,0.0472441X0.0708661*%
%ADD21R,0.035X0.055*%
%ADD22C,0.023622*%
%ADD23C,0.01*%
%ADD24C,0.015748*%
%ADD25C,0.011811*%
G04 APERTURE END LIST*
G54D10*
G36*
X28992Y-46711D02*
X28568Y-47135D01*
X28455Y-47022D01*
X28879Y-46597D01*
X28992Y-46711D01*
X28992Y-46711D01*
G37*
G36*
X29215Y-46933D02*
X28791Y-47358D01*
X28678Y-47244D01*
X29102Y-46820D01*
X29215Y-46933D01*
X29215Y-46933D01*
G37*
G36*
X29438Y-47156D02*
X29013Y-47580D01*
X28900Y-47467D01*
X29325Y-47043D01*
X29438Y-47156D01*
X29438Y-47156D01*
G37*
G36*
X29660Y-47379D02*
X29236Y-47803D01*
X29123Y-47690D01*
X29547Y-47266D01*
X29660Y-47379D01*
X29660Y-47379D01*
G37*
G36*
X29883Y-47601D02*
X29459Y-48026D01*
X29346Y-47913D01*
X29770Y-47488D01*
X29883Y-47601D01*
X29883Y-47601D01*
G37*
G36*
X30106Y-47824D02*
X29682Y-48248D01*
X29568Y-48135D01*
X29993Y-47711D01*
X30106Y-47824D01*
X30106Y-47824D01*
G37*
G36*
X28769Y-46488D02*
X28345Y-46912D01*
X28232Y-46799D01*
X28656Y-46375D01*
X28769Y-46488D01*
X28769Y-46488D01*
G37*
G36*
X28547Y-46265D02*
X28122Y-46689D01*
X28009Y-46576D01*
X28434Y-46152D01*
X28547Y-46265D01*
X28547Y-46265D01*
G37*
G36*
X28324Y-46042D02*
X27900Y-46467D01*
X27787Y-46353D01*
X28211Y-45929D01*
X28324Y-46042D01*
X28324Y-46042D01*
G37*
G36*
X28101Y-45820D02*
X27677Y-46244D01*
X27564Y-46131D01*
X27988Y-45706D01*
X28101Y-45820D01*
X28101Y-45820D01*
G37*
G36*
X27878Y-45597D02*
X27454Y-46021D01*
X27341Y-45908D01*
X27765Y-45484D01*
X27878Y-45597D01*
X27878Y-45597D01*
G37*
G36*
X32174Y-43529D02*
X31750Y-43953D01*
X31637Y-43840D01*
X32061Y-43415D01*
X32174Y-43529D01*
X32174Y-43529D01*
G37*
G36*
X32397Y-43751D02*
X31973Y-44176D01*
X31859Y-44062D01*
X32284Y-43638D01*
X32397Y-43751D01*
X32397Y-43751D01*
G37*
G36*
X32620Y-43974D02*
X32195Y-44398D01*
X32082Y-44285D01*
X32506Y-43861D01*
X32620Y-43974D01*
X32620Y-43974D01*
G37*
G36*
X32842Y-44197D02*
X32418Y-44621D01*
X32305Y-44508D01*
X32729Y-44084D01*
X32842Y-44197D01*
X32842Y-44197D01*
G37*
G36*
X33065Y-44419D02*
X32641Y-44844D01*
X32528Y-44731D01*
X32952Y-44306D01*
X33065Y-44419D01*
X33065Y-44419D01*
G37*
G36*
X33288Y-44642D02*
X32864Y-45066D01*
X32750Y-44953D01*
X33175Y-44529D01*
X33288Y-44642D01*
X33288Y-44642D01*
G37*
G36*
X31951Y-43306D02*
X31527Y-43730D01*
X31414Y-43617D01*
X31838Y-43193D01*
X31951Y-43306D01*
X31951Y-43306D01*
G37*
G36*
X31729Y-43083D02*
X31304Y-43507D01*
X31191Y-43394D01*
X31616Y-42970D01*
X31729Y-43083D01*
X31729Y-43083D01*
G37*
G36*
X31506Y-42860D02*
X31082Y-43285D01*
X30969Y-43171D01*
X31393Y-42747D01*
X31506Y-42860D01*
X31506Y-42860D01*
G37*
G36*
X31283Y-42638D02*
X30859Y-43062D01*
X30746Y-42949D01*
X31170Y-42524D01*
X31283Y-42638D01*
X31283Y-42638D01*
G37*
G36*
X31060Y-42415D02*
X30636Y-42839D01*
X30523Y-42726D01*
X30947Y-42302D01*
X31060Y-42415D01*
X31060Y-42415D01*
G37*
G36*
X32174Y-47022D02*
X32061Y-47135D01*
X31637Y-46711D01*
X31750Y-46597D01*
X32174Y-47022D01*
X32174Y-47022D01*
G37*
G36*
X28992Y-43840D02*
X28879Y-43953D01*
X28455Y-43529D01*
X28568Y-43415D01*
X28992Y-43840D01*
X28992Y-43840D01*
G37*
G36*
X32397Y-46799D02*
X32284Y-46912D01*
X31859Y-46488D01*
X31973Y-46375D01*
X32397Y-46799D01*
X32397Y-46799D01*
G37*
G36*
X29215Y-43617D02*
X29102Y-43730D01*
X28678Y-43306D01*
X28791Y-43193D01*
X29215Y-43617D01*
X29215Y-43617D01*
G37*
G36*
X29438Y-43394D02*
X29325Y-43507D01*
X28900Y-43083D01*
X29013Y-42970D01*
X29438Y-43394D01*
X29438Y-43394D01*
G37*
G36*
X32620Y-46576D02*
X32506Y-46689D01*
X32082Y-46265D01*
X32195Y-46152D01*
X32620Y-46576D01*
X32620Y-46576D01*
G37*
G36*
X32842Y-46353D02*
X32729Y-46467D01*
X32305Y-46042D01*
X32418Y-45929D01*
X32842Y-46353D01*
X32842Y-46353D01*
G37*
G36*
X29660Y-43171D02*
X29547Y-43285D01*
X29123Y-42860D01*
X29236Y-42747D01*
X29660Y-43171D01*
X29660Y-43171D01*
G37*
G36*
X29883Y-42949D02*
X29770Y-43062D01*
X29346Y-42638D01*
X29459Y-42524D01*
X29883Y-42949D01*
X29883Y-42949D01*
G37*
G36*
X33065Y-46131D02*
X32952Y-46244D01*
X32528Y-45820D01*
X32641Y-45706D01*
X33065Y-46131D01*
X33065Y-46131D01*
G37*
G36*
X33288Y-45908D02*
X33175Y-46021D01*
X32750Y-45597D01*
X32864Y-45484D01*
X33288Y-45908D01*
X33288Y-45908D01*
G37*
G36*
X30106Y-42726D02*
X29993Y-42839D01*
X29568Y-42415D01*
X29682Y-42302D01*
X30106Y-42726D01*
X30106Y-42726D01*
G37*
G36*
X28769Y-44062D02*
X28656Y-44176D01*
X28232Y-43751D01*
X28345Y-43638D01*
X28769Y-44062D01*
X28769Y-44062D01*
G37*
G36*
X31951Y-47244D02*
X31838Y-47358D01*
X31414Y-46933D01*
X31527Y-46820D01*
X31951Y-47244D01*
X31951Y-47244D01*
G37*
G36*
X31729Y-47467D02*
X31616Y-47580D01*
X31191Y-47156D01*
X31304Y-47043D01*
X31729Y-47467D01*
X31729Y-47467D01*
G37*
G36*
X28547Y-44285D02*
X28434Y-44398D01*
X28009Y-43974D01*
X28122Y-43861D01*
X28547Y-44285D01*
X28547Y-44285D01*
G37*
G36*
X28324Y-44508D02*
X28211Y-44621D01*
X27787Y-44197D01*
X27900Y-44084D01*
X28324Y-44508D01*
X28324Y-44508D01*
G37*
G36*
X31506Y-47690D02*
X31393Y-47803D01*
X30969Y-47379D01*
X31082Y-47266D01*
X31506Y-47690D01*
X31506Y-47690D01*
G37*
G36*
X31283Y-47913D02*
X31170Y-48026D01*
X30746Y-47601D01*
X30859Y-47488D01*
X31283Y-47913D01*
X31283Y-47913D01*
G37*
G36*
X28101Y-44731D02*
X27988Y-44844D01*
X27564Y-44419D01*
X27677Y-44306D01*
X28101Y-44731D01*
X28101Y-44731D01*
G37*
G36*
X27878Y-44953D02*
X27765Y-45066D01*
X27341Y-44642D01*
X27454Y-44529D01*
X27878Y-44953D01*
X27878Y-44953D01*
G37*
G36*
X31060Y-48135D02*
X30947Y-48248D01*
X30523Y-47824D01*
X30636Y-47711D01*
X31060Y-48135D01*
X31060Y-48135D01*
G37*
G54D11*
X19862Y-40629D03*
X19862Y-40944D03*
X19862Y-41259D03*
X19862Y-41574D03*
X19862Y-41889D03*
X19862Y-42204D03*
X19862Y-42519D03*
X19862Y-42834D03*
X19862Y-44409D03*
X19862Y-44724D03*
X19862Y-45039D03*
X19862Y-45354D03*
X19862Y-45669D03*
X19862Y-45984D03*
X19862Y-46299D03*
X19862Y-46614D03*
X19862Y-46929D03*
X19862Y-47244D03*
X19862Y-47559D03*
X19862Y-47874D03*
X19862Y-48188D03*
X19862Y-48503D03*
X19862Y-48818D03*
X19862Y-49133D03*
X19862Y-49448D03*
X19862Y-49763D03*
G54D12*
X38228Y-50039D03*
X38228Y-40511D03*
G54D13*
X37370Y-44275D03*
G54D14*
X38370Y-44275D03*
X37370Y-45275D03*
X38370Y-45275D03*
X37370Y-46275D03*
X38370Y-46275D03*
G54D13*
X36527Y-40370D03*
G54D14*
X35527Y-40370D03*
X34527Y-40370D03*
X33527Y-40370D03*
X32527Y-40370D03*
X31527Y-40370D03*
X30527Y-40370D03*
X29527Y-40370D03*
X28527Y-40370D03*
X27527Y-40370D03*
X26527Y-40370D03*
X25527Y-40370D03*
X24527Y-40370D03*
X23527Y-40370D03*
X22527Y-40370D03*
G54D13*
X36527Y-50181D03*
G54D14*
X35527Y-50181D03*
X34527Y-50181D03*
X33527Y-50181D03*
X32527Y-50181D03*
X31527Y-50181D03*
X30527Y-50181D03*
X29527Y-50181D03*
X28527Y-50181D03*
X27527Y-50181D03*
X26527Y-50181D03*
X25527Y-50181D03*
X24527Y-50181D03*
G54D15*
X23464Y-43385D03*
X23464Y-42795D03*
G54D16*
X23208Y-44625D03*
X24508Y-44625D03*
G54D17*
X24232Y-42790D03*
X24232Y-43390D03*
G54D18*
X35270Y-48641D03*
X35870Y-48641D03*
X22347Y-47145D03*
X21747Y-47145D03*
X22347Y-47933D03*
X21747Y-47933D03*
G54D17*
X24232Y-41491D03*
X24232Y-42091D03*
X38464Y-42495D03*
X38464Y-43095D03*
X38464Y-48075D03*
X38464Y-47475D03*
X34251Y-41885D03*
X34251Y-42485D03*
G54D10*
G36*
X32661Y-47217D02*
X32979Y-47535D01*
X32802Y-47712D01*
X32484Y-47394D01*
X32661Y-47217D01*
X32661Y-47217D01*
G37*
G36*
X32236Y-47641D02*
X32555Y-47960D01*
X32378Y-48136D01*
X32060Y-47818D01*
X32236Y-47641D01*
X32236Y-47641D01*
G37*
G54D17*
X22401Y-44925D03*
X22401Y-44325D03*
G54D10*
G36*
X33628Y-43940D02*
X33310Y-44258D01*
X33133Y-44082D01*
X33452Y-43763D01*
X33628Y-43940D01*
X33628Y-43940D01*
G37*
G36*
X33204Y-43516D02*
X32886Y-43834D01*
X32709Y-43657D01*
X33027Y-43339D01*
X33204Y-43516D01*
X33204Y-43516D01*
G37*
G54D17*
X26633Y-45575D03*
X26633Y-44975D03*
G54D10*
G36*
X28018Y-48113D02*
X27700Y-48432D01*
X27523Y-48255D01*
X27841Y-47937D01*
X28018Y-48113D01*
X28018Y-48113D01*
G37*
G36*
X27594Y-47689D02*
X27276Y-48007D01*
X27099Y-47831D01*
X27417Y-47512D01*
X27594Y-47689D01*
X27594Y-47689D01*
G37*
G54D17*
X34251Y-43499D03*
X34251Y-44099D03*
G54D15*
X37519Y-48090D03*
X37519Y-47500D03*
X37500Y-43050D03*
X37500Y-42460D03*
X23484Y-42086D03*
X23484Y-41496D03*
G54D19*
X34744Y-47933D03*
X34744Y-45767D03*
X35925Y-47933D03*
X35925Y-45767D03*
G54D20*
X35944Y-42224D03*
X35944Y-43799D03*
X35000Y-43799D03*
X35000Y-42224D03*
G54D21*
X24607Y-45669D03*
X23857Y-45669D03*
G54D22*
X27653Y-46612D03*
X28539Y-45929D03*
X28932Y-46137D03*
X29272Y-46588D03*
X30236Y-46166D03*
X30729Y-46145D03*
X28877Y-47992D03*
X28307Y-48523D03*
X30826Y-49173D03*
X28523Y-49153D03*
X26318Y-49074D03*
X25157Y-47933D03*
X25551Y-47559D03*
X26811Y-48838D03*
X28917Y-48818D03*
X31200Y-48858D03*
X33129Y-41496D03*
X33364Y-41071D03*
X33546Y-44381D03*
X28736Y-42961D03*
X32128Y-42599D03*
X30736Y-48408D03*
X29256Y-43863D03*
X33999Y-46004D03*
X36647Y-47764D03*
X35493Y-46728D03*
X21909Y-49251D03*
X21909Y-45688D03*
X21909Y-48405D03*
X21929Y-43818D03*
X21220Y-40748D03*
X21929Y-42145D03*
X32967Y-47175D03*
X31194Y-46600D03*
X30964Y-41299D03*
X30157Y-41417D03*
X30157Y-42165D03*
X28759Y-44586D03*
X27421Y-46377D03*
X27007Y-41200D03*
X24862Y-41220D03*
X25787Y-41200D03*
X28129Y-41200D03*
X30669Y-45354D03*
X32913Y-48543D03*
X35492Y-43779D03*
X33287Y-43208D03*
X35905Y-42933D03*
X22755Y-50354D03*
X21259Y-49429D03*
X21299Y-47145D03*
X21259Y-47933D03*
X32086Y-44822D03*
X30078Y-43287D03*
X28070Y-45334D03*
X35334Y-48043D03*
X27262Y-44241D03*
G54D23*
X27752Y-46501D02*
X27752Y-46501D01*
X27752Y-46513D02*
X27752Y-46501D01*
X27653Y-46612D02*
X27752Y-46513D01*
X28055Y-46198D02*
X27752Y-46501D01*
X28539Y-46075D02*
X28581Y-46117D01*
X28539Y-45929D02*
X28539Y-46075D01*
X28278Y-46421D02*
X28581Y-46117D01*
X28804Y-46266D02*
X28804Y-46340D01*
X28932Y-46137D02*
X28804Y-46266D01*
X28501Y-46643D02*
X28804Y-46340D01*
X29051Y-46588D02*
X29272Y-46588D01*
X29027Y-46563D02*
X29051Y-46588D01*
X28723Y-46866D02*
X29027Y-46563D01*
X30043Y-46166D02*
X30236Y-46166D01*
X29375Y-46835D02*
X30043Y-46166D01*
X29201Y-46835D02*
X29375Y-46835D01*
X28946Y-47089D02*
X29201Y-46835D01*
X29472Y-47008D02*
X29472Y-47008D01*
X29866Y-47008D02*
X29472Y-47008D01*
X30729Y-46145D02*
X29866Y-47008D01*
X29169Y-47312D02*
X29472Y-47008D01*
X28110Y-48523D02*
X28307Y-48523D01*
X27771Y-48184D02*
X28110Y-48523D01*
X29335Y-47534D02*
X29392Y-47534D01*
X28877Y-47992D02*
X29335Y-47534D01*
X29392Y-47534D02*
X29392Y-47534D01*
X29392Y-47534D02*
X29392Y-47534D01*
X26852Y-48184D02*
X27771Y-48184D01*
X25527Y-49509D02*
X26852Y-48184D01*
X25527Y-50181D02*
X25527Y-49509D01*
X27771Y-48184D02*
X27771Y-48184D01*
X26397Y-49153D02*
X28523Y-49153D01*
X26318Y-49074D02*
X26397Y-49153D01*
X22347Y-47933D02*
X25157Y-47933D01*
X31850Y-47701D02*
X31752Y-47604D01*
X31850Y-48661D02*
X31850Y-47701D01*
X31338Y-49173D02*
X31850Y-48661D01*
X30826Y-49173D02*
X31338Y-49173D01*
X31752Y-47604D02*
X31655Y-47507D01*
X31752Y-47604D02*
X31460Y-47312D01*
X31460Y-47312D02*
X31460Y-47312D01*
X22559Y-47145D02*
X22347Y-47145D01*
X22736Y-47322D02*
X22559Y-47145D01*
X22952Y-47322D02*
X22736Y-47322D01*
X23169Y-47106D02*
X22952Y-47322D01*
X23622Y-47106D02*
X23169Y-47106D01*
X24055Y-47539D02*
X23622Y-47106D01*
X24488Y-47539D02*
X24055Y-47539D01*
X24862Y-47165D02*
X24488Y-47539D01*
X25157Y-47165D02*
X24862Y-47165D01*
X25551Y-47559D02*
X25157Y-47165D01*
X28897Y-48838D02*
X26811Y-48838D01*
X28917Y-48818D02*
X28897Y-48838D01*
X31220Y-48858D02*
X31200Y-48858D01*
X31555Y-48523D02*
X31220Y-48858D01*
X31555Y-47854D02*
X31555Y-48523D01*
X31237Y-47537D02*
X31555Y-47854D01*
X31237Y-47534D02*
X31237Y-47537D01*
X31237Y-47534D02*
X31237Y-47534D01*
X31237Y-43016D02*
X31255Y-43016D01*
X32775Y-41496D02*
X33129Y-41496D01*
X31255Y-43016D02*
X32775Y-41496D01*
X32737Y-41071D02*
X31318Y-42490D01*
X33364Y-41071D02*
X32737Y-41071D01*
X31015Y-42793D02*
X31318Y-42490D01*
X26527Y-42379D02*
X28278Y-44130D01*
X26527Y-40370D02*
X26527Y-42379D01*
X33322Y-44495D02*
X33322Y-44495D01*
X33433Y-44495D02*
X33322Y-44495D01*
X33546Y-44381D02*
X33433Y-44495D01*
X33019Y-44798D02*
X33322Y-44495D01*
X28840Y-42961D02*
X28866Y-42935D01*
X28736Y-42961D02*
X28840Y-42961D01*
X29169Y-43239D02*
X28866Y-42935D01*
X24232Y-41074D02*
X23527Y-40370D01*
X24232Y-41491D02*
X24232Y-41074D01*
X27833Y-44575D02*
X27529Y-44272D01*
X24748Y-41491D02*
X24232Y-41491D01*
X27252Y-43994D02*
X24748Y-41491D01*
X27365Y-43994D02*
X27252Y-43994D01*
X27509Y-44139D02*
X27365Y-43994D01*
X27509Y-44252D02*
X27509Y-44139D01*
X27529Y-44272D02*
X27509Y-44252D01*
X32100Y-42599D02*
X31460Y-43239D01*
X32128Y-42599D02*
X32100Y-42599D01*
X33630Y-40472D02*
X33527Y-40370D01*
X33630Y-41522D02*
X33630Y-40472D01*
X31994Y-43158D02*
X33630Y-41522D01*
X31986Y-43158D02*
X31994Y-43158D01*
X31986Y-43158D02*
X31986Y-43158D01*
X31683Y-43461D02*
X31986Y-43158D01*
X29704Y-41771D02*
X28937Y-42539D01*
X30940Y-41775D02*
X29704Y-41771D01*
X32527Y-40370D02*
X30940Y-41775D01*
X29392Y-43016D02*
X28937Y-42539D01*
X27752Y-43899D02*
X27752Y-44049D01*
X26097Y-42244D02*
X27752Y-43899D01*
X26097Y-40169D02*
X26097Y-42244D01*
X26325Y-39940D02*
X26097Y-40169D01*
X31098Y-39940D02*
X26325Y-39940D01*
X31527Y-40370D02*
X31098Y-39940D01*
X28055Y-44352D02*
X27752Y-44049D01*
X28871Y-43461D02*
X28946Y-43461D01*
X28478Y-43069D02*
X28871Y-43461D01*
X28478Y-42418D02*
X28478Y-43069D01*
X30527Y-40370D02*
X28478Y-42418D01*
X30971Y-48408D02*
X31095Y-48283D01*
X30736Y-48408D02*
X30971Y-48408D01*
X30792Y-47980D02*
X31095Y-48283D01*
X29151Y-43863D02*
X29027Y-43987D01*
X29256Y-43863D02*
X29151Y-43863D01*
X28723Y-43684D02*
X29027Y-43987D01*
X27527Y-42933D02*
X28501Y-43907D01*
X27527Y-40370D02*
X27527Y-42933D01*
X33374Y-46004D02*
X33322Y-46056D01*
X33999Y-46004D02*
X33374Y-46004D01*
X33019Y-45752D02*
X33322Y-46056D01*
X33143Y-46322D02*
X32796Y-45975D01*
X35588Y-46322D02*
X33143Y-46322D01*
X35975Y-46709D02*
X35588Y-46322D01*
X37555Y-46709D02*
X35975Y-46709D01*
X37870Y-46394D02*
X37555Y-46709D01*
X37870Y-45775D02*
X37870Y-46394D01*
X38370Y-45275D02*
X37870Y-45775D01*
X35876Y-48287D02*
X35870Y-48287D01*
X35925Y-48239D02*
X35876Y-48287D01*
X35870Y-48641D02*
X35870Y-48287D01*
X35925Y-47933D02*
X35925Y-48239D01*
X32099Y-48995D02*
X35870Y-48995D01*
X31027Y-50067D02*
X32099Y-48995D01*
X31027Y-50312D02*
X31027Y-50067D01*
X30729Y-50610D02*
X31027Y-50312D01*
X24956Y-50610D02*
X30729Y-50610D01*
X24527Y-50181D02*
X24956Y-50610D01*
X35870Y-48641D02*
X35870Y-48995D01*
X32796Y-44575D02*
X32493Y-44878D01*
X35925Y-45767D02*
X35925Y-46073D01*
X32890Y-45275D02*
X32493Y-44878D01*
X33504Y-45275D02*
X32890Y-45275D01*
X33986Y-45757D02*
X33504Y-45275D01*
X34101Y-45757D02*
X33986Y-45757D01*
X34417Y-46073D02*
X34101Y-45757D01*
X35925Y-46073D02*
X34417Y-46073D01*
X37168Y-46073D02*
X37370Y-46275D01*
X37168Y-46073D02*
X37168Y-46073D01*
X35925Y-46073D02*
X37168Y-46073D01*
X36419Y-47764D02*
X36250Y-47933D01*
X36647Y-47764D02*
X36419Y-47764D01*
X35925Y-47933D02*
X36250Y-47933D01*
X32706Y-46776D02*
X32351Y-46421D01*
X32921Y-46776D02*
X32706Y-46776D01*
X33645Y-47500D02*
X32921Y-46776D01*
X37519Y-47500D02*
X33645Y-47500D01*
X33027Y-46501D02*
X32877Y-46501D01*
X33254Y-46728D02*
X33027Y-46501D01*
X35493Y-46728D02*
X33254Y-46728D01*
X32574Y-46198D02*
X32877Y-46501D01*
X31095Y-42267D02*
X31095Y-42267D01*
X31245Y-42267D02*
X31095Y-42267D01*
X33090Y-40422D02*
X31245Y-42267D01*
X33090Y-40200D02*
X33090Y-40422D01*
X33349Y-39941D02*
X33090Y-40200D01*
X33724Y-39941D02*
X33349Y-39941D01*
X34027Y-40243D02*
X33724Y-39941D01*
X34027Y-40479D02*
X34027Y-40243D01*
X35258Y-41709D02*
X34027Y-40479D01*
X36203Y-41709D02*
X35258Y-41709D01*
X36309Y-41816D02*
X36203Y-41709D01*
X36309Y-41816D02*
X36309Y-41816D01*
X36569Y-41816D02*
X36309Y-41816D01*
X37214Y-42460D02*
X36569Y-41816D01*
X37500Y-42460D02*
X37214Y-42460D01*
X30792Y-42570D02*
X31095Y-42267D01*
G54D24*
X22908Y-44925D02*
X23208Y-44625D01*
X22401Y-44925D02*
X22908Y-44925D01*
X22386Y-44940D02*
X22401Y-44925D01*
X21909Y-44940D02*
X22386Y-44940D01*
X21909Y-48405D02*
X21909Y-49251D01*
X21929Y-41456D02*
X21929Y-42145D01*
X21220Y-40748D02*
X21929Y-41456D01*
X21909Y-43838D02*
X21909Y-44940D01*
X21929Y-43818D02*
X21909Y-43838D01*
X21909Y-44940D02*
X21909Y-45688D01*
X31015Y-47757D02*
X30691Y-47433D01*
X30363Y-47762D02*
X30691Y-47433D01*
X30363Y-50016D02*
X30363Y-47762D01*
X30527Y-50181D02*
X30363Y-50016D01*
X32522Y-47037D02*
X32128Y-46643D01*
X32829Y-47037D02*
X32522Y-47037D01*
X32967Y-47175D02*
X32829Y-47037D01*
G54D25*
X29837Y-42570D02*
X29837Y-42485D01*
X30275Y-41299D02*
X30964Y-41299D01*
X30157Y-41417D02*
X30275Y-41299D01*
X29837Y-42485D02*
X30157Y-42165D01*
X29015Y-44783D02*
X28956Y-44783D01*
X28956Y-44783D02*
X28759Y-44586D01*
X27833Y-45975D02*
X27823Y-45975D01*
X27823Y-45975D02*
X27421Y-46377D01*
X24862Y-41220D02*
X24881Y-41200D01*
X24881Y-41200D02*
X25787Y-41200D01*
X31442Y-45930D02*
X31245Y-45930D01*
X31245Y-45930D02*
X30669Y-45354D01*
X32307Y-47889D02*
X32307Y-47937D01*
X32307Y-47937D02*
X32913Y-48543D01*
X34251Y-44099D02*
X34700Y-44099D01*
X34700Y-44099D02*
X35000Y-43799D01*
X35000Y-45511D02*
X34744Y-45767D01*
X35000Y-43799D02*
X35000Y-45511D01*
X23227Y-46299D02*
X23857Y-45669D01*
X20846Y-46299D02*
X23227Y-46299D01*
G54D24*
X19862Y-46299D02*
X20846Y-46299D01*
G54D25*
X28366Y-45442D02*
X27833Y-45975D01*
X28366Y-45059D02*
X28366Y-45442D01*
X35472Y-43799D02*
X35492Y-43779D01*
X35000Y-43799D02*
X35472Y-43799D01*
X30174Y-42890D02*
X30541Y-43257D01*
X30157Y-42890D02*
X30174Y-42890D01*
X29837Y-42570D02*
X30157Y-42890D01*
X35944Y-42893D02*
X35944Y-42224D01*
X35905Y-42933D02*
X35944Y-42893D01*
X22185Y-50354D02*
X22755Y-50354D01*
X21259Y-49429D02*
X22185Y-50354D01*
G54D24*
X20767Y-47244D02*
X20787Y-47224D01*
X19862Y-47244D02*
X20767Y-47244D01*
X20807Y-45039D02*
X20826Y-45059D01*
X19862Y-45039D02*
X20807Y-45039D01*
X20807Y-45984D02*
X20826Y-45964D01*
X19862Y-45984D02*
X20807Y-45984D01*
X20826Y-41889D02*
X20846Y-41909D01*
X19862Y-41889D02*
X20826Y-41889D01*
G54D25*
X27854Y-45059D02*
X28366Y-45059D01*
X27610Y-44814D02*
X27854Y-45059D01*
X27610Y-44798D02*
X27610Y-44814D01*
X27319Y-44507D02*
X27610Y-44798D01*
X26968Y-44507D02*
X27319Y-44507D01*
X26633Y-44842D02*
X26968Y-44507D01*
X26633Y-44975D02*
X26633Y-44842D01*
X28740Y-45059D02*
X29015Y-44783D01*
X29015Y-44783D02*
X30541Y-43257D01*
X28366Y-45059D02*
X28740Y-45059D01*
X32032Y-44448D02*
X31732Y-44448D01*
X32351Y-44129D02*
X32032Y-44448D01*
X32894Y-43587D02*
X32351Y-44129D01*
X32957Y-43587D02*
X32894Y-43587D01*
X32957Y-43538D02*
X32957Y-43587D01*
X33287Y-43208D02*
X32957Y-43538D01*
X31732Y-44448D02*
X30541Y-43257D01*
X31732Y-45640D02*
X31442Y-45930D01*
X31442Y-45930D02*
X30989Y-46383D01*
X31732Y-44448D02*
X31732Y-45640D01*
X30989Y-46383D02*
X29614Y-47757D01*
X32307Y-47701D02*
X32307Y-47889D01*
X31695Y-47089D02*
X32307Y-47701D01*
X31683Y-47089D02*
X31695Y-47089D01*
X30989Y-46395D02*
X31194Y-46600D01*
X31194Y-46600D02*
X31683Y-47089D01*
X30989Y-46383D02*
X30989Y-46395D01*
X32421Y-47933D02*
X34744Y-47933D01*
X32377Y-47889D02*
X32421Y-47933D01*
X32307Y-47889D02*
X32377Y-47889D01*
X32307Y-47889D02*
X32307Y-47889D01*
X23857Y-43765D02*
X24232Y-43390D01*
X23857Y-45669D02*
X23857Y-43765D01*
X25048Y-43390D02*
X26633Y-44975D01*
X24232Y-43390D02*
X25048Y-43390D01*
X20701Y-43082D02*
X20452Y-42834D01*
X21510Y-43082D02*
X20701Y-43082D01*
X19862Y-42834D02*
X20452Y-42834D01*
G54D23*
X34251Y-43499D02*
X34168Y-43499D01*
X33102Y-42933D02*
X32128Y-43907D01*
X33602Y-42933D02*
X33102Y-42933D01*
X34168Y-43499D02*
X33602Y-42933D01*
X35944Y-43799D02*
X35944Y-43681D01*
X34562Y-43188D02*
X34251Y-43499D01*
X35452Y-43188D02*
X34562Y-43188D01*
X35944Y-43681D02*
X35452Y-43188D01*
X34251Y-41885D02*
X34660Y-41885D01*
X34660Y-41885D02*
X35000Y-42224D01*
X31905Y-43684D02*
X31905Y-43664D01*
X33685Y-41885D02*
X34251Y-41885D01*
X31905Y-43664D02*
X33685Y-41885D01*
X21299Y-47145D02*
X21747Y-47145D01*
X23775Y-42091D02*
X23770Y-42086D01*
X24232Y-42091D02*
X23775Y-42091D01*
X23484Y-42086D02*
X23770Y-42086D01*
X38110Y-42726D02*
X37785Y-43050D01*
X38110Y-42495D02*
X38110Y-42726D01*
X37500Y-43050D02*
X37785Y-43050D01*
X38464Y-42495D02*
X38110Y-42495D01*
X37820Y-48075D02*
X37805Y-48090D01*
X38464Y-48075D02*
X37820Y-48075D01*
X37519Y-48090D02*
X37805Y-48090D01*
X21259Y-47933D02*
X21747Y-47933D01*
X32731Y-47465D02*
X32731Y-47464D01*
X31905Y-46866D02*
X32153Y-47114D01*
X32153Y-47114D02*
X31905Y-46866D01*
X32153Y-47114D02*
X32153Y-47114D01*
X32628Y-47362D02*
X32731Y-47464D01*
X32401Y-47362D02*
X32628Y-47362D01*
X32153Y-47114D02*
X32401Y-47362D01*
X23755Y-42790D02*
X23750Y-42795D01*
X24232Y-42790D02*
X23755Y-42790D01*
X23464Y-42795D02*
X23750Y-42795D01*
G54D24*
X24508Y-45570D02*
X24607Y-45669D01*
X24508Y-44625D02*
X24508Y-45570D01*
X26540Y-45669D02*
X26633Y-45575D01*
X24607Y-45669D02*
X26540Y-45669D01*
X26909Y-46043D02*
X26929Y-46043D01*
X26633Y-45767D02*
X26909Y-46043D01*
X26633Y-45575D02*
X26633Y-45767D01*
X29614Y-42823D02*
X29614Y-42793D01*
X30078Y-43287D02*
X29614Y-42823D01*
X29614Y-42793D02*
X29614Y-42793D01*
X33381Y-44011D02*
X33381Y-44011D01*
X38370Y-43472D02*
X38370Y-44275D01*
X38464Y-43377D02*
X38370Y-43472D01*
X38464Y-43095D02*
X38464Y-43377D01*
X29837Y-47980D02*
X29837Y-47980D01*
X32574Y-44352D02*
X32574Y-44352D01*
X32915Y-44011D02*
X32574Y-44352D01*
X33381Y-44011D02*
X32915Y-44011D01*
X32556Y-44352D02*
X32086Y-44822D01*
X32574Y-44352D02*
X32556Y-44352D01*
X27610Y-45752D02*
X27610Y-45752D01*
X27319Y-46043D02*
X27610Y-45752D01*
X26929Y-46043D02*
X27319Y-46043D01*
X27972Y-45413D02*
X28070Y-45334D01*
X27632Y-45752D02*
X27972Y-45413D01*
X27610Y-45752D02*
X27632Y-45752D01*
X28759Y-48346D02*
X29273Y-48346D01*
X26929Y-46515D02*
X28759Y-48346D01*
X26929Y-46043D02*
X26929Y-46515D01*
X29471Y-48346D02*
X29837Y-47980D01*
X29273Y-48346D02*
X29471Y-48346D01*
X28167Y-49540D02*
X27527Y-50181D01*
X28599Y-49540D02*
X28167Y-49540D01*
X29273Y-48867D02*
X28599Y-49540D01*
X29273Y-48346D02*
X29273Y-48867D01*
X27527Y-50181D02*
X26527Y-50181D01*
X35334Y-48195D02*
X35270Y-48259D01*
X35334Y-48043D02*
X35334Y-48195D01*
X35270Y-48641D02*
X35270Y-48259D01*
X38828Y-44733D02*
X38370Y-44275D01*
X38828Y-46829D02*
X38828Y-44733D01*
X38464Y-47192D02*
X38828Y-46829D01*
X38464Y-47475D02*
X38464Y-47192D01*
X23779Y-43232D02*
X23779Y-43385D01*
X23932Y-43079D02*
X23779Y-43232D01*
X25398Y-43079D02*
X23932Y-43079D01*
X26560Y-44241D02*
X25398Y-43079D01*
X27262Y-44241D02*
X26560Y-44241D01*
X23464Y-43385D02*
X23779Y-43385D01*
G54D10*
G36*
X25797Y-42115D02*
X24960Y-41279D01*
X24863Y-41214D01*
X24748Y-41191D01*
X24635Y-41191D01*
X24599Y-41154D01*
X24532Y-41126D01*
X24532Y-41074D01*
X24509Y-40959D01*
X24482Y-40920D01*
X24636Y-40920D01*
X24838Y-40836D01*
X24993Y-40682D01*
X25027Y-40600D01*
X25061Y-40681D01*
X25215Y-40836D01*
X25417Y-40919D01*
X25636Y-40920D01*
X25797Y-40853D01*
X25797Y-42115D01*
X25797Y-42115D01*
G37*
G54D23*
X25797Y-42115D02*
X24960Y-41279D01*
X24863Y-41214D01*
X24748Y-41191D01*
X24635Y-41191D01*
X24599Y-41154D01*
X24532Y-41126D01*
X24532Y-41074D01*
X24509Y-40959D01*
X24482Y-40920D01*
X24636Y-40920D01*
X24838Y-40836D01*
X24993Y-40682D01*
X25027Y-40600D01*
X25061Y-40681D01*
X25215Y-40836D01*
X25417Y-40919D01*
X25636Y-40920D01*
X25797Y-40853D01*
X25797Y-42115D01*
G54D10*
G36*
X27227Y-42654D02*
X26827Y-42254D01*
X26827Y-40841D01*
X26838Y-40836D01*
X26993Y-40682D01*
X27027Y-40600D01*
X27061Y-40681D01*
X27215Y-40836D01*
X27227Y-40841D01*
X27227Y-42654D01*
X27227Y-42654D01*
G37*
G54D23*
X27227Y-42654D02*
X26827Y-42254D01*
X26827Y-40841D01*
X26838Y-40836D01*
X26993Y-40682D01*
X27027Y-40600D01*
X27061Y-40681D01*
X27215Y-40836D01*
X27227Y-40841D01*
X27227Y-42654D01*
G54D10*
G36*
X29553Y-40920D02*
X28266Y-42206D01*
X28201Y-42303D01*
X28178Y-42418D01*
X28178Y-43069D01*
X28201Y-43183D01*
X27827Y-42809D01*
X27827Y-40841D01*
X27838Y-40836D01*
X27993Y-40682D01*
X28027Y-40600D01*
X28061Y-40681D01*
X28215Y-40836D01*
X28417Y-40919D01*
X28636Y-40920D01*
X28838Y-40836D01*
X28993Y-40682D01*
X29027Y-40600D01*
X29061Y-40681D01*
X29215Y-40836D01*
X29417Y-40919D01*
X29553Y-40920D01*
X29553Y-40920D01*
G37*
G54D23*
X29553Y-40920D02*
X28266Y-42206D01*
X28201Y-42303D01*
X28178Y-42418D01*
X28178Y-43069D01*
X28201Y-43183D01*
X27827Y-42809D01*
X27827Y-40841D01*
X27838Y-40836D01*
X27993Y-40682D01*
X28027Y-40600D01*
X28061Y-40681D01*
X28215Y-40836D01*
X28417Y-40919D01*
X28636Y-40920D01*
X28838Y-40836D01*
X28993Y-40682D01*
X29027Y-40600D01*
X29061Y-40681D01*
X29215Y-40836D01*
X29417Y-40919D01*
X29553Y-40920D01*
G54D10*
G36*
X30034Y-49934D02*
X30030Y-49944D01*
X30008Y-49893D01*
X29913Y-49865D01*
X29842Y-49936D01*
X29842Y-49795D01*
X29815Y-49699D01*
X29609Y-49626D01*
X29390Y-49637D01*
X29239Y-49699D01*
X29212Y-49795D01*
X29527Y-50110D01*
X29842Y-49795D01*
X29842Y-49936D01*
X29598Y-50181D01*
X29603Y-50186D01*
X29533Y-50257D01*
X29527Y-50251D01*
X29521Y-50257D01*
X29451Y-50186D01*
X29456Y-50181D01*
X29141Y-49865D01*
X29046Y-49893D01*
X29028Y-49941D01*
X29008Y-49893D01*
X28913Y-49865D01*
X28598Y-50181D01*
X28603Y-50186D01*
X28533Y-50257D01*
X28527Y-50251D01*
X28521Y-50257D01*
X28451Y-50186D01*
X28456Y-50181D01*
X28451Y-50175D01*
X28521Y-50104D01*
X28527Y-50110D01*
X28842Y-49795D01*
X28835Y-49769D01*
X29505Y-49099D01*
X29576Y-48992D01*
X29576Y-48992D01*
X29601Y-48867D01*
X29601Y-48647D01*
X29601Y-48647D01*
X29703Y-48578D01*
X29820Y-48462D01*
X29823Y-48461D01*
X29893Y-48390D01*
X30034Y-48250D01*
X30034Y-49934D01*
X30034Y-49934D01*
G37*
G54D23*
X30034Y-49934D02*
X30030Y-49944D01*
X30008Y-49893D01*
X29913Y-49865D01*
X29842Y-49936D01*
X29842Y-49795D01*
X29815Y-49699D01*
X29609Y-49626D01*
X29390Y-49637D01*
X29239Y-49699D01*
X29212Y-49795D01*
X29527Y-50110D01*
X29842Y-49795D01*
X29842Y-49936D01*
X29598Y-50181D01*
X29603Y-50186D01*
X29533Y-50257D01*
X29527Y-50251D01*
X29521Y-50257D01*
X29451Y-50186D01*
X29456Y-50181D01*
X29141Y-49865D01*
X29046Y-49893D01*
X29028Y-49941D01*
X29008Y-49893D01*
X28913Y-49865D01*
X28598Y-50181D01*
X28603Y-50186D01*
X28533Y-50257D01*
X28527Y-50251D01*
X28521Y-50257D01*
X28451Y-50186D01*
X28456Y-50181D01*
X28451Y-50175D01*
X28521Y-50104D01*
X28527Y-50110D01*
X28842Y-49795D01*
X28835Y-49769D01*
X29505Y-49099D01*
X29576Y-48992D01*
X29576Y-48992D01*
X29601Y-48867D01*
X29601Y-48647D01*
X29601Y-48647D01*
X29703Y-48578D01*
X29820Y-48462D01*
X29823Y-48461D01*
X29893Y-48390D01*
X30034Y-48250D01*
X30034Y-49934D01*
G54D10*
G36*
X30841Y-42075D02*
X30806Y-42090D01*
X30736Y-42160D01*
X30314Y-42581D01*
X30150Y-42417D01*
X30062Y-42417D01*
X29901Y-42577D01*
X29906Y-42583D01*
X29889Y-42601D01*
X29807Y-42519D01*
X29825Y-42501D01*
X29830Y-42507D01*
X29991Y-42346D01*
X29991Y-42258D01*
X29823Y-42090D01*
X29814Y-42086D01*
X29828Y-42072D01*
X30841Y-42075D01*
X30841Y-42075D01*
G37*
G54D23*
X30841Y-42075D02*
X30806Y-42090D01*
X30736Y-42160D01*
X30314Y-42581D01*
X30150Y-42417D01*
X30062Y-42417D01*
X29901Y-42577D01*
X29906Y-42583D01*
X29889Y-42601D01*
X29807Y-42519D01*
X29825Y-42501D01*
X29830Y-42507D01*
X29991Y-42346D01*
X29991Y-42258D01*
X29823Y-42090D01*
X29814Y-42086D01*
X29828Y-42072D01*
X30841Y-42075D01*
G54D10*
G36*
X31455Y-40920D02*
X30827Y-41475D01*
X29849Y-41472D01*
X30406Y-40915D01*
X30417Y-40919D01*
X30636Y-40920D01*
X30838Y-40836D01*
X30993Y-40682D01*
X31027Y-40600D01*
X31061Y-40681D01*
X31215Y-40836D01*
X31417Y-40919D01*
X31455Y-40920D01*
X31455Y-40920D01*
G37*
G54D23*
X31455Y-40920D02*
X30827Y-41475D01*
X29849Y-41472D01*
X30406Y-40915D01*
X30417Y-40919D01*
X30636Y-40920D01*
X30838Y-40836D01*
X30993Y-40682D01*
X31027Y-40600D01*
X31061Y-40681D01*
X31215Y-40836D01*
X31417Y-40919D01*
X31455Y-40920D01*
G54D10*
G36*
X32592Y-45402D02*
X32539Y-45455D01*
X32527Y-45483D01*
X32499Y-45494D01*
X32429Y-45565D01*
X32316Y-45678D01*
X32304Y-45706D01*
X32277Y-45717D01*
X32206Y-45787D01*
X32093Y-45901D01*
X32082Y-45928D01*
X32054Y-45940D01*
X31984Y-46010D01*
X31870Y-46123D01*
X31859Y-46151D01*
X31831Y-46163D01*
X31761Y-46233D01*
X31648Y-46346D01*
X31636Y-46374D01*
X31608Y-46385D01*
X31538Y-46456D01*
X31425Y-46569D01*
X31413Y-46597D01*
X31386Y-46608D01*
X31366Y-46627D01*
X31366Y-46716D01*
X31387Y-46736D01*
X31387Y-46760D01*
X31410Y-46816D01*
X31354Y-46793D01*
X31330Y-46793D01*
X31310Y-46772D01*
X31221Y-46772D01*
X31202Y-46792D01*
X31191Y-46819D01*
X31163Y-46831D01*
X31093Y-46901D01*
X30979Y-47014D01*
X30968Y-47042D01*
X30940Y-47054D01*
X30870Y-47124D01*
X30845Y-47149D01*
X30817Y-47130D01*
X30691Y-47105D01*
X30586Y-47126D01*
X30565Y-47130D01*
X30459Y-47201D01*
X30147Y-47512D01*
X30135Y-47499D01*
X30107Y-47488D01*
X30095Y-47460D01*
X30076Y-47441D01*
X29987Y-47441D01*
X29967Y-47461D01*
X29943Y-47461D01*
X29887Y-47484D01*
X29910Y-47429D01*
X29910Y-47405D01*
X29931Y-47384D01*
X29931Y-47296D01*
X29931Y-47295D01*
X29980Y-47285D01*
X29980Y-47285D01*
X30078Y-47220D01*
X30785Y-46513D01*
X30802Y-46513D01*
X30937Y-46458D01*
X31041Y-46354D01*
X31097Y-46219D01*
X31097Y-46072D01*
X31041Y-45937D01*
X30938Y-45833D01*
X30802Y-45777D01*
X30656Y-45777D01*
X30520Y-45833D01*
X30472Y-45882D01*
X30444Y-45855D01*
X30309Y-45798D01*
X30163Y-45798D01*
X30027Y-45854D01*
X30008Y-45873D01*
X29928Y-45889D01*
X29831Y-45954D01*
X29495Y-46290D01*
X29481Y-46276D01*
X29346Y-46219D01*
X29297Y-46219D01*
X29300Y-46211D01*
X29300Y-46065D01*
X29245Y-45929D01*
X29141Y-45826D01*
X29006Y-45769D01*
X28871Y-45769D01*
X28851Y-45721D01*
X28748Y-45617D01*
X28613Y-45561D01*
X28466Y-45561D01*
X28331Y-45617D01*
X28289Y-45659D01*
X28249Y-45659D01*
X28279Y-45646D01*
X28382Y-45543D01*
X28438Y-45408D01*
X28439Y-45261D01*
X28383Y-45126D01*
X28279Y-45022D01*
X28197Y-44988D01*
X28200Y-44986D01*
X28313Y-44872D01*
X28325Y-44844D01*
X28352Y-44833D01*
X28423Y-44763D01*
X28536Y-44650D01*
X28547Y-44622D01*
X28575Y-44610D01*
X28645Y-44540D01*
X28759Y-44427D01*
X28770Y-44399D01*
X28798Y-44388D01*
X28868Y-44317D01*
X28919Y-44266D01*
X29027Y-44287D01*
X29142Y-44265D01*
X29192Y-44231D01*
X29329Y-44231D01*
X29464Y-44175D01*
X29567Y-44072D01*
X29624Y-43936D01*
X29624Y-43790D01*
X29568Y-43655D01*
X29549Y-43636D01*
X29649Y-43536D01*
X29661Y-43508D01*
X29689Y-43497D01*
X29744Y-43442D01*
X29766Y-43495D01*
X29869Y-43599D01*
X30005Y-43655D01*
X30151Y-43655D01*
X30286Y-43599D01*
X30390Y-43496D01*
X30446Y-43360D01*
X30446Y-43214D01*
X30390Y-43079D01*
X30287Y-42975D01*
X30233Y-42953D01*
X30261Y-42924D01*
X30224Y-42887D01*
X30299Y-42887D01*
X30314Y-42871D01*
X30381Y-42938D01*
X30494Y-43051D01*
X30522Y-43063D01*
X30534Y-43090D01*
X30604Y-43161D01*
X30717Y-43274D01*
X30745Y-43285D01*
X30756Y-43313D01*
X30827Y-43383D01*
X30940Y-43496D01*
X30968Y-43508D01*
X30979Y-43536D01*
X31049Y-43606D01*
X31163Y-43719D01*
X31191Y-43731D01*
X31202Y-43758D01*
X31272Y-43829D01*
X31385Y-43942D01*
X31413Y-43953D01*
X31425Y-43981D01*
X31495Y-44051D01*
X31608Y-44165D01*
X31636Y-44176D01*
X31647Y-44204D01*
X31718Y-44274D01*
X31831Y-44387D01*
X31859Y-44399D01*
X31870Y-44427D01*
X31890Y-44446D01*
X31964Y-44446D01*
X31927Y-44483D01*
X31931Y-44488D01*
X31878Y-44510D01*
X31774Y-44614D01*
X31718Y-44749D01*
X31718Y-44895D01*
X31774Y-45031D01*
X31877Y-45134D01*
X32013Y-45190D01*
X32159Y-45191D01*
X32294Y-45135D01*
X32310Y-45119D01*
X32592Y-45402D01*
X32592Y-45402D01*
G37*
G54D23*
X32592Y-45402D02*
X32539Y-45455D01*
X32527Y-45483D01*
X32499Y-45494D01*
X32429Y-45565D01*
X32316Y-45678D01*
X32304Y-45706D01*
X32277Y-45717D01*
X32206Y-45787D01*
X32093Y-45901D01*
X32082Y-45928D01*
X32054Y-45940D01*
X31984Y-46010D01*
X31870Y-46123D01*
X31859Y-46151D01*
X31831Y-46163D01*
X31761Y-46233D01*
X31648Y-46346D01*
X31636Y-46374D01*
X31608Y-46385D01*
X31538Y-46456D01*
X31425Y-46569D01*
X31413Y-46597D01*
X31386Y-46608D01*
X31366Y-46627D01*
X31366Y-46716D01*
X31387Y-46736D01*
X31387Y-46760D01*
X31410Y-46816D01*
X31354Y-46793D01*
X31330Y-46793D01*
X31310Y-46772D01*
X31221Y-46772D01*
X31202Y-46792D01*
X31191Y-46819D01*
X31163Y-46831D01*
X31093Y-46901D01*
X30979Y-47014D01*
X30968Y-47042D01*
X30940Y-47054D01*
X30870Y-47124D01*
X30845Y-47149D01*
X30817Y-47130D01*
X30691Y-47105D01*
X30586Y-47126D01*
X30565Y-47130D01*
X30459Y-47201D01*
X30147Y-47512D01*
X30135Y-47499D01*
X30107Y-47488D01*
X30095Y-47460D01*
X30076Y-47441D01*
X29987Y-47441D01*
X29967Y-47461D01*
X29943Y-47461D01*
X29887Y-47484D01*
X29910Y-47429D01*
X29910Y-47405D01*
X29931Y-47384D01*
X29931Y-47296D01*
X29931Y-47295D01*
X29980Y-47285D01*
X29980Y-47285D01*
X30078Y-47220D01*
X30785Y-46513D01*
X30802Y-46513D01*
X30937Y-46458D01*
X31041Y-46354D01*
X31097Y-46219D01*
X31097Y-46072D01*
X31041Y-45937D01*
X30938Y-45833D01*
X30802Y-45777D01*
X30656Y-45777D01*
X30520Y-45833D01*
X30472Y-45882D01*
X30444Y-45855D01*
X30309Y-45798D01*
X30163Y-45798D01*
X30027Y-45854D01*
X30008Y-45873D01*
X29928Y-45889D01*
X29831Y-45954D01*
X29495Y-46290D01*
X29481Y-46276D01*
X29346Y-46219D01*
X29297Y-46219D01*
X29300Y-46211D01*
X29300Y-46065D01*
X29245Y-45929D01*
X29141Y-45826D01*
X29006Y-45769D01*
X28871Y-45769D01*
X28851Y-45721D01*
X28748Y-45617D01*
X28613Y-45561D01*
X28466Y-45561D01*
X28331Y-45617D01*
X28289Y-45659D01*
X28249Y-45659D01*
X28279Y-45646D01*
X28382Y-45543D01*
X28438Y-45408D01*
X28439Y-45261D01*
X28383Y-45126D01*
X28279Y-45022D01*
X28197Y-44988D01*
X28200Y-44986D01*
X28313Y-44872D01*
X28325Y-44844D01*
X28352Y-44833D01*
X28423Y-44763D01*
X28536Y-44650D01*
X28547Y-44622D01*
X28575Y-44610D01*
X28645Y-44540D01*
X28759Y-44427D01*
X28770Y-44399D01*
X28798Y-44388D01*
X28868Y-44317D01*
X28919Y-44266D01*
X29027Y-44287D01*
X29142Y-44265D01*
X29192Y-44231D01*
X29329Y-44231D01*
X29464Y-44175D01*
X29567Y-44072D01*
X29624Y-43936D01*
X29624Y-43790D01*
X29568Y-43655D01*
X29549Y-43636D01*
X29649Y-43536D01*
X29661Y-43508D01*
X29689Y-43497D01*
X29744Y-43442D01*
X29766Y-43495D01*
X29869Y-43599D01*
X30005Y-43655D01*
X30151Y-43655D01*
X30286Y-43599D01*
X30390Y-43496D01*
X30446Y-43360D01*
X30446Y-43214D01*
X30390Y-43079D01*
X30287Y-42975D01*
X30233Y-42953D01*
X30261Y-42924D01*
X30224Y-42887D01*
X30299Y-42887D01*
X30314Y-42871D01*
X30381Y-42938D01*
X30494Y-43051D01*
X30522Y-43063D01*
X30534Y-43090D01*
X30604Y-43161D01*
X30717Y-43274D01*
X30745Y-43285D01*
X30756Y-43313D01*
X30827Y-43383D01*
X30940Y-43496D01*
X30968Y-43508D01*
X30979Y-43536D01*
X31049Y-43606D01*
X31163Y-43719D01*
X31191Y-43731D01*
X31202Y-43758D01*
X31272Y-43829D01*
X31385Y-43942D01*
X31413Y-43953D01*
X31425Y-43981D01*
X31495Y-44051D01*
X31608Y-44165D01*
X31636Y-44176D01*
X31647Y-44204D01*
X31718Y-44274D01*
X31831Y-44387D01*
X31859Y-44399D01*
X31870Y-44427D01*
X31890Y-44446D01*
X31964Y-44446D01*
X31927Y-44483D01*
X31931Y-44488D01*
X31878Y-44510D01*
X31774Y-44614D01*
X31718Y-44749D01*
X31718Y-44895D01*
X31774Y-45031D01*
X31877Y-45134D01*
X32013Y-45190D01*
X32159Y-45191D01*
X32294Y-45135D01*
X32310Y-45119D01*
X32592Y-45402D01*
G54D10*
G36*
X33848Y-43799D02*
X33843Y-43804D01*
X33840Y-43799D01*
X33770Y-43728D01*
X33593Y-43552D01*
X33502Y-43513D01*
X33454Y-43513D01*
X33454Y-43466D01*
X33416Y-43374D01*
X33372Y-43330D01*
X33284Y-43330D01*
X33027Y-43587D01*
X33033Y-43592D01*
X32962Y-43663D01*
X32957Y-43657D01*
X32951Y-43663D01*
X32880Y-43592D01*
X32886Y-43587D01*
X32880Y-43581D01*
X32951Y-43510D01*
X32957Y-43516D01*
X33213Y-43260D01*
X33213Y-43246D01*
X33227Y-43233D01*
X33478Y-43233D01*
X33776Y-43531D01*
X33776Y-43673D01*
X33814Y-43765D01*
X33848Y-43799D01*
X33848Y-43799D01*
G37*
G54D23*
X33848Y-43799D02*
X33843Y-43804D01*
X33840Y-43799D01*
X33770Y-43728D01*
X33593Y-43552D01*
X33502Y-43513D01*
X33454Y-43513D01*
X33454Y-43466D01*
X33416Y-43374D01*
X33372Y-43330D01*
X33284Y-43330D01*
X33027Y-43587D01*
X33033Y-43592D01*
X32962Y-43663D01*
X32957Y-43657D01*
X32951Y-43663D01*
X32880Y-43592D01*
X32886Y-43587D01*
X32880Y-43581D01*
X32951Y-43510D01*
X32957Y-43516D01*
X33213Y-43260D01*
X33213Y-43246D01*
X33227Y-43233D01*
X33478Y-43233D01*
X33776Y-43531D01*
X33776Y-43673D01*
X33814Y-43765D01*
X33848Y-43799D01*
G54D10*
G36*
X34898Y-48360D02*
X34895Y-48366D01*
X34895Y-48466D01*
X34895Y-48695D01*
X34694Y-48695D01*
X34694Y-48297D01*
X34694Y-47983D01*
X34359Y-47983D01*
X34297Y-48045D01*
X34297Y-48159D01*
X34335Y-48251D01*
X34405Y-48322D01*
X34497Y-48360D01*
X34596Y-48360D01*
X34631Y-48360D01*
X34694Y-48297D01*
X34694Y-48695D01*
X32143Y-48695D01*
X32150Y-48661D01*
X32150Y-48661D01*
X32150Y-48262D01*
X32166Y-48278D01*
X32236Y-48348D01*
X32328Y-48386D01*
X32428Y-48386D01*
X32520Y-48348D01*
X32563Y-48304D01*
X32563Y-48216D01*
X32307Y-47960D01*
X32301Y-47965D01*
X32231Y-47894D01*
X32236Y-47889D01*
X32231Y-47883D01*
X32301Y-47813D01*
X32307Y-47818D01*
X32313Y-47813D01*
X32383Y-47883D01*
X32378Y-47889D01*
X32634Y-48145D01*
X32722Y-48145D01*
X32766Y-48101D01*
X32804Y-48009D01*
X32805Y-47962D01*
X32852Y-47962D01*
X32943Y-47924D01*
X33014Y-47854D01*
X33191Y-47677D01*
X33229Y-47585D01*
X33229Y-47508D01*
X33433Y-47712D01*
X33433Y-47712D01*
X33530Y-47777D01*
X33645Y-47800D01*
X34297Y-47800D01*
X34297Y-47820D01*
X34359Y-47883D01*
X34694Y-47883D01*
X34694Y-47875D01*
X34794Y-47875D01*
X34794Y-47883D01*
X34801Y-47883D01*
X34801Y-47983D01*
X34794Y-47983D01*
X34794Y-48297D01*
X34856Y-48360D01*
X34891Y-48360D01*
X34898Y-48360D01*
X34898Y-48360D01*
G37*
G54D23*
X34898Y-48360D02*
X34895Y-48366D01*
X34895Y-48466D01*
X34895Y-48695D01*
X34694Y-48695D01*
X34694Y-48297D01*
X34694Y-47983D01*
X34359Y-47983D01*
X34297Y-48045D01*
X34297Y-48159D01*
X34335Y-48251D01*
X34405Y-48322D01*
X34497Y-48360D01*
X34596Y-48360D01*
X34631Y-48360D01*
X34694Y-48297D01*
X34694Y-48695D01*
X32143Y-48695D01*
X32150Y-48661D01*
X32150Y-48661D01*
X32150Y-48262D01*
X32166Y-48278D01*
X32236Y-48348D01*
X32328Y-48386D01*
X32428Y-48386D01*
X32520Y-48348D01*
X32563Y-48304D01*
X32563Y-48216D01*
X32307Y-47960D01*
X32301Y-47965D01*
X32231Y-47894D01*
X32236Y-47889D01*
X32231Y-47883D01*
X32301Y-47813D01*
X32307Y-47818D01*
X32313Y-47813D01*
X32383Y-47883D01*
X32378Y-47889D01*
X32634Y-48145D01*
X32722Y-48145D01*
X32766Y-48101D01*
X32804Y-48009D01*
X32805Y-47962D01*
X32852Y-47962D01*
X32943Y-47924D01*
X33014Y-47854D01*
X33191Y-47677D01*
X33229Y-47585D01*
X33229Y-47508D01*
X33433Y-47712D01*
X33433Y-47712D01*
X33530Y-47777D01*
X33645Y-47800D01*
X34297Y-47800D01*
X34297Y-47820D01*
X34359Y-47883D01*
X34694Y-47883D01*
X34694Y-47875D01*
X34794Y-47875D01*
X34794Y-47883D01*
X34801Y-47883D01*
X34801Y-47983D01*
X34794Y-47983D01*
X34794Y-48297D01*
X34856Y-48360D01*
X34891Y-48360D01*
X34898Y-48360D01*
G54D10*
G36*
X36836Y-50731D02*
X36836Y-50911D01*
X20840Y-50911D01*
X20840Y-50649D01*
X20835Y-50623D01*
X20835Y-50597D01*
X20811Y-50476D01*
X20811Y-50476D01*
X20811Y-50476D01*
X20771Y-50378D01*
X20702Y-50276D01*
X20660Y-50234D01*
X20660Y-44316D01*
X20755Y-44297D01*
X20853Y-44257D01*
X20853Y-44256D01*
X20853Y-44256D01*
X20948Y-44193D01*
X20948Y-44192D01*
X21023Y-44118D01*
X21087Y-44022D01*
X21127Y-43925D01*
X21127Y-43925D01*
X21127Y-43925D01*
X21150Y-43812D01*
X21150Y-43812D01*
X21150Y-43812D01*
X21150Y-43812D01*
X21150Y-43759D01*
X21150Y-43707D01*
X21150Y-43707D01*
X21150Y-43706D01*
X21150Y-43706D01*
X21127Y-43594D01*
X21127Y-43594D01*
X21127Y-43593D01*
X21087Y-43496D01*
X21023Y-43401D01*
X20948Y-43326D01*
X20948Y-43326D01*
X20853Y-43262D01*
X20853Y-43262D01*
X20853Y-43262D01*
X20755Y-43222D01*
X20660Y-43203D01*
X20660Y-40316D01*
X20702Y-40274D01*
X20771Y-40172D01*
X20811Y-40075D01*
X20811Y-40074D01*
X20811Y-40074D01*
X20835Y-39953D01*
X20835Y-39928D01*
X20840Y-39901D01*
X20840Y-39639D01*
X36836Y-39639D01*
X36836Y-39820D01*
X36778Y-39820D01*
X36178Y-39820D01*
X36086Y-39858D01*
X36015Y-39928D01*
X35977Y-40020D01*
X35977Y-40042D01*
X35839Y-39904D01*
X35637Y-39820D01*
X35418Y-39819D01*
X35216Y-39903D01*
X35061Y-40058D01*
X35027Y-40139D01*
X34994Y-40058D01*
X34839Y-39904D01*
X34637Y-39820D01*
X34418Y-39819D01*
X34216Y-39903D01*
X34163Y-39955D01*
X33937Y-39728D01*
X33839Y-39663D01*
X33724Y-39641D01*
X33349Y-39641D01*
X33235Y-39663D01*
X33137Y-39728D01*
X32901Y-39965D01*
X32839Y-39904D01*
X32637Y-39820D01*
X32418Y-39819D01*
X32216Y-39903D01*
X32061Y-40058D01*
X32027Y-40139D01*
X31994Y-40058D01*
X31839Y-39904D01*
X31637Y-39820D01*
X31418Y-39819D01*
X31406Y-39824D01*
X31310Y-39728D01*
X31212Y-39663D01*
X31098Y-39640D01*
X26325Y-39640D01*
X26211Y-39663D01*
X26113Y-39728D01*
X25888Y-39953D01*
X25839Y-39904D01*
X25637Y-39820D01*
X25418Y-39819D01*
X25216Y-39903D01*
X25061Y-40058D01*
X25027Y-40139D01*
X24994Y-40058D01*
X24839Y-39904D01*
X24637Y-39820D01*
X24418Y-39819D01*
X24216Y-39903D01*
X24061Y-40058D01*
X24027Y-40139D01*
X23994Y-40058D01*
X23839Y-39904D01*
X23637Y-39820D01*
X23418Y-39819D01*
X23216Y-39903D01*
X23061Y-40058D01*
X23030Y-40133D01*
X23008Y-40082D01*
X22913Y-40054D01*
X22842Y-40125D01*
X22842Y-39984D01*
X22815Y-39888D01*
X22609Y-39815D01*
X22390Y-39826D01*
X22239Y-39888D01*
X22212Y-39984D01*
X22527Y-40299D01*
X22842Y-39984D01*
X22842Y-40125D01*
X22598Y-40370D01*
X22913Y-40685D01*
X23008Y-40657D01*
X23028Y-40602D01*
X23061Y-40681D01*
X23215Y-40836D01*
X23417Y-40919D01*
X23636Y-40920D01*
X23648Y-40915D01*
X23881Y-41147D01*
X23865Y-41154D01*
X23837Y-41182D01*
X23783Y-41127D01*
X23691Y-41089D01*
X23591Y-41089D01*
X23596Y-41089D01*
X23534Y-41151D01*
X23534Y-41446D01*
X23542Y-41446D01*
X23542Y-41546D01*
X23534Y-41546D01*
X23534Y-41554D01*
X23434Y-41554D01*
X23434Y-41546D01*
X23434Y-41446D01*
X23434Y-41151D01*
X23371Y-41089D01*
X23376Y-41089D01*
X23277Y-41089D01*
X23185Y-41127D01*
X23115Y-41197D01*
X23077Y-41289D01*
X23077Y-41383D01*
X23139Y-41446D01*
X23434Y-41446D01*
X23434Y-41546D01*
X23139Y-41546D01*
X23077Y-41608D01*
X23077Y-41702D01*
X23113Y-41791D01*
X23077Y-41879D01*
X23077Y-41978D01*
X23077Y-42292D01*
X23115Y-42384D01*
X23161Y-42431D01*
X23095Y-42496D01*
X23057Y-42588D01*
X23057Y-42688D01*
X23057Y-43002D01*
X23094Y-43090D01*
X23057Y-43178D01*
X23057Y-43278D01*
X23057Y-43592D01*
X23095Y-43683D01*
X23165Y-43754D01*
X23257Y-43792D01*
X23357Y-43792D01*
X23671Y-43792D01*
X23762Y-43754D01*
X23809Y-43708D01*
X23840Y-43702D01*
X23865Y-43727D01*
X23957Y-43765D01*
X24056Y-43765D01*
X24119Y-43765D01*
X24182Y-43703D01*
X24182Y-43440D01*
X24174Y-43440D01*
X24174Y-43408D01*
X24290Y-43408D01*
X24290Y-43440D01*
X24282Y-43440D01*
X24282Y-43703D01*
X24344Y-43765D01*
X24407Y-43765D01*
X24507Y-43765D01*
X24599Y-43727D01*
X24669Y-43656D01*
X24707Y-43565D01*
X24707Y-43503D01*
X24644Y-43440D01*
X24707Y-43440D01*
X24707Y-43408D01*
X25262Y-43408D01*
X26328Y-44474D01*
X26328Y-44474D01*
X26434Y-44545D01*
X26560Y-44570D01*
X27094Y-44570D01*
X27100Y-44572D01*
X27091Y-44593D01*
X27091Y-44692D01*
X27129Y-44784D01*
X27297Y-44952D01*
X27385Y-44952D01*
X27546Y-44791D01*
X27541Y-44785D01*
X27558Y-44768D01*
X27640Y-44849D01*
X27622Y-44867D01*
X27617Y-44861D01*
X27456Y-45022D01*
X27456Y-45111D01*
X27620Y-45275D01*
X27554Y-45342D01*
X27181Y-45714D01*
X27108Y-45714D01*
X27108Y-45651D01*
X27108Y-45401D01*
X27070Y-45309D01*
X27037Y-45275D01*
X27070Y-45242D01*
X27108Y-45150D01*
X27108Y-44801D01*
X27070Y-44709D01*
X27000Y-44638D01*
X26908Y-44600D01*
X26809Y-44600D01*
X26746Y-44600D01*
X26683Y-44663D01*
X26683Y-44925D01*
X27046Y-44925D01*
X27108Y-44863D01*
X27108Y-44801D01*
X27108Y-45150D01*
X27108Y-45088D01*
X27046Y-45025D01*
X26683Y-45025D01*
X26683Y-45033D01*
X26583Y-45033D01*
X26583Y-45025D01*
X26583Y-44925D01*
X26583Y-44663D01*
X26521Y-44600D01*
X26458Y-44600D01*
X26358Y-44600D01*
X26267Y-44638D01*
X26196Y-44709D01*
X26158Y-44801D01*
X26158Y-44863D01*
X26221Y-44925D01*
X26583Y-44925D01*
X26583Y-45025D01*
X26221Y-45025D01*
X26158Y-45088D01*
X26158Y-45150D01*
X26196Y-45242D01*
X26230Y-45275D01*
X26197Y-45308D01*
X26183Y-45340D01*
X25030Y-45340D01*
X24994Y-45252D01*
X24964Y-45223D01*
X25020Y-45167D01*
X25058Y-45075D01*
X25058Y-44976D01*
X25058Y-44176D01*
X25020Y-44084D01*
X24950Y-44014D01*
X24858Y-43976D01*
X24758Y-43975D01*
X24707Y-43975D01*
X24158Y-43975D01*
X24066Y-44013D01*
X23996Y-44084D01*
X23958Y-44176D01*
X23958Y-44275D01*
X23958Y-45075D01*
X23986Y-45144D01*
X23969Y-45144D01*
X23907Y-45206D01*
X23907Y-45619D01*
X23915Y-45619D01*
X23915Y-45719D01*
X23907Y-45719D01*
X23907Y-46131D01*
X23969Y-46194D01*
X24081Y-46194D01*
X24173Y-46156D01*
X24232Y-46097D01*
X24290Y-46156D01*
X24382Y-46194D01*
X24481Y-46194D01*
X24831Y-46194D01*
X24923Y-46156D01*
X24994Y-46086D01*
X25030Y-45998D01*
X26399Y-45998D01*
X26401Y-46000D01*
X26600Y-46199D01*
X26600Y-46515D01*
X26625Y-46641D01*
X26696Y-46748D01*
X27262Y-47314D01*
X27205Y-47371D01*
X27161Y-47415D01*
X27161Y-47503D01*
X27346Y-47689D01*
X27352Y-47684D01*
X27423Y-47754D01*
X27417Y-47760D01*
X27423Y-47765D01*
X27352Y-47836D01*
X27346Y-47831D01*
X27341Y-47836D01*
X27270Y-47765D01*
X27276Y-47760D01*
X27090Y-47574D01*
X27002Y-47574D01*
X26957Y-47619D01*
X26887Y-47689D01*
X26849Y-47781D01*
X26849Y-47880D01*
X26851Y-47884D01*
X26737Y-47907D01*
X26640Y-47972D01*
X25919Y-48693D01*
X25919Y-47486D01*
X25863Y-47350D01*
X25759Y-47247D01*
X25624Y-47191D01*
X25607Y-47190D01*
X25369Y-46953D01*
X25272Y-46888D01*
X25157Y-46865D01*
X24862Y-46865D01*
X24747Y-46888D01*
X24650Y-46953D01*
X24363Y-47239D01*
X24179Y-47239D01*
X23834Y-46894D01*
X23807Y-46876D01*
X23807Y-46131D01*
X23807Y-45719D01*
X23807Y-45619D01*
X23807Y-45206D01*
X23744Y-45144D01*
X23729Y-45144D01*
X23758Y-45075D01*
X23758Y-44976D01*
X23758Y-44176D01*
X23720Y-44084D01*
X23650Y-44014D01*
X23558Y-43976D01*
X23458Y-43975D01*
X22858Y-43975D01*
X22842Y-43982D01*
X22842Y-40755D01*
X22527Y-40440D01*
X22456Y-40511D01*
X22456Y-40370D01*
X22141Y-40054D01*
X22046Y-40082D01*
X21972Y-40288D01*
X21983Y-40506D01*
X22046Y-40657D01*
X22141Y-40685D01*
X22456Y-40370D01*
X22456Y-40511D01*
X22212Y-40755D01*
X22239Y-40851D01*
X22445Y-40924D01*
X22664Y-40913D01*
X22815Y-40851D01*
X22842Y-40755D01*
X22842Y-43982D01*
X22785Y-44006D01*
X22768Y-43989D01*
X22676Y-43951D01*
X22577Y-43950D01*
X22514Y-43950D01*
X22451Y-44013D01*
X22451Y-44275D01*
X22459Y-44275D01*
X22459Y-44375D01*
X22451Y-44375D01*
X22451Y-44383D01*
X22351Y-44383D01*
X22351Y-44375D01*
X22343Y-44375D01*
X22343Y-44275D01*
X22351Y-44275D01*
X22351Y-44013D01*
X22289Y-43950D01*
X22272Y-43950D01*
X22297Y-43892D01*
X22297Y-43745D01*
X22297Y-42072D01*
X22257Y-41977D01*
X22257Y-41456D01*
X22232Y-41330D01*
X22232Y-41330D01*
X22161Y-41224D01*
X21571Y-40634D01*
X21532Y-40539D01*
X21429Y-40436D01*
X21294Y-40379D01*
X21147Y-40379D01*
X21012Y-40435D01*
X20908Y-40539D01*
X20852Y-40674D01*
X20852Y-40820D01*
X20908Y-40956D01*
X21011Y-41059D01*
X21107Y-41099D01*
X21600Y-41592D01*
X21600Y-41977D01*
X21561Y-42072D01*
X21560Y-42218D01*
X21616Y-42353D01*
X21720Y-42457D01*
X21855Y-42513D01*
X22002Y-42513D01*
X22137Y-42457D01*
X22241Y-42354D01*
X22297Y-42219D01*
X22297Y-42072D01*
X22297Y-43745D01*
X22241Y-43610D01*
X22137Y-43507D01*
X22002Y-43450D01*
X21856Y-43450D01*
X21720Y-43506D01*
X21617Y-43610D01*
X21561Y-43745D01*
X21560Y-43891D01*
X21580Y-43939D01*
X21580Y-44940D01*
X21580Y-45520D01*
X21541Y-45615D01*
X21541Y-45761D01*
X21597Y-45897D01*
X21700Y-46000D01*
X21835Y-46057D01*
X21982Y-46057D01*
X22117Y-46001D01*
X22221Y-45897D01*
X22277Y-45762D01*
X22277Y-45616D01*
X22238Y-45520D01*
X22238Y-45301D01*
X22676Y-45301D01*
X22768Y-45263D01*
X22776Y-45254D01*
X22807Y-45254D01*
X22858Y-45275D01*
X22957Y-45276D01*
X23460Y-45276D01*
X23432Y-45344D01*
X23432Y-45443D01*
X23432Y-45556D01*
X23494Y-45619D01*
X23807Y-45619D01*
X23807Y-45719D01*
X23494Y-45719D01*
X23432Y-45781D01*
X23432Y-45894D01*
X23432Y-45994D01*
X23470Y-46086D01*
X23540Y-46156D01*
X23632Y-46194D01*
X23744Y-46194D01*
X23807Y-46131D01*
X23807Y-46876D01*
X23736Y-46829D01*
X23622Y-46806D01*
X23169Y-46806D01*
X23054Y-46829D01*
X22957Y-46894D01*
X22844Y-47006D01*
X22771Y-46933D01*
X22722Y-46900D01*
X22722Y-46871D01*
X22684Y-46779D01*
X22614Y-46708D01*
X22522Y-46670D01*
X22422Y-46670D01*
X22172Y-46670D01*
X22080Y-46708D01*
X22047Y-46742D01*
X22014Y-46708D01*
X21922Y-46670D01*
X21822Y-46670D01*
X21572Y-46670D01*
X21480Y-46708D01*
X21410Y-46778D01*
X21405Y-46791D01*
X21372Y-46777D01*
X21226Y-46777D01*
X21090Y-46833D01*
X20987Y-46936D01*
X20931Y-47072D01*
X20931Y-47218D01*
X20986Y-47353D01*
X21090Y-47457D01*
X21225Y-47513D01*
X21372Y-47513D01*
X21405Y-47500D01*
X21410Y-47512D01*
X21437Y-47539D01*
X21410Y-47566D01*
X21399Y-47592D01*
X21333Y-47565D01*
X21186Y-47564D01*
X21051Y-47620D01*
X20947Y-47724D01*
X20891Y-47859D01*
X20891Y-48005D01*
X20947Y-48141D01*
X21051Y-48244D01*
X21186Y-48301D01*
X21332Y-48301D01*
X21399Y-48273D01*
X21410Y-48299D01*
X21480Y-48369D01*
X21541Y-48395D01*
X21541Y-48478D01*
X21580Y-48573D01*
X21580Y-49083D01*
X21541Y-49178D01*
X21541Y-49324D01*
X21597Y-49460D01*
X21700Y-49563D01*
X21835Y-49620D01*
X21982Y-49620D01*
X22117Y-49564D01*
X22221Y-49460D01*
X22277Y-49325D01*
X22277Y-49179D01*
X22238Y-49083D01*
X22238Y-48573D01*
X22277Y-48479D01*
X22277Y-48408D01*
X22521Y-48408D01*
X22613Y-48370D01*
X22684Y-48299D01*
X22711Y-48233D01*
X24936Y-48233D01*
X24948Y-48244D01*
X25083Y-48301D01*
X25230Y-48301D01*
X25365Y-48245D01*
X25469Y-48141D01*
X25525Y-48006D01*
X25525Y-47927D01*
X25624Y-47927D01*
X25759Y-47871D01*
X25863Y-47767D01*
X25919Y-47632D01*
X25919Y-47486D01*
X25919Y-48693D01*
X25315Y-49297D01*
X25250Y-49394D01*
X25227Y-49509D01*
X25227Y-49709D01*
X25216Y-49714D01*
X25061Y-49869D01*
X25027Y-49950D01*
X24994Y-49869D01*
X24839Y-49715D01*
X24637Y-49631D01*
X24418Y-49631D01*
X24216Y-49714D01*
X24061Y-49869D01*
X23977Y-50071D01*
X23977Y-50290D01*
X24061Y-50492D01*
X24215Y-50647D01*
X24417Y-50731D01*
X24636Y-50731D01*
X24648Y-50726D01*
X24744Y-50822D01*
X24744Y-50822D01*
X24842Y-50887D01*
X24956Y-50910D01*
X30729Y-50910D01*
X30729Y-50910D01*
X30844Y-50887D01*
X30844Y-50887D01*
X30941Y-50822D01*
X31166Y-50597D01*
X31215Y-50647D01*
X31417Y-50731D01*
X31636Y-50731D01*
X31838Y-50647D01*
X31993Y-50493D01*
X32027Y-50411D01*
X32061Y-50492D01*
X32215Y-50647D01*
X32417Y-50731D01*
X32636Y-50731D01*
X32838Y-50647D01*
X32993Y-50493D01*
X33027Y-50411D01*
X33061Y-50492D01*
X33215Y-50647D01*
X33417Y-50731D01*
X33636Y-50731D01*
X33838Y-50647D01*
X33993Y-50493D01*
X34027Y-50411D01*
X34061Y-50492D01*
X34215Y-50647D01*
X34417Y-50731D01*
X34636Y-50731D01*
X34838Y-50647D01*
X34993Y-50493D01*
X35027Y-50411D01*
X35061Y-50492D01*
X35215Y-50647D01*
X35417Y-50731D01*
X35636Y-50731D01*
X35838Y-50647D01*
X35977Y-50509D01*
X35977Y-50530D01*
X36015Y-50622D01*
X36085Y-50692D01*
X36177Y-50731D01*
X36277Y-50731D01*
X36836Y-50731D01*
X36836Y-50731D01*
G37*
G54D23*
X36836Y-50731D02*
X36836Y-50911D01*
X20840Y-50911D01*
X20840Y-50649D01*
X20835Y-50623D01*
X20835Y-50597D01*
X20811Y-50476D01*
X20811Y-50476D01*
X20811Y-50476D01*
X20771Y-50378D01*
X20702Y-50276D01*
X20660Y-50234D01*
X20660Y-44316D01*
X20755Y-44297D01*
X20853Y-44257D01*
X20853Y-44256D01*
X20853Y-44256D01*
X20948Y-44193D01*
X20948Y-44192D01*
X21023Y-44118D01*
X21087Y-44022D01*
X21127Y-43925D01*
X21127Y-43925D01*
X21127Y-43925D01*
X21150Y-43812D01*
X21150Y-43812D01*
X21150Y-43812D01*
X21150Y-43812D01*
X21150Y-43759D01*
X21150Y-43707D01*
X21150Y-43707D01*
X21150Y-43706D01*
X21150Y-43706D01*
X21127Y-43594D01*
X21127Y-43594D01*
X21127Y-43593D01*
X21087Y-43496D01*
X21023Y-43401D01*
X20948Y-43326D01*
X20948Y-43326D01*
X20853Y-43262D01*
X20853Y-43262D01*
X20853Y-43262D01*
X20755Y-43222D01*
X20660Y-43203D01*
X20660Y-40316D01*
X20702Y-40274D01*
X20771Y-40172D01*
X20811Y-40075D01*
X20811Y-40074D01*
X20811Y-40074D01*
X20835Y-39953D01*
X20835Y-39928D01*
X20840Y-39901D01*
X20840Y-39639D01*
X36836Y-39639D01*
X36836Y-39820D01*
X36778Y-39820D01*
X36178Y-39820D01*
X36086Y-39858D01*
X36015Y-39928D01*
X35977Y-40020D01*
X35977Y-40042D01*
X35839Y-39904D01*
X35637Y-39820D01*
X35418Y-39819D01*
X35216Y-39903D01*
X35061Y-40058D01*
X35027Y-40139D01*
X34994Y-40058D01*
X34839Y-39904D01*
X34637Y-39820D01*
X34418Y-39819D01*
X34216Y-39903D01*
X34163Y-39955D01*
X33937Y-39728D01*
X33839Y-39663D01*
X33724Y-39641D01*
X33349Y-39641D01*
X33235Y-39663D01*
X33137Y-39728D01*
X32901Y-39965D01*
X32839Y-39904D01*
X32637Y-39820D01*
X32418Y-39819D01*
X32216Y-39903D01*
X32061Y-40058D01*
X32027Y-40139D01*
X31994Y-40058D01*
X31839Y-39904D01*
X31637Y-39820D01*
X31418Y-39819D01*
X31406Y-39824D01*
X31310Y-39728D01*
X31212Y-39663D01*
X31098Y-39640D01*
X26325Y-39640D01*
X26211Y-39663D01*
X26113Y-39728D01*
X25888Y-39953D01*
X25839Y-39904D01*
X25637Y-39820D01*
X25418Y-39819D01*
X25216Y-39903D01*
X25061Y-40058D01*
X25027Y-40139D01*
X24994Y-40058D01*
X24839Y-39904D01*
X24637Y-39820D01*
X24418Y-39819D01*
X24216Y-39903D01*
X24061Y-40058D01*
X24027Y-40139D01*
X23994Y-40058D01*
X23839Y-39904D01*
X23637Y-39820D01*
X23418Y-39819D01*
X23216Y-39903D01*
X23061Y-40058D01*
X23030Y-40133D01*
X23008Y-40082D01*
X22913Y-40054D01*
X22842Y-40125D01*
X22842Y-39984D01*
X22815Y-39888D01*
X22609Y-39815D01*
X22390Y-39826D01*
X22239Y-39888D01*
X22212Y-39984D01*
X22527Y-40299D01*
X22842Y-39984D01*
X22842Y-40125D01*
X22598Y-40370D01*
X22913Y-40685D01*
X23008Y-40657D01*
X23028Y-40602D01*
X23061Y-40681D01*
X23215Y-40836D01*
X23417Y-40919D01*
X23636Y-40920D01*
X23648Y-40915D01*
X23881Y-41147D01*
X23865Y-41154D01*
X23837Y-41182D01*
X23783Y-41127D01*
X23691Y-41089D01*
X23591Y-41089D01*
X23596Y-41089D01*
X23534Y-41151D01*
X23534Y-41446D01*
X23542Y-41446D01*
X23542Y-41546D01*
X23534Y-41546D01*
X23534Y-41554D01*
X23434Y-41554D01*
X23434Y-41546D01*
X23434Y-41446D01*
X23434Y-41151D01*
X23371Y-41089D01*
X23376Y-41089D01*
X23277Y-41089D01*
X23185Y-41127D01*
X23115Y-41197D01*
X23077Y-41289D01*
X23077Y-41383D01*
X23139Y-41446D01*
X23434Y-41446D01*
X23434Y-41546D01*
X23139Y-41546D01*
X23077Y-41608D01*
X23077Y-41702D01*
X23113Y-41791D01*
X23077Y-41879D01*
X23077Y-41978D01*
X23077Y-42292D01*
X23115Y-42384D01*
X23161Y-42431D01*
X23095Y-42496D01*
X23057Y-42588D01*
X23057Y-42688D01*
X23057Y-43002D01*
X23094Y-43090D01*
X23057Y-43178D01*
X23057Y-43278D01*
X23057Y-43592D01*
X23095Y-43683D01*
X23165Y-43754D01*
X23257Y-43792D01*
X23357Y-43792D01*
X23671Y-43792D01*
X23762Y-43754D01*
X23809Y-43708D01*
X23840Y-43702D01*
X23865Y-43727D01*
X23957Y-43765D01*
X24056Y-43765D01*
X24119Y-43765D01*
X24182Y-43703D01*
X24182Y-43440D01*
X24174Y-43440D01*
X24174Y-43408D01*
X24290Y-43408D01*
X24290Y-43440D01*
X24282Y-43440D01*
X24282Y-43703D01*
X24344Y-43765D01*
X24407Y-43765D01*
X24507Y-43765D01*
X24599Y-43727D01*
X24669Y-43656D01*
X24707Y-43565D01*
X24707Y-43503D01*
X24644Y-43440D01*
X24707Y-43440D01*
X24707Y-43408D01*
X25262Y-43408D01*
X26328Y-44474D01*
X26328Y-44474D01*
X26434Y-44545D01*
X26560Y-44570D01*
X27094Y-44570D01*
X27100Y-44572D01*
X27091Y-44593D01*
X27091Y-44692D01*
X27129Y-44784D01*
X27297Y-44952D01*
X27385Y-44952D01*
X27546Y-44791D01*
X27541Y-44785D01*
X27558Y-44768D01*
X27640Y-44849D01*
X27622Y-44867D01*
X27617Y-44861D01*
X27456Y-45022D01*
X27456Y-45111D01*
X27620Y-45275D01*
X27554Y-45342D01*
X27181Y-45714D01*
X27108Y-45714D01*
X27108Y-45651D01*
X27108Y-45401D01*
X27070Y-45309D01*
X27037Y-45275D01*
X27070Y-45242D01*
X27108Y-45150D01*
X27108Y-44801D01*
X27070Y-44709D01*
X27000Y-44638D01*
X26908Y-44600D01*
X26809Y-44600D01*
X26746Y-44600D01*
X26683Y-44663D01*
X26683Y-44925D01*
X27046Y-44925D01*
X27108Y-44863D01*
X27108Y-44801D01*
X27108Y-45150D01*
X27108Y-45088D01*
X27046Y-45025D01*
X26683Y-45025D01*
X26683Y-45033D01*
X26583Y-45033D01*
X26583Y-45025D01*
X26583Y-44925D01*
X26583Y-44663D01*
X26521Y-44600D01*
X26458Y-44600D01*
X26358Y-44600D01*
X26267Y-44638D01*
X26196Y-44709D01*
X26158Y-44801D01*
X26158Y-44863D01*
X26221Y-44925D01*
X26583Y-44925D01*
X26583Y-45025D01*
X26221Y-45025D01*
X26158Y-45088D01*
X26158Y-45150D01*
X26196Y-45242D01*
X26230Y-45275D01*
X26197Y-45308D01*
X26183Y-45340D01*
X25030Y-45340D01*
X24994Y-45252D01*
X24964Y-45223D01*
X25020Y-45167D01*
X25058Y-45075D01*
X25058Y-44976D01*
X25058Y-44176D01*
X25020Y-44084D01*
X24950Y-44014D01*
X24858Y-43976D01*
X24758Y-43975D01*
X24707Y-43975D01*
X24158Y-43975D01*
X24066Y-44013D01*
X23996Y-44084D01*
X23958Y-44176D01*
X23958Y-44275D01*
X23958Y-45075D01*
X23986Y-45144D01*
X23969Y-45144D01*
X23907Y-45206D01*
X23907Y-45619D01*
X23915Y-45619D01*
X23915Y-45719D01*
X23907Y-45719D01*
X23907Y-46131D01*
X23969Y-46194D01*
X24081Y-46194D01*
X24173Y-46156D01*
X24232Y-46097D01*
X24290Y-46156D01*
X24382Y-46194D01*
X24481Y-46194D01*
X24831Y-46194D01*
X24923Y-46156D01*
X24994Y-46086D01*
X25030Y-45998D01*
X26399Y-45998D01*
X26401Y-46000D01*
X26600Y-46199D01*
X26600Y-46515D01*
X26625Y-46641D01*
X26696Y-46748D01*
X27262Y-47314D01*
X27205Y-47371D01*
X27161Y-47415D01*
X27161Y-47503D01*
X27346Y-47689D01*
X27352Y-47684D01*
X27423Y-47754D01*
X27417Y-47760D01*
X27423Y-47765D01*
X27352Y-47836D01*
X27346Y-47831D01*
X27341Y-47836D01*
X27270Y-47765D01*
X27276Y-47760D01*
X27090Y-47574D01*
X27002Y-47574D01*
X26957Y-47619D01*
X26887Y-47689D01*
X26849Y-47781D01*
X26849Y-47880D01*
X26851Y-47884D01*
X26737Y-47907D01*
X26640Y-47972D01*
X25919Y-48693D01*
X25919Y-47486D01*
X25863Y-47350D01*
X25759Y-47247D01*
X25624Y-47191D01*
X25607Y-47190D01*
X25369Y-46953D01*
X25272Y-46888D01*
X25157Y-46865D01*
X24862Y-46865D01*
X24747Y-46888D01*
X24650Y-46953D01*
X24363Y-47239D01*
X24179Y-47239D01*
X23834Y-46894D01*
X23807Y-46876D01*
X23807Y-46131D01*
X23807Y-45719D01*
X23807Y-45619D01*
X23807Y-45206D01*
X23744Y-45144D01*
X23729Y-45144D01*
X23758Y-45075D01*
X23758Y-44976D01*
X23758Y-44176D01*
X23720Y-44084D01*
X23650Y-44014D01*
X23558Y-43976D01*
X23458Y-43975D01*
X22858Y-43975D01*
X22842Y-43982D01*
X22842Y-40755D01*
X22527Y-40440D01*
X22456Y-40511D01*
X22456Y-40370D01*
X22141Y-40054D01*
X22046Y-40082D01*
X21972Y-40288D01*
X21983Y-40506D01*
X22046Y-40657D01*
X22141Y-40685D01*
X22456Y-40370D01*
X22456Y-40511D01*
X22212Y-40755D01*
X22239Y-40851D01*
X22445Y-40924D01*
X22664Y-40913D01*
X22815Y-40851D01*
X22842Y-40755D01*
X22842Y-43982D01*
X22785Y-44006D01*
X22768Y-43989D01*
X22676Y-43951D01*
X22577Y-43950D01*
X22514Y-43950D01*
X22451Y-44013D01*
X22451Y-44275D01*
X22459Y-44275D01*
X22459Y-44375D01*
X22451Y-44375D01*
X22451Y-44383D01*
X22351Y-44383D01*
X22351Y-44375D01*
X22343Y-44375D01*
X22343Y-44275D01*
X22351Y-44275D01*
X22351Y-44013D01*
X22289Y-43950D01*
X22272Y-43950D01*
X22297Y-43892D01*
X22297Y-43745D01*
X22297Y-42072D01*
X22257Y-41977D01*
X22257Y-41456D01*
X22232Y-41330D01*
X22232Y-41330D01*
X22161Y-41224D01*
X21571Y-40634D01*
X21532Y-40539D01*
X21429Y-40436D01*
X21294Y-40379D01*
X21147Y-40379D01*
X21012Y-40435D01*
X20908Y-40539D01*
X20852Y-40674D01*
X20852Y-40820D01*
X20908Y-40956D01*
X21011Y-41059D01*
X21107Y-41099D01*
X21600Y-41592D01*
X21600Y-41977D01*
X21561Y-42072D01*
X21560Y-42218D01*
X21616Y-42353D01*
X21720Y-42457D01*
X21855Y-42513D01*
X22002Y-42513D01*
X22137Y-42457D01*
X22241Y-42354D01*
X22297Y-42219D01*
X22297Y-42072D01*
X22297Y-43745D01*
X22241Y-43610D01*
X22137Y-43507D01*
X22002Y-43450D01*
X21856Y-43450D01*
X21720Y-43506D01*
X21617Y-43610D01*
X21561Y-43745D01*
X21560Y-43891D01*
X21580Y-43939D01*
X21580Y-44940D01*
X21580Y-45520D01*
X21541Y-45615D01*
X21541Y-45761D01*
X21597Y-45897D01*
X21700Y-46000D01*
X21835Y-46057D01*
X21982Y-46057D01*
X22117Y-46001D01*
X22221Y-45897D01*
X22277Y-45762D01*
X22277Y-45616D01*
X22238Y-45520D01*
X22238Y-45301D01*
X22676Y-45301D01*
X22768Y-45263D01*
X22776Y-45254D01*
X22807Y-45254D01*
X22858Y-45275D01*
X22957Y-45276D01*
X23460Y-45276D01*
X23432Y-45344D01*
X23432Y-45443D01*
X23432Y-45556D01*
X23494Y-45619D01*
X23807Y-45619D01*
X23807Y-45719D01*
X23494Y-45719D01*
X23432Y-45781D01*
X23432Y-45894D01*
X23432Y-45994D01*
X23470Y-46086D01*
X23540Y-46156D01*
X23632Y-46194D01*
X23744Y-46194D01*
X23807Y-46131D01*
X23807Y-46876D01*
X23736Y-46829D01*
X23622Y-46806D01*
X23169Y-46806D01*
X23054Y-46829D01*
X22957Y-46894D01*
X22844Y-47006D01*
X22771Y-46933D01*
X22722Y-46900D01*
X22722Y-46871D01*
X22684Y-46779D01*
X22614Y-46708D01*
X22522Y-46670D01*
X22422Y-46670D01*
X22172Y-46670D01*
X22080Y-46708D01*
X22047Y-46742D01*
X22014Y-46708D01*
X21922Y-46670D01*
X21822Y-46670D01*
X21572Y-46670D01*
X21480Y-46708D01*
X21410Y-46778D01*
X21405Y-46791D01*
X21372Y-46777D01*
X21226Y-46777D01*
X21090Y-46833D01*
X20987Y-46936D01*
X20931Y-47072D01*
X20931Y-47218D01*
X20986Y-47353D01*
X21090Y-47457D01*
X21225Y-47513D01*
X21372Y-47513D01*
X21405Y-47500D01*
X21410Y-47512D01*
X21437Y-47539D01*
X21410Y-47566D01*
X21399Y-47592D01*
X21333Y-47565D01*
X21186Y-47564D01*
X21051Y-47620D01*
X20947Y-47724D01*
X20891Y-47859D01*
X20891Y-48005D01*
X20947Y-48141D01*
X21051Y-48244D01*
X21186Y-48301D01*
X21332Y-48301D01*
X21399Y-48273D01*
X21410Y-48299D01*
X21480Y-48369D01*
X21541Y-48395D01*
X21541Y-48478D01*
X21580Y-48573D01*
X21580Y-49083D01*
X21541Y-49178D01*
X21541Y-49324D01*
X21597Y-49460D01*
X21700Y-49563D01*
X21835Y-49620D01*
X21982Y-49620D01*
X22117Y-49564D01*
X22221Y-49460D01*
X22277Y-49325D01*
X22277Y-49179D01*
X22238Y-49083D01*
X22238Y-48573D01*
X22277Y-48479D01*
X22277Y-48408D01*
X22521Y-48408D01*
X22613Y-48370D01*
X22684Y-48299D01*
X22711Y-48233D01*
X24936Y-48233D01*
X24948Y-48244D01*
X25083Y-48301D01*
X25230Y-48301D01*
X25365Y-48245D01*
X25469Y-48141D01*
X25525Y-48006D01*
X25525Y-47927D01*
X25624Y-47927D01*
X25759Y-47871D01*
X25863Y-47767D01*
X25919Y-47632D01*
X25919Y-47486D01*
X25919Y-48693D01*
X25315Y-49297D01*
X25250Y-49394D01*
X25227Y-49509D01*
X25227Y-49709D01*
X25216Y-49714D01*
X25061Y-49869D01*
X25027Y-49950D01*
X24994Y-49869D01*
X24839Y-49715D01*
X24637Y-49631D01*
X24418Y-49631D01*
X24216Y-49714D01*
X24061Y-49869D01*
X23977Y-50071D01*
X23977Y-50290D01*
X24061Y-50492D01*
X24215Y-50647D01*
X24417Y-50731D01*
X24636Y-50731D01*
X24648Y-50726D01*
X24744Y-50822D01*
X24744Y-50822D01*
X24842Y-50887D01*
X24956Y-50910D01*
X30729Y-50910D01*
X30729Y-50910D01*
X30844Y-50887D01*
X30844Y-50887D01*
X30941Y-50822D01*
X31166Y-50597D01*
X31215Y-50647D01*
X31417Y-50731D01*
X31636Y-50731D01*
X31838Y-50647D01*
X31993Y-50493D01*
X32027Y-50411D01*
X32061Y-50492D01*
X32215Y-50647D01*
X32417Y-50731D01*
X32636Y-50731D01*
X32838Y-50647D01*
X32993Y-50493D01*
X33027Y-50411D01*
X33061Y-50492D01*
X33215Y-50647D01*
X33417Y-50731D01*
X33636Y-50731D01*
X33838Y-50647D01*
X33993Y-50493D01*
X34027Y-50411D01*
X34061Y-50492D01*
X34215Y-50647D01*
X34417Y-50731D01*
X34636Y-50731D01*
X34838Y-50647D01*
X34993Y-50493D01*
X35027Y-50411D01*
X35061Y-50492D01*
X35215Y-50647D01*
X35417Y-50731D01*
X35636Y-50731D01*
X35838Y-50647D01*
X35977Y-50509D01*
X35977Y-50530D01*
X36015Y-50622D01*
X36085Y-50692D01*
X36177Y-50731D01*
X36277Y-50731D01*
X36836Y-50731D01*
G54D10*
G36*
X38057Y-43391D02*
X38041Y-43472D01*
X38041Y-43826D01*
X37920Y-43947D01*
X37920Y-43926D01*
X37882Y-43834D01*
X37811Y-43763D01*
X37720Y-43725D01*
X37620Y-43725D01*
X37020Y-43725D01*
X36928Y-43763D01*
X36858Y-43833D01*
X36820Y-43925D01*
X36820Y-44025D01*
X36820Y-44625D01*
X36858Y-44717D01*
X36928Y-44787D01*
X37020Y-44825D01*
X37042Y-44825D01*
X36904Y-44963D01*
X36820Y-45165D01*
X36819Y-45384D01*
X36903Y-45586D01*
X37058Y-45741D01*
X37135Y-45773D01*
X36372Y-45773D01*
X36372Y-45541D01*
X36334Y-45449D01*
X36263Y-45378D01*
X36171Y-45340D01*
X36072Y-45340D01*
X35678Y-45340D01*
X35586Y-45378D01*
X35516Y-45448D01*
X35478Y-45540D01*
X35478Y-45640D01*
X35478Y-45773D01*
X35190Y-45773D01*
X35190Y-45541D01*
X35153Y-45449D01*
X35082Y-45378D01*
X34990Y-45340D01*
X34891Y-45340D01*
X34856Y-45340D01*
X34794Y-45403D01*
X34794Y-45717D01*
X35128Y-45717D01*
X35190Y-45655D01*
X35190Y-45541D01*
X35190Y-45773D01*
X34686Y-45773D01*
X34686Y-45717D01*
X34694Y-45717D01*
X34694Y-45403D01*
X34631Y-45340D01*
X34596Y-45340D01*
X34497Y-45340D01*
X34405Y-45378D01*
X34335Y-45449D01*
X34299Y-45535D01*
X34216Y-45480D01*
X34112Y-45459D01*
X34112Y-45459D01*
X33716Y-45063D01*
X33619Y-44998D01*
X33504Y-44975D01*
X33309Y-44975D01*
X33500Y-44784D01*
X33501Y-44781D01*
X33548Y-44772D01*
X33548Y-44772D01*
X33581Y-44749D01*
X33619Y-44750D01*
X33754Y-44694D01*
X33858Y-44590D01*
X33914Y-44455D01*
X33914Y-44448D01*
X33977Y-44474D01*
X34076Y-44474D01*
X34139Y-44474D01*
X34201Y-44411D01*
X34201Y-44149D01*
X34194Y-44149D01*
X34194Y-44049D01*
X34201Y-44049D01*
X34201Y-44041D01*
X34301Y-44041D01*
X34301Y-44049D01*
X34309Y-44049D01*
X34309Y-44149D01*
X34301Y-44149D01*
X34301Y-44411D01*
X34364Y-44474D01*
X34427Y-44474D01*
X34526Y-44474D01*
X34618Y-44436D01*
X34669Y-44385D01*
X34713Y-44403D01*
X34813Y-44403D01*
X34887Y-44403D01*
X34950Y-44341D01*
X34950Y-43849D01*
X34942Y-43849D01*
X34942Y-43749D01*
X34950Y-43749D01*
X34950Y-43741D01*
X35050Y-43741D01*
X35050Y-43749D01*
X35057Y-43749D01*
X35057Y-43849D01*
X35050Y-43849D01*
X35050Y-44341D01*
X35112Y-44403D01*
X35186Y-44403D01*
X35286Y-44403D01*
X35378Y-44365D01*
X35448Y-44294D01*
X35472Y-44236D01*
X35496Y-44294D01*
X35566Y-44365D01*
X35658Y-44403D01*
X35758Y-44403D01*
X36230Y-44403D01*
X36322Y-44365D01*
X36392Y-44295D01*
X36431Y-44203D01*
X36431Y-44104D01*
X36431Y-43395D01*
X36431Y-42628D01*
X36431Y-42336D01*
X36368Y-42274D01*
X35994Y-42274D01*
X35994Y-42766D01*
X36057Y-42828D01*
X36131Y-42828D01*
X36231Y-42828D01*
X36322Y-42790D01*
X36393Y-42720D01*
X36431Y-42628D01*
X36431Y-43395D01*
X36393Y-43303D01*
X36322Y-43233D01*
X36231Y-43194D01*
X36131Y-43194D01*
X35882Y-43194D01*
X35664Y-42976D01*
X35567Y-42911D01*
X35452Y-42888D01*
X34562Y-42888D01*
X34447Y-42911D01*
X34350Y-42976D01*
X34210Y-43116D01*
X33936Y-42843D01*
X33977Y-42859D01*
X34076Y-42860D01*
X34139Y-42860D01*
X34201Y-42797D01*
X34201Y-42535D01*
X33839Y-42535D01*
X33776Y-42597D01*
X33776Y-42659D01*
X33797Y-42709D01*
X33717Y-42655D01*
X33602Y-42633D01*
X33362Y-42633D01*
X33810Y-42185D01*
X33848Y-42185D01*
X33814Y-42218D01*
X33776Y-42310D01*
X33776Y-42372D01*
X33839Y-42435D01*
X34201Y-42435D01*
X34201Y-42427D01*
X34301Y-42427D01*
X34301Y-42435D01*
X34309Y-42435D01*
X34309Y-42535D01*
X34301Y-42535D01*
X34301Y-42797D01*
X34364Y-42860D01*
X34427Y-42860D01*
X34526Y-42859D01*
X34618Y-42821D01*
X34641Y-42798D01*
X34713Y-42828D01*
X34813Y-42828D01*
X35285Y-42828D01*
X35377Y-42790D01*
X35448Y-42720D01*
X35472Y-42661D01*
X35496Y-42720D01*
X35566Y-42790D01*
X35658Y-42828D01*
X35758Y-42828D01*
X35832Y-42828D01*
X35894Y-42766D01*
X35894Y-42274D01*
X35887Y-42274D01*
X35887Y-42174D01*
X35894Y-42174D01*
X35894Y-42166D01*
X35994Y-42166D01*
X35994Y-42174D01*
X36368Y-42174D01*
X36426Y-42116D01*
X36445Y-42116D01*
X37002Y-42673D01*
X37002Y-42673D01*
X37099Y-42738D01*
X37124Y-42743D01*
X37129Y-42756D01*
X37093Y-42843D01*
X37092Y-42943D01*
X37092Y-43257D01*
X37130Y-43349D01*
X37201Y-43419D01*
X37293Y-43457D01*
X37392Y-43457D01*
X37706Y-43457D01*
X37798Y-43419D01*
X37868Y-43349D01*
X37875Y-43333D01*
X37875Y-43333D01*
X37900Y-43328D01*
X37900Y-43328D01*
X37989Y-43268D01*
X37989Y-43269D01*
X38027Y-43361D01*
X38057Y-43391D01*
X38057Y-43391D01*
X38057Y-43391D01*
G37*
G54D23*
X38057Y-43391D02*
X38041Y-43472D01*
X38041Y-43826D01*
X37920Y-43947D01*
X37920Y-43926D01*
X37882Y-43834D01*
X37811Y-43763D01*
X37720Y-43725D01*
X37620Y-43725D01*
X37020Y-43725D01*
X36928Y-43763D01*
X36858Y-43833D01*
X36820Y-43925D01*
X36820Y-44025D01*
X36820Y-44625D01*
X36858Y-44717D01*
X36928Y-44787D01*
X37020Y-44825D01*
X37042Y-44825D01*
X36904Y-44963D01*
X36820Y-45165D01*
X36819Y-45384D01*
X36903Y-45586D01*
X37058Y-45741D01*
X37135Y-45773D01*
X36372Y-45773D01*
X36372Y-45541D01*
X36334Y-45449D01*
X36263Y-45378D01*
X36171Y-45340D01*
X36072Y-45340D01*
X35678Y-45340D01*
X35586Y-45378D01*
X35516Y-45448D01*
X35478Y-45540D01*
X35478Y-45640D01*
X35478Y-45773D01*
X35190Y-45773D01*
X35190Y-45541D01*
X35153Y-45449D01*
X35082Y-45378D01*
X34990Y-45340D01*
X34891Y-45340D01*
X34856Y-45340D01*
X34794Y-45403D01*
X34794Y-45717D01*
X35128Y-45717D01*
X35190Y-45655D01*
X35190Y-45541D01*
X35190Y-45773D01*
X34686Y-45773D01*
X34686Y-45717D01*
X34694Y-45717D01*
X34694Y-45403D01*
X34631Y-45340D01*
X34596Y-45340D01*
X34497Y-45340D01*
X34405Y-45378D01*
X34335Y-45449D01*
X34299Y-45535D01*
X34216Y-45480D01*
X34112Y-45459D01*
X34112Y-45459D01*
X33716Y-45063D01*
X33619Y-44998D01*
X33504Y-44975D01*
X33309Y-44975D01*
X33500Y-44784D01*
X33501Y-44781D01*
X33548Y-44772D01*
X33548Y-44772D01*
X33581Y-44749D01*
X33619Y-44750D01*
X33754Y-44694D01*
X33858Y-44590D01*
X33914Y-44455D01*
X33914Y-44448D01*
X33977Y-44474D01*
X34076Y-44474D01*
X34139Y-44474D01*
X34201Y-44411D01*
X34201Y-44149D01*
X34194Y-44149D01*
X34194Y-44049D01*
X34201Y-44049D01*
X34201Y-44041D01*
X34301Y-44041D01*
X34301Y-44049D01*
X34309Y-44049D01*
X34309Y-44149D01*
X34301Y-44149D01*
X34301Y-44411D01*
X34364Y-44474D01*
X34427Y-44474D01*
X34526Y-44474D01*
X34618Y-44436D01*
X34669Y-44385D01*
X34713Y-44403D01*
X34813Y-44403D01*
X34887Y-44403D01*
X34950Y-44341D01*
X34950Y-43849D01*
X34942Y-43849D01*
X34942Y-43749D01*
X34950Y-43749D01*
X34950Y-43741D01*
X35050Y-43741D01*
X35050Y-43749D01*
X35057Y-43749D01*
X35057Y-43849D01*
X35050Y-43849D01*
X35050Y-44341D01*
X35112Y-44403D01*
X35186Y-44403D01*
X35286Y-44403D01*
X35378Y-44365D01*
X35448Y-44294D01*
X35472Y-44236D01*
X35496Y-44294D01*
X35566Y-44365D01*
X35658Y-44403D01*
X35758Y-44403D01*
X36230Y-44403D01*
X36322Y-44365D01*
X36392Y-44295D01*
X36431Y-44203D01*
X36431Y-44104D01*
X36431Y-43395D01*
X36431Y-42628D01*
X36431Y-42336D01*
X36368Y-42274D01*
X35994Y-42274D01*
X35994Y-42766D01*
X36057Y-42828D01*
X36131Y-42828D01*
X36231Y-42828D01*
X36322Y-42790D01*
X36393Y-42720D01*
X36431Y-42628D01*
X36431Y-43395D01*
X36393Y-43303D01*
X36322Y-43233D01*
X36231Y-43194D01*
X36131Y-43194D01*
X35882Y-43194D01*
X35664Y-42976D01*
X35567Y-42911D01*
X35452Y-42888D01*
X34562Y-42888D01*
X34447Y-42911D01*
X34350Y-42976D01*
X34210Y-43116D01*
X33936Y-42843D01*
X33977Y-42859D01*
X34076Y-42860D01*
X34139Y-42860D01*
X34201Y-42797D01*
X34201Y-42535D01*
X33839Y-42535D01*
X33776Y-42597D01*
X33776Y-42659D01*
X33797Y-42709D01*
X33717Y-42655D01*
X33602Y-42633D01*
X33362Y-42633D01*
X33810Y-42185D01*
X33848Y-42185D01*
X33814Y-42218D01*
X33776Y-42310D01*
X33776Y-42372D01*
X33839Y-42435D01*
X34201Y-42435D01*
X34201Y-42427D01*
X34301Y-42427D01*
X34301Y-42435D01*
X34309Y-42435D01*
X34309Y-42535D01*
X34301Y-42535D01*
X34301Y-42797D01*
X34364Y-42860D01*
X34427Y-42860D01*
X34526Y-42859D01*
X34618Y-42821D01*
X34641Y-42798D01*
X34713Y-42828D01*
X34813Y-42828D01*
X35285Y-42828D01*
X35377Y-42790D01*
X35448Y-42720D01*
X35472Y-42661D01*
X35496Y-42720D01*
X35566Y-42790D01*
X35658Y-42828D01*
X35758Y-42828D01*
X35832Y-42828D01*
X35894Y-42766D01*
X35894Y-42274D01*
X35887Y-42274D01*
X35887Y-42174D01*
X35894Y-42174D01*
X35894Y-42166D01*
X35994Y-42166D01*
X35994Y-42174D01*
X36368Y-42174D01*
X36426Y-42116D01*
X36445Y-42116D01*
X37002Y-42673D01*
X37002Y-42673D01*
X37099Y-42738D01*
X37124Y-42743D01*
X37129Y-42756D01*
X37093Y-42843D01*
X37092Y-42943D01*
X37092Y-43257D01*
X37130Y-43349D01*
X37201Y-43419D01*
X37293Y-43457D01*
X37392Y-43457D01*
X37706Y-43457D01*
X37798Y-43419D01*
X37868Y-43349D01*
X37875Y-43333D01*
X37875Y-43333D01*
X37900Y-43328D01*
X37900Y-43328D01*
X37989Y-43268D01*
X37989Y-43269D01*
X38027Y-43361D01*
X38057Y-43391D01*
X38057Y-43391D01*
G54D10*
G36*
X38446Y-46281D02*
X38375Y-46351D01*
X38370Y-46346D01*
X38364Y-46351D01*
X38293Y-46281D01*
X38299Y-46275D01*
X38293Y-46270D01*
X38364Y-46199D01*
X38370Y-46204D01*
X38375Y-46199D01*
X38446Y-46270D01*
X38440Y-46275D01*
X38446Y-46281D01*
X38446Y-46281D01*
G37*
G54D23*
X38446Y-46281D02*
X38375Y-46351D01*
X38370Y-46346D01*
X38364Y-46351D01*
X38293Y-46281D01*
X38299Y-46275D01*
X38293Y-46270D01*
X38364Y-46199D01*
X38370Y-46204D01*
X38375Y-46199D01*
X38446Y-46270D01*
X38440Y-46275D01*
X38446Y-46281D01*
G54D10*
G36*
X39100Y-44560D02*
X39060Y-44501D01*
X39060Y-44501D01*
X38920Y-44360D01*
X38920Y-44166D01*
X38836Y-43964D01*
X38698Y-43826D01*
X38698Y-43607D01*
X38768Y-43503D01*
X38768Y-43503D01*
X38778Y-43454D01*
X38830Y-43432D01*
X38901Y-43362D01*
X38939Y-43270D01*
X38939Y-43170D01*
X38939Y-42920D01*
X38901Y-42828D01*
X38868Y-42795D01*
X38901Y-42762D01*
X38939Y-42670D01*
X38939Y-42570D01*
X38939Y-42320D01*
X38901Y-42228D01*
X38831Y-42158D01*
X38739Y-42120D01*
X38640Y-42120D01*
X38190Y-42120D01*
X38098Y-42158D01*
X38048Y-42207D01*
X37995Y-42218D01*
X37907Y-42277D01*
X37907Y-42254D01*
X37869Y-42162D01*
X37798Y-42092D01*
X37706Y-42053D01*
X37607Y-42053D01*
X37293Y-42053D01*
X37249Y-42072D01*
X37081Y-41903D01*
X38115Y-41903D01*
X38178Y-41841D01*
X38178Y-40561D01*
X38170Y-40561D01*
X38170Y-40461D01*
X38178Y-40461D01*
X38178Y-40453D01*
X38278Y-40453D01*
X38278Y-40461D01*
X38286Y-40461D01*
X38286Y-40561D01*
X38278Y-40561D01*
X38278Y-41841D01*
X38340Y-41903D01*
X39100Y-41903D01*
X39100Y-44560D01*
X39100Y-44560D01*
G37*
G54D23*
X39100Y-44560D02*
X39060Y-44501D01*
X39060Y-44501D01*
X38920Y-44360D01*
X38920Y-44166D01*
X38836Y-43964D01*
X38698Y-43826D01*
X38698Y-43607D01*
X38768Y-43503D01*
X38768Y-43503D01*
X38778Y-43454D01*
X38830Y-43432D01*
X38901Y-43362D01*
X38939Y-43270D01*
X38939Y-43170D01*
X38939Y-42920D01*
X38901Y-42828D01*
X38868Y-42795D01*
X38901Y-42762D01*
X38939Y-42670D01*
X38939Y-42570D01*
X38939Y-42320D01*
X38901Y-42228D01*
X38831Y-42158D01*
X38739Y-42120D01*
X38640Y-42120D01*
X38190Y-42120D01*
X38098Y-42158D01*
X38048Y-42207D01*
X37995Y-42218D01*
X37907Y-42277D01*
X37907Y-42254D01*
X37869Y-42162D01*
X37798Y-42092D01*
X37706Y-42053D01*
X37607Y-42053D01*
X37293Y-42053D01*
X37249Y-42072D01*
X37081Y-41903D01*
X38115Y-41903D01*
X38178Y-41841D01*
X38178Y-40561D01*
X38170Y-40561D01*
X38170Y-40461D01*
X38178Y-40461D01*
X38178Y-40453D01*
X38278Y-40453D01*
X38278Y-40461D01*
X38286Y-40461D01*
X38286Y-40561D01*
X38278Y-40561D01*
X38278Y-41841D01*
X38340Y-41903D01*
X39100Y-41903D01*
X39100Y-44560D01*
G54D10*
G36*
X39100Y-48647D02*
X38340Y-48647D01*
X38278Y-48710D01*
X38278Y-49989D01*
X38286Y-49989D01*
X38286Y-50089D01*
X38278Y-50089D01*
X38278Y-50097D01*
X38178Y-50097D01*
X38178Y-50089D01*
X38170Y-50089D01*
X38170Y-49989D01*
X38178Y-49989D01*
X38178Y-48710D01*
X38115Y-48647D01*
X37037Y-48647D01*
X36945Y-48685D01*
X36874Y-48755D01*
X36836Y-48847D01*
X36836Y-48947D01*
X36836Y-49631D01*
X36778Y-49631D01*
X36178Y-49631D01*
X36086Y-49669D01*
X36015Y-49739D01*
X35977Y-49831D01*
X35977Y-49853D01*
X35839Y-49715D01*
X35637Y-49631D01*
X35418Y-49631D01*
X35216Y-49714D01*
X35061Y-49869D01*
X35027Y-49950D01*
X34994Y-49869D01*
X34839Y-49715D01*
X34637Y-49631D01*
X34418Y-49631D01*
X34216Y-49714D01*
X34061Y-49869D01*
X34027Y-49950D01*
X33994Y-49869D01*
X33839Y-49715D01*
X33637Y-49631D01*
X33418Y-49631D01*
X33216Y-49714D01*
X33061Y-49869D01*
X33027Y-49950D01*
X32994Y-49869D01*
X32839Y-49715D01*
X32637Y-49631D01*
X32418Y-49631D01*
X32216Y-49714D01*
X32061Y-49869D01*
X32027Y-49950D01*
X31994Y-49869D01*
X31839Y-49715D01*
X31814Y-49704D01*
X32223Y-49295D01*
X35870Y-49295D01*
X35985Y-49272D01*
X36082Y-49207D01*
X36148Y-49110D01*
X36158Y-49057D01*
X36207Y-49008D01*
X36245Y-48916D01*
X36245Y-48817D01*
X36245Y-48367D01*
X36232Y-48335D01*
X36263Y-48322D01*
X36333Y-48252D01*
X36349Y-48213D01*
X36365Y-48210D01*
X36365Y-48210D01*
X36463Y-48145D01*
X36504Y-48103D01*
X36573Y-48132D01*
X36719Y-48132D01*
X36855Y-48076D01*
X36958Y-47972D01*
X37015Y-47837D01*
X37015Y-47800D01*
X37147Y-47800D01*
X37112Y-47883D01*
X37112Y-47982D01*
X37112Y-48296D01*
X37150Y-48388D01*
X37220Y-48459D01*
X37312Y-48497D01*
X37412Y-48497D01*
X37726Y-48497D01*
X37818Y-48459D01*
X37888Y-48389D01*
X37894Y-48375D01*
X38061Y-48375D01*
X38097Y-48412D01*
X38189Y-48450D01*
X38289Y-48450D01*
X38739Y-48450D01*
X38830Y-48412D01*
X38901Y-48342D01*
X38939Y-48250D01*
X38939Y-48151D01*
X38939Y-47901D01*
X38901Y-47809D01*
X38868Y-47775D01*
X38901Y-47742D01*
X38939Y-47650D01*
X38939Y-47551D01*
X38939Y-47301D01*
X38905Y-47217D01*
X39060Y-47061D01*
X39060Y-47061D01*
X39100Y-47002D01*
X39100Y-48647D01*
X39100Y-48647D01*
G37*
G54D23*
X39100Y-48647D02*
X38340Y-48647D01*
X38278Y-48710D01*
X38278Y-49989D01*
X38286Y-49989D01*
X38286Y-50089D01*
X38278Y-50089D01*
X38278Y-50097D01*
X38178Y-50097D01*
X38178Y-50089D01*
X38170Y-50089D01*
X38170Y-49989D01*
X38178Y-49989D01*
X38178Y-48710D01*
X38115Y-48647D01*
X37037Y-48647D01*
X36945Y-48685D01*
X36874Y-48755D01*
X36836Y-48847D01*
X36836Y-48947D01*
X36836Y-49631D01*
X36778Y-49631D01*
X36178Y-49631D01*
X36086Y-49669D01*
X36015Y-49739D01*
X35977Y-49831D01*
X35977Y-49853D01*
X35839Y-49715D01*
X35637Y-49631D01*
X35418Y-49631D01*
X35216Y-49714D01*
X35061Y-49869D01*
X35027Y-49950D01*
X34994Y-49869D01*
X34839Y-49715D01*
X34637Y-49631D01*
X34418Y-49631D01*
X34216Y-49714D01*
X34061Y-49869D01*
X34027Y-49950D01*
X33994Y-49869D01*
X33839Y-49715D01*
X33637Y-49631D01*
X33418Y-49631D01*
X33216Y-49714D01*
X33061Y-49869D01*
X33027Y-49950D01*
X32994Y-49869D01*
X32839Y-49715D01*
X32637Y-49631D01*
X32418Y-49631D01*
X32216Y-49714D01*
X32061Y-49869D01*
X32027Y-49950D01*
X31994Y-49869D01*
X31839Y-49715D01*
X31814Y-49704D01*
X32223Y-49295D01*
X35870Y-49295D01*
X35985Y-49272D01*
X36082Y-49207D01*
X36148Y-49110D01*
X36158Y-49057D01*
X36207Y-49008D01*
X36245Y-48916D01*
X36245Y-48817D01*
X36245Y-48367D01*
X36232Y-48335D01*
X36263Y-48322D01*
X36333Y-48252D01*
X36349Y-48213D01*
X36365Y-48210D01*
X36365Y-48210D01*
X36463Y-48145D01*
X36504Y-48103D01*
X36573Y-48132D01*
X36719Y-48132D01*
X36855Y-48076D01*
X36958Y-47972D01*
X37015Y-47837D01*
X37015Y-47800D01*
X37147Y-47800D01*
X37112Y-47883D01*
X37112Y-47982D01*
X37112Y-48296D01*
X37150Y-48388D01*
X37220Y-48459D01*
X37312Y-48497D01*
X37412Y-48497D01*
X37726Y-48497D01*
X37818Y-48459D01*
X37888Y-48389D01*
X37894Y-48375D01*
X38061Y-48375D01*
X38097Y-48412D01*
X38189Y-48450D01*
X38289Y-48450D01*
X38739Y-48450D01*
X38830Y-48412D01*
X38901Y-48342D01*
X38939Y-48250D01*
X38939Y-48151D01*
X38939Y-47901D01*
X38901Y-47809D01*
X38868Y-47775D01*
X38901Y-47742D01*
X38939Y-47650D01*
X38939Y-47551D01*
X38939Y-47301D01*
X38905Y-47217D01*
X39060Y-47061D01*
X39060Y-47061D01*
X39100Y-47002D01*
X39100Y-48647D01*
M02*
