G04 (created by PCBNEW (2013-may-18)-stable) date Sun 24 May 2015 11:52:58 PM CST*
%MOIN*%
G04 Gerber Fmt 3.4, Leading zero omitted, Abs format*
%FSLAX34Y34*%
G01*
G70*
G90*
G04 APERTURE LIST*
%ADD10C,0.00590551*%
%ADD11R,0.0984252X0.0314961*%
%ADD12R,0.240346X0.240346*%
%ADD13R,0.06X0.06*%
%ADD14C,0.06*%
%ADD15R,0.0314X0.0314*%
%ADD16R,0.06X0.08*%
%ADD17R,0.045X0.025*%
%ADD18R,0.025X0.045*%
%ADD19R,0.0513701X0.0474331*%
%ADD20R,0.0592441X0.0828661*%
%ADD21R,0.035X0.055*%
G04 APERTURE END LIST*
G54D10*
G36*
X28992Y-46711D02*
X28568Y-47135D01*
X28455Y-47022D01*
X28879Y-46597D01*
X28992Y-46711D01*
X28992Y-46711D01*
G37*
G36*
X29215Y-46933D02*
X28791Y-47358D01*
X28678Y-47244D01*
X29102Y-46820D01*
X29215Y-46933D01*
X29215Y-46933D01*
G37*
G36*
X29438Y-47156D02*
X29013Y-47580D01*
X28900Y-47467D01*
X29325Y-47043D01*
X29438Y-47156D01*
X29438Y-47156D01*
G37*
G36*
X29660Y-47379D02*
X29236Y-47803D01*
X29123Y-47690D01*
X29547Y-47266D01*
X29660Y-47379D01*
X29660Y-47379D01*
G37*
G36*
X29883Y-47601D02*
X29459Y-48026D01*
X29346Y-47913D01*
X29770Y-47488D01*
X29883Y-47601D01*
X29883Y-47601D01*
G37*
G36*
X30106Y-47824D02*
X29682Y-48248D01*
X29568Y-48135D01*
X29993Y-47711D01*
X30106Y-47824D01*
X30106Y-47824D01*
G37*
G36*
X28769Y-46488D02*
X28345Y-46912D01*
X28232Y-46799D01*
X28656Y-46375D01*
X28769Y-46488D01*
X28769Y-46488D01*
G37*
G36*
X28547Y-46265D02*
X28122Y-46689D01*
X28009Y-46576D01*
X28434Y-46152D01*
X28547Y-46265D01*
X28547Y-46265D01*
G37*
G36*
X28324Y-46042D02*
X27900Y-46467D01*
X27787Y-46353D01*
X28211Y-45929D01*
X28324Y-46042D01*
X28324Y-46042D01*
G37*
G36*
X28101Y-45820D02*
X27677Y-46244D01*
X27564Y-46131D01*
X27988Y-45706D01*
X28101Y-45820D01*
X28101Y-45820D01*
G37*
G36*
X27878Y-45597D02*
X27454Y-46021D01*
X27341Y-45908D01*
X27765Y-45484D01*
X27878Y-45597D01*
X27878Y-45597D01*
G37*
G36*
X32174Y-43529D02*
X31750Y-43953D01*
X31637Y-43840D01*
X32061Y-43415D01*
X32174Y-43529D01*
X32174Y-43529D01*
G37*
G36*
X32397Y-43751D02*
X31973Y-44176D01*
X31859Y-44062D01*
X32284Y-43638D01*
X32397Y-43751D01*
X32397Y-43751D01*
G37*
G36*
X32620Y-43974D02*
X32195Y-44398D01*
X32082Y-44285D01*
X32506Y-43861D01*
X32620Y-43974D01*
X32620Y-43974D01*
G37*
G36*
X32842Y-44197D02*
X32418Y-44621D01*
X32305Y-44508D01*
X32729Y-44084D01*
X32842Y-44197D01*
X32842Y-44197D01*
G37*
G36*
X33065Y-44419D02*
X32641Y-44844D01*
X32528Y-44731D01*
X32952Y-44306D01*
X33065Y-44419D01*
X33065Y-44419D01*
G37*
G36*
X33288Y-44642D02*
X32864Y-45066D01*
X32750Y-44953D01*
X33175Y-44529D01*
X33288Y-44642D01*
X33288Y-44642D01*
G37*
G36*
X31951Y-43306D02*
X31527Y-43730D01*
X31414Y-43617D01*
X31838Y-43193D01*
X31951Y-43306D01*
X31951Y-43306D01*
G37*
G36*
X31729Y-43083D02*
X31304Y-43507D01*
X31191Y-43394D01*
X31616Y-42970D01*
X31729Y-43083D01*
X31729Y-43083D01*
G37*
G36*
X31506Y-42860D02*
X31082Y-43285D01*
X30969Y-43171D01*
X31393Y-42747D01*
X31506Y-42860D01*
X31506Y-42860D01*
G37*
G36*
X31283Y-42638D02*
X30859Y-43062D01*
X30746Y-42949D01*
X31170Y-42524D01*
X31283Y-42638D01*
X31283Y-42638D01*
G37*
G36*
X31060Y-42415D02*
X30636Y-42839D01*
X30523Y-42726D01*
X30947Y-42302D01*
X31060Y-42415D01*
X31060Y-42415D01*
G37*
G36*
X32174Y-47022D02*
X32061Y-47135D01*
X31637Y-46711D01*
X31750Y-46597D01*
X32174Y-47022D01*
X32174Y-47022D01*
G37*
G36*
X28992Y-43840D02*
X28879Y-43953D01*
X28455Y-43529D01*
X28568Y-43415D01*
X28992Y-43840D01*
X28992Y-43840D01*
G37*
G36*
X32397Y-46799D02*
X32284Y-46912D01*
X31859Y-46488D01*
X31973Y-46375D01*
X32397Y-46799D01*
X32397Y-46799D01*
G37*
G36*
X29215Y-43617D02*
X29102Y-43730D01*
X28678Y-43306D01*
X28791Y-43193D01*
X29215Y-43617D01*
X29215Y-43617D01*
G37*
G36*
X29438Y-43394D02*
X29325Y-43507D01*
X28900Y-43083D01*
X29013Y-42970D01*
X29438Y-43394D01*
X29438Y-43394D01*
G37*
G36*
X32620Y-46576D02*
X32506Y-46689D01*
X32082Y-46265D01*
X32195Y-46152D01*
X32620Y-46576D01*
X32620Y-46576D01*
G37*
G36*
X32842Y-46353D02*
X32729Y-46467D01*
X32305Y-46042D01*
X32418Y-45929D01*
X32842Y-46353D01*
X32842Y-46353D01*
G37*
G36*
X29660Y-43171D02*
X29547Y-43285D01*
X29123Y-42860D01*
X29236Y-42747D01*
X29660Y-43171D01*
X29660Y-43171D01*
G37*
G36*
X29883Y-42949D02*
X29770Y-43062D01*
X29346Y-42638D01*
X29459Y-42524D01*
X29883Y-42949D01*
X29883Y-42949D01*
G37*
G36*
X33065Y-46131D02*
X32952Y-46244D01*
X32528Y-45820D01*
X32641Y-45706D01*
X33065Y-46131D01*
X33065Y-46131D01*
G37*
G36*
X33288Y-45908D02*
X33175Y-46021D01*
X32750Y-45597D01*
X32864Y-45484D01*
X33288Y-45908D01*
X33288Y-45908D01*
G37*
G36*
X30106Y-42726D02*
X29993Y-42839D01*
X29568Y-42415D01*
X29682Y-42302D01*
X30106Y-42726D01*
X30106Y-42726D01*
G37*
G36*
X28769Y-44062D02*
X28656Y-44176D01*
X28232Y-43751D01*
X28345Y-43638D01*
X28769Y-44062D01*
X28769Y-44062D01*
G37*
G36*
X31951Y-47244D02*
X31838Y-47358D01*
X31414Y-46933D01*
X31527Y-46820D01*
X31951Y-47244D01*
X31951Y-47244D01*
G37*
G36*
X31729Y-47467D02*
X31616Y-47580D01*
X31191Y-47156D01*
X31304Y-47043D01*
X31729Y-47467D01*
X31729Y-47467D01*
G37*
G36*
X28547Y-44285D02*
X28434Y-44398D01*
X28009Y-43974D01*
X28122Y-43861D01*
X28547Y-44285D01*
X28547Y-44285D01*
G37*
G36*
X28324Y-44508D02*
X28211Y-44621D01*
X27787Y-44197D01*
X27900Y-44084D01*
X28324Y-44508D01*
X28324Y-44508D01*
G37*
G36*
X31506Y-47690D02*
X31393Y-47803D01*
X30969Y-47379D01*
X31082Y-47266D01*
X31506Y-47690D01*
X31506Y-47690D01*
G37*
G36*
X31283Y-47913D02*
X31170Y-48026D01*
X30746Y-47601D01*
X30859Y-47488D01*
X31283Y-47913D01*
X31283Y-47913D01*
G37*
G36*
X28101Y-44731D02*
X27988Y-44844D01*
X27564Y-44419D01*
X27677Y-44306D01*
X28101Y-44731D01*
X28101Y-44731D01*
G37*
G36*
X27878Y-44953D02*
X27765Y-45066D01*
X27341Y-44642D01*
X27454Y-44529D01*
X27878Y-44953D01*
X27878Y-44953D01*
G37*
G36*
X31060Y-48135D02*
X30947Y-48248D01*
X30523Y-47824D01*
X30636Y-47711D01*
X31060Y-48135D01*
X31060Y-48135D01*
G37*
G54D11*
X19862Y-40629D03*
X19862Y-40944D03*
X19862Y-41259D03*
X19862Y-41574D03*
X19862Y-41889D03*
X19862Y-42204D03*
X19862Y-42519D03*
X19862Y-42834D03*
X19862Y-44409D03*
X19862Y-44724D03*
X19862Y-45039D03*
X19862Y-45354D03*
X19862Y-45669D03*
X19862Y-45984D03*
X19862Y-46299D03*
X19862Y-46614D03*
X19862Y-46929D03*
X19862Y-47244D03*
X19862Y-47559D03*
X19862Y-47874D03*
X19862Y-48188D03*
X19862Y-48503D03*
X19862Y-48818D03*
X19862Y-49133D03*
X19862Y-49448D03*
X19862Y-49763D03*
G54D12*
X38228Y-50039D03*
X38228Y-40511D03*
G54D13*
X37370Y-44275D03*
G54D14*
X38370Y-44275D03*
X37370Y-45275D03*
X38370Y-45275D03*
X37370Y-46275D03*
X38370Y-46275D03*
G54D13*
X36527Y-40370D03*
G54D14*
X35527Y-40370D03*
X34527Y-40370D03*
X33527Y-40370D03*
X32527Y-40370D03*
X31527Y-40370D03*
X30527Y-40370D03*
X29527Y-40370D03*
X28527Y-40370D03*
X27527Y-40370D03*
X26527Y-40370D03*
X25527Y-40370D03*
X24527Y-40370D03*
X23527Y-40370D03*
X22527Y-40370D03*
G54D13*
X36527Y-50181D03*
G54D14*
X35527Y-50181D03*
X34527Y-50181D03*
X33527Y-50181D03*
X32527Y-50181D03*
X31527Y-50181D03*
X30527Y-50181D03*
X29527Y-50181D03*
X28527Y-50181D03*
X27527Y-50181D03*
X26527Y-50181D03*
X25527Y-50181D03*
X24527Y-50181D03*
G54D15*
X23464Y-43385D03*
X23464Y-42795D03*
G54D16*
X23208Y-44625D03*
X24508Y-44625D03*
G54D17*
X24232Y-42790D03*
X24232Y-43390D03*
G54D18*
X35270Y-48641D03*
X35870Y-48641D03*
X22347Y-47145D03*
X21747Y-47145D03*
X22347Y-47933D03*
X21747Y-47933D03*
G54D17*
X24232Y-41491D03*
X24232Y-42091D03*
X38464Y-42495D03*
X38464Y-43095D03*
X38464Y-48075D03*
X38464Y-47475D03*
X34251Y-41885D03*
X34251Y-42485D03*
G54D10*
G36*
X32661Y-47217D02*
X32979Y-47535D01*
X32802Y-47712D01*
X32484Y-47394D01*
X32661Y-47217D01*
X32661Y-47217D01*
G37*
G36*
X32236Y-47641D02*
X32555Y-47960D01*
X32378Y-48136D01*
X32060Y-47818D01*
X32236Y-47641D01*
X32236Y-47641D01*
G37*
G54D17*
X22401Y-44925D03*
X22401Y-44325D03*
G54D10*
G36*
X33628Y-43940D02*
X33310Y-44258D01*
X33133Y-44082D01*
X33452Y-43763D01*
X33628Y-43940D01*
X33628Y-43940D01*
G37*
G36*
X33204Y-43516D02*
X32886Y-43834D01*
X32709Y-43657D01*
X33027Y-43339D01*
X33204Y-43516D01*
X33204Y-43516D01*
G37*
G54D17*
X26633Y-45575D03*
X26633Y-44975D03*
G54D10*
G36*
X28018Y-48113D02*
X27700Y-48432D01*
X27523Y-48255D01*
X27841Y-47937D01*
X28018Y-48113D01*
X28018Y-48113D01*
G37*
G36*
X27594Y-47689D02*
X27276Y-48007D01*
X27099Y-47831D01*
X27417Y-47512D01*
X27594Y-47689D01*
X27594Y-47689D01*
G37*
G54D17*
X34251Y-43499D03*
X34251Y-44099D03*
G54D15*
X37519Y-48090D03*
X37519Y-47500D03*
X37500Y-43050D03*
X37500Y-42460D03*
X23484Y-42086D03*
X23484Y-41496D03*
G54D19*
X34744Y-47933D03*
X34744Y-45767D03*
X35925Y-47933D03*
X35925Y-45767D03*
G54D20*
X35944Y-42224D03*
X35944Y-43799D03*
X35000Y-43799D03*
X35000Y-42224D03*
G54D21*
X24607Y-45669D03*
X23857Y-45669D03*
M02*
